<svg width="437" height="295" viewBox="0 0 437 295" fill="none" xmlns="http://www.w3.org/2000/svg">
<mask id="mask0_254_6809" style="mask-type:alpha" maskUnits="userSpaceOnUse" x="0" y="0" width="437" height="295">
<rect y="0.377411" width="437" height="294.623" fill="#C4C4C4"/>
</mask>
<g mask="url(#mask0_254_6809)">
<path d="M331.259 151.836C328.66 151.836 326.085 151.917 323.536 152.075C311.241 152.839 300.049 144.971 296.677 133.123C279.797 73.8133 225.226 30.3793 160.502 30.3789C82.0777 30.3785 18.9108 93.5542 18.922 171.979C18.9332 250.162 82.3163 313.536 160.501 313.536C196.078 313.536 228.587 300.411 253.458 278.744C271.48 297.252 299.626 309.164 331.259 309.164C385.66 309.164 429.759 273.945 429.759 230.5C429.759 187.055 385.66 151.836 331.259 151.836Z" fill="#F7B2B2"/>
<path d="M249.329 292.139L249.757 291.266C250.384 289.989 250.957 288.66 251.458 287.311C253.591 281.612 253.08 276.542 252.373 271.836C251.947 269.033 251.169 266.284 250.416 263.626C249.374 259.956 248.39 256.492 248.199 252.859C247.992 248.803 248.812 245.233 250.78 241.623C252.407 238.625 253.981 236.432 255.648 234.109C256.729 232.595 257.845 231.03 259.022 229.199C261.744 224.963 262.758 218.93 262.039 211.269L261.956 210.446C261.391 204.468 260.903 199.305 264.535 193.791C265.023 193.042 265.78 192.193 266.581 191.294C267.865 189.853 269.621 187.88 269.787 186.656C269.898 185.824 269.74 185.093 269.383 184.795C269.223 184.659 268.988 184.59 268.684 184.59C268.391 184.59 268.049 184.652 267.667 184.774C262.001 186.567 256.119 190.358 253.361 193.995C250.833 197.324 250.516 200.069 250.115 203.544L250.102 203.651C249.968 204.787 249.835 205.906 249.627 207.137C248.365 214.552 242.86 219.97 237.536 225.21L237.457 225.287C234.746 227.955 231.943 230.713 229.786 233.677C226.332 238.427 224.393 243.108 224.022 247.591C223.937 248.587 223.952 249.671 224.07 250.905C224.184 252.174 224.39 253.462 224.59 254.707C224.978 257.103 225.416 259.802 225.206 262.45C224.61 270.059 218.755 274.369 213.093 278.538L212.985 278.617C210.571 280.401 208.074 282.245 206 284.338C203.809 286.55 201.626 289.481 200.437 291.807L200.269 292.139H197.515L197.917 291.278C199.424 288.039 202.259 284.57 204.229 282.584C206.435 280.355 209.007 278.456 211.494 276.619L211.614 276.53C217.067 272.521 222.218 268.733 222.722 262.261C222.905 259.947 222.522 257.544 222.15 255.22L222.109 254.971C221.898 253.654 221.679 252.292 221.572 250.915C221.456 249.633 221.445 248.479 221.539 247.387C221.953 242.442 224.05 237.335 227.77 232.21C230.05 229.086 232.931 226.248 235.717 223.504L235.768 223.453C241.05 218.26 246.038 213.354 247.173 206.72C247.362 205.616 247.483 204.587 247.6 203.592L247.639 203.252C248.072 199.544 248.447 196.341 251.377 192.481C254.94 187.793 261.746 184.036 266.911 182.393C267.535 182.196 268.129 182.096 268.675 182.096C269.581 182.096 270.359 182.361 270.988 182.883C272.027 183.768 272.49 185.265 272.259 186.991C271.995 188.961 270.115 191.074 268.457 192.939C267.779 193.695 267.021 194.542 266.615 195.162C263.464 199.944 263.916 204.694 264.439 210.194L264.516 211.037C265.291 219.267 264.15 225.831 261.124 230.547C259.886 232.464 258.784 234.009 257.67 235.553C256.051 237.816 254.532 239.938 252.962 242.812C251.215 246.028 250.5 249.229 250.714 252.887C250.903 256.214 251.825 259.463 252.802 262.904L252.832 263.008C253.598 265.719 254.39 268.523 254.833 271.465C255.393 275.177 256.331 281.391 253.794 288.187C253.344 289.389 252.83 290.602 252.265 291.791L252.1 292.139H249.329Z" fill="#F09E9E"/>
<path d="M231.541 292.139L232.052 291.234C232.983 289.593 233.993 287.987 234.969 286.437C237.432 282.524 239.751 278.84 240.574 275.256C241.574 270.901 240.712 264.866 239.878 259.03C239.178 254.122 238.516 249.486 238.996 246.043C240.089 238.204 245.028 232.358 249.386 227.199C251.916 224.206 254.304 221.38 255.438 218.67C256.297 216.617 256.303 213.762 256.31 210.455C256.324 204.777 256.341 197.713 261.125 191.819C261.342 191.551 261.664 191.398 262.009 191.398C262.27 191.398 262.525 191.488 262.728 191.654C262.963 191.844 263.11 192.116 263.143 192.419C263.174 192.723 263.085 193.019 262.893 193.256C258.615 198.527 258.601 204.864 258.589 210.455C258.58 214.014 258.573 217.08 257.54 219.55C256.272 222.577 253.78 225.529 251.14 228.655C246.972 233.587 242.255 239.168 241.253 246.359C240.818 249.481 241.457 253.963 242.134 258.707C242.997 264.756 243.888 271.004 242.795 275.766C241.885 279.729 239.351 283.753 236.9 287.647C235.964 289.132 235.125 290.474 234.336 291.835L234.162 292.139H231.541Z" fill="#F09E9E"/>
<path d="M217.122 291.286C222.814 285.842 227.508 279.293 231.783 271.22C232.501 269.865 233.155 268.447 233.76 266.988L223.539 268.26L235.662 261.706C240.723 245.346 239.859 225.509 235.135 216.64C220.849 221.5 207.521 231.861 197.152 251.248C192.61 259.739 190.832 277.618 191.76 291.286H217.122Z" fill="#D98282"/>
<path d="M112.338 291.283H109.334C108.544 290.734 107.761 290.173 106.978 289.605C106.352 289.148 105.726 288.676 105.106 288.207C97.9027 282.777 90.998 276.506 84.898 269.501C84.1076 268.59 83.3249 267.665 82.5633 266.725C79.2321 262.647 76.1783 258.334 73.5089 253.806C70.8255 249.258 68.5264 244.489 66.7114 239.527C62.6683 228.9 61.0171 215.397 61.586 203.14L66.8039 205.425L68.8255 206.315L71.6226 207.539L68.9464 204.87V204.863L66.9961 202.919L61.9708 197.901C62.4761 192.975 63.3658 188.37 64.6258 184.391C64.9317 183.416 65.2664 182.483 65.6152 181.586C66.462 179.444 67.4302 177.536 68.5264 175.935C72.0711 177.594 75.5305 179.544 78.8761 181.814C80.0505 182.604 81.2108 183.437 82.3495 184.312V184.32C93.7458 193.025 103.697 205.83 111.092 224.266C113.833 231.114 115.648 242.268 116.26 253.806C117.043 268.32 115.911 283.431 112.338 291.283Z" fill="#D98282"/>
<path d="M104.264 291.483V291.282C104.264 291.138 104.284 291.01 104.325 290.894C104.523 290.265 104.72 289.349 104.907 288.175C105.929 281.792 106.686 266.494 103.911 258.37C102.098 253.043 99.8994 249.589 98.1861 247.175C97.4033 246.08 96.6005 245.039 95.8242 244.032L95.4799 243.588C92.8085 240.16 90.2852 236.922 88.7485 231.928C86.4735 224.608 85.4801 215.192 84.604 206.884C83.955 200.65 83.3416 194.763 82.283 190.951C81.4662 187.986 80.2598 184.943 78.6971 181.907C72.049 169.028 60.1874 159.039 54.4186 159.039C53.2194 159.039 52.2308 159.471 51.4809 160.323C49.9078 162.118 49.366 165.57 49.9566 170.043C50.4075 173.473 52.1588 176.284 54.0126 179.259C56.1346 182.665 58.3264 186.182 58.4849 190.705C58.6435 195.048 57.7835 199.467 56.873 204.146C55.7939 209.752 54.5707 216.107 54.9827 223.08C55.3931 229.971 58.7408 235.86 61.1848 240.161C62.1433 241.842 62.8572 243.117 63.3097 244.213C63.624 244.957 63.9215 245.777 64.1917 246.649C66.6129 254.567 64.5485 261.534 62.3627 268.911C61.1728 272.94 59.9424 277.106 59.4879 281.495C59.4311 282.101 59.369 282.819 59.3394 283.547C59.3322 283.709 59.3254 283.869 59.3254 284.03C59.2257 286.511 59.2613 288.916 59.4311 291.19L59.4319 291.483H56.9571L56.9438 291.298C56.7569 288.768 56.7228 286.123 56.8429 283.437C56.8505 283.187 56.8646 282.941 56.887 282.694C56.9334 281.905 57.0127 281.081 57.1296 280.182C57.6693 276.012 58.8249 272.092 59.942 268.301L59.9684 268.212C62.0736 261.091 64.0632 254.364 61.6937 247.013C61.4891 246.38 61.2593 245.758 61.009 245.165C60.6014 244.184 59.8515 242.862 59.1264 241.584L59.0203 241.401C56.4538 236.887 52.9399 230.707 52.4943 223.232C52.0663 215.954 53.3167 209.451 54.4198 203.713C55.311 199.123 56.1459 194.82 55.9965 190.798C55.8628 186.943 53.9469 183.863 51.9193 180.602C49.9822 177.497 48.0023 174.323 47.4846 170.374C46.8007 165.162 47.5563 161.007 49.6115 158.675C50.8523 157.265 52.4699 156.55 54.4186 156.55C61.6644 156.55 76.0617 169.323 82.5348 184.232L82.5512 184.27V184.278C83.4233 186.282 84.142 188.301 84.6869 190.281C85.7888 194.274 86.415 200.244 87.0773 206.564C87.9449 214.791 88.9271 224.101 91.1264 231.196C92.5314 235.726 94.9165 238.801 97.4418 242.056C98.4544 243.362 99.5943 244.83 100.731 246.48C103.143 250.014 104.906 253.535 106.279 257.563C109.255 266.311 108.459 282.843 107.176 289.641C107.053 290.31 106.922 290.878 106.788 291.339L106.744 291.483H104.264Z" fill="url(#paint0_linear_254_6809)"/>
<path d="M79.005 291.483L79.1724 291.066C80.9029 286.394 83.6199 277.015 82.3631 266.75C82.249 265.767 82.0912 264.769 81.8954 263.783C81.0722 259.588 76.8369 250.876 73.1001 243.19C70.0295 236.878 67.3785 231.428 66.7847 228.889C65.1579 221.965 65.7837 214.843 66.3891 207.956L66.4544 207.195C66.506 206.602 66.5573 206.007 66.6025 205.409C66.6742 204.577 66.7443 203.738 66.7943 202.907C67.1074 198.375 67.0946 194.964 66.7527 191.845C66.526 189.819 65.7481 187.339 64.442 184.474C61.8359 178.704 57.4908 172.205 54.3405 168.324C54.1307 168.073 54.0334 167.747 54.0683 167.408C54.1031 167.075 54.2633 166.779 54.5207 166.574C54.7429 166.391 55.0156 166.295 55.3083 166.295C55.6834 166.295 56.0362 166.462 56.2752 166.752C58.3493 169.311 62.6875 175.295 65.7949 181.496C67.7781 185.446 68.9348 188.838 69.2331 191.58C69.7252 196.12 69.4825 200.654 69.1474 204.878L68.8691 208.168C68.2805 214.862 67.6724 221.785 69.2071 228.313C69.73 230.545 72.4046 236.054 75.2373 241.887L75.3675 242.154C79.162 249.965 83.4642 258.818 84.3414 263.298C84.7406 265.315 84.9957 267.398 85.0998 269.492C85.583 278.363 83.5254 286.276 81.7137 291.351L81.6664 291.483H79.005Z" fill="url(#paint1_linear_254_6809)"/>
<path d="M24.9971 195.42C23.8888 189.572 27.0102 184.455 32.3258 183.675C38.192 182.814 44.2855 185.647 48.0156 190.349C52.0831 195.477 51.0317 203.754 55.6642 208.291C59.486 212.035 67.6964 211.644 72.6816 218.873C77.4927 225.849 74.0798 233.783 80.4832 243.883C85.5506 251.876 96.4052 254.064 103.848 264.839C108.983 272.274 108.16 287.538 106.262 291.283H40.3176C39.9196 289.345 39.7247 287.287 39.7503 285.099C39.8808 273.916 49.9939 265.128 41.0207 254.3C38.3501 251.077 29.0306 244.92 27.6665 237.211C25.8611 227.011 31.9635 218.835 30.9797 211.495C30.1317 205.165 26.1742 201.631 24.9971 195.42Z" fill="url(#paint2_linear_254_6809)"/>
<path d="M89.0113 291.483L88.9516 291.391C86.7034 287.911 83.6464 282.952 81.8539 279.089C80.0801 275.27 78.6852 271.037 77.3359 266.944C75.2474 260.608 73.2795 254.638 70.1104 250.332C66.6602 245.647 61.8395 242.726 57.1782 239.902C52.8351 237.269 48.7379 234.786 46.1214 231.089C42.6056 226.12 42.9002 221.695 43.241 216.572C43.4051 214.11 43.5725 211.577 43.3475 208.68C42.7421 200.912 36.5741 194.154 31.0034 190.421C30.6431 190.18 30.3976 189.812 30.3136 189.386C30.2299 188.96 30.3164 188.527 30.5586 188.166C30.8609 187.715 31.3662 187.446 31.9091 187.446C32.2318 187.446 32.5445 187.541 32.8136 187.721C39.0161 191.879 45.892 199.501 46.5878 208.427C46.8321 211.553 46.6483 214.321 46.4865 216.764C46.1714 221.478 45.9248 225.184 48.7756 229.211C51.0006 232.357 54.8175 234.669 58.8578 237.118C63.564 239.97 68.896 243.2 72.7282 248.405C76.2052 253.127 78.3469 259.627 80.4181 265.912C81.7398 269.921 83.1063 274.067 84.8016 277.721C86.313 280.975 89.1102 285.751 92.678 291.17L92.8846 291.483H89.0113Z" fill="#F09E9E"/>
<path d="M64.3074 254.895C59.4502 251.327 54.6668 248.325 49.9606 245.833L48.8951 258.228L45.8602 247.913C44.9449 244.802 42.6394 242.278 39.6125 241.117C26.6214 236.132 14.2704 234.927 2.64455 236.308C1.98734 251.473 17.4024 278.119 34.6612 291.283H94.7227C89.715 279.018 78.2442 265.131 64.3074 254.895Z" fill="url(#paint3_linear_254_6809)"/>
<path d="M73.8151 291.283H69.9285C66.1773 288.672 62.597 286.293 59.1236 284.03C58.4401 283.588 57.7638 283.147 57.0876 282.713C55.2442 281.517 53.4288 280.357 51.6351 279.204C44.2394 274.463 37.2566 269.985 30.5941 264.925L16.2371 264.405C15.938 264.391 15.6606 264.27 15.4613 264.049C15.2547 263.828 15.1551 263.544 15.1623 263.252C15.1837 262.654 15.6748 262.17 16.2584 262.17L27.5904 262.582C20.0166 256.518 13.7884 250.24 8.04422 242.908C7.85904 242.674 7.78084 242.382 7.81651 242.083C7.85203 241.791 8.00169 241.528 8.23612 241.343C8.42851 241.193 8.67768 241.108 8.91979 241.108C9.26857 241.108 9.58889 241.264 9.80237 241.535C22.686 257.992 36.6588 266.946 52.8382 277.324C54.2901 278.257 55.7851 279.218 57.3298 280.207C57.9704 280.627 58.6251 281.047 59.2869 281.474C63.7004 284.343 68.4267 287.475 73.3455 290.946L73.8151 291.283Z" fill="#F4D7FA"/>
<path d="M5.19165 153.045C5.19165 170.784 -6.60298 185.169 -21.1451 185.169V120.922C-6.60298 120.922 5.19165 135.307 5.19165 153.045Z" fill="#AEE8FA"/>
<path d="M25.8624 84.8193C10.58 94.5424 -6.97318 96.7205 -21.1451 92.0512V11.5742C-21.0455 11.5102 -20.9459 11.4461 -20.8463 11.382C3.65423 -4.20638 33.9771 -0.398262 46.8749 19.8811C59.7731 40.1605 50.3699 69.2381 25.8624 84.8193Z" fill="#F7B2B2"/>
<path d="M191.791 291.286H103.504C98.9188 291.286 95.2015 287.569 95.2015 282.984V87.9852C95.2015 83.3999 98.9188 79.6827 103.504 79.6827H191.791C196.377 79.6827 200.094 83.3999 200.094 87.9852V282.984C200.094 287.569 196.377 291.286 191.791 291.286Z" fill="#C6C6C6"/>
<path d="M196.678 291.286H108.391C103.805 291.286 100.088 287.569 100.088 282.984V87.9852C100.088 83.3999 103.805 79.6827 108.391 79.6827H196.678C201.264 79.6827 204.981 83.3999 204.981 87.9852V282.984C204.981 287.569 201.264 291.286 196.678 291.286Z" fill="white"/>
<path d="M196.445 287.174H108.624C106.444 287.174 104.676 285.407 104.676 283.227V87.7421C104.676 85.562 106.444 83.7943 108.624 83.7943H196.445C198.626 83.7943 200.393 85.562 200.393 87.7421V283.227C200.393 285.407 198.626 287.174 196.445 287.174Z" fill="url(#paint4_linear_254_6809)"/>
<path d="M166.598 91.1243H138.471C137.117 91.1243 135.985 90.094 135.857 88.7455L135 79.6827H170.069L169.212 88.7455C169.084 90.094 167.952 91.1243 166.598 91.1243Z" fill="white"/>
<path d="M188.848 130.772C191.906 137.338 191.655 143.933 188.287 145.501C184.92 147.07 179.711 143.018 176.652 136.452C173.594 129.885 173.845 123.291 177.212 121.722C180.58 120.154 185.789 124.205 188.848 130.772Z" fill="#EB4444"/>
<path d="M188.287 145.501L206.829 136.866L195.754 113.087L177.212 121.722L188.287 145.501Z" fill="#EA3838"/>
<path d="M195.711 142.044L201.922 139.152L216.529 157.461L210.319 160.353L195.711 142.044Z" fill="#622D2D"/>
<path d="M251.712 101.494C245.597 88.3631 235.182 80.2524 228.441 83.3923C227.588 83.7899 226.826 84.3504 226.175 85.0579C226.175 85.0579 207.356 107.682 195.753 113.086C192.386 114.654 192.136 121.251 195.194 127.816C198.251 134.382 203.462 138.435 206.829 136.867C218.432 131.463 247.859 131.617 247.859 131.617C248.82 131.574 249.739 131.351 250.593 130.954C257.334 127.814 257.828 114.624 251.712 101.494Z" fill="#C6C6C6"/>
<path d="M250.542 100.414C255.98 114.215 254.66 127.666 247.574 130.456C246.674 130.809 245.723 130.98 244.737 130.969C244.737 130.969 214.668 128.986 202.471 133.793C201.389 134.215 200.172 134.097 198.917 133.527C197.528 131.997 196.238 130.059 195.194 127.816C192.136 121.251 192.386 114.654 195.753 113.086C207.353 107.684 226.175 85.0579 226.175 85.0579C226.826 84.3504 227.588 83.7899 228.441 83.3923C233.915 80.8426 241.818 85.7201 247.869 94.6757C247.886 94.6929 247.895 94.7129 247.904 94.7333C248.865 96.5123 249.751 98.4161 250.542 100.414Z" fill="white"/>
<path d="M251.706 101.472C257.822 114.605 257.32 127.795 250.585 130.931C243.85 134.068 233.431 125.965 227.315 112.832C221.198 99.6986 221.7 86.5093 228.435 83.3723C235.171 80.2356 245.589 88.3391 251.706 101.472Z" fill="url(#paint5_linear_254_6809)"/>
<path d="M200.233 134.835L186.334 141.308C183.334 142.706 178.877 139.636 175.776 134.308C176.031 135.019 176.318 135.735 176.652 136.452C179.711 143.018 184.92 147.07 188.287 145.501L206.829 136.866C204.968 137.733 202.545 136.877 200.233 134.835Z" fill="url(#paint6_linear_254_6809)"/>
<path d="M232.016 103.725L237.33 115.134L230.338 118.39C229.252 116.678 228.237 114.818 227.322 112.853C226.407 110.888 225.635 108.914 225.024 106.981L232.016 103.725Z" fill="#D98282"/>
<path d="M237.598 108.067C239.066 111.219 238.946 114.384 237.329 115.137C235.713 115.89 233.212 113.945 231.744 110.793C230.276 107.641 230.397 104.476 232.013 103.723C233.63 102.97 236.13 104.915 237.598 108.067Z" fill="white"/>
<path d="M231.22 83.6886C230.376 83.7334 229.579 83.9272 228.852 84.2667C225.88 85.6497 224.158 89.314 224.003 94.5836C223.844 99.9512 225.334 106.295 228.198 112.445C233.269 123.332 241.513 130.992 247.801 130.66C248.65 130.615 249.453 130.42 250.187 130.077C253.101 128.721 254.813 125.118 255.011 119.934C255.217 114.52 253.736 108.115 250.841 101.899C247.946 95.6827 243.996 90.4275 239.72 87.1019C236.677 84.7356 233.738 83.5552 231.22 83.6886ZM247.988 132.564C240.893 132.94 231.835 124.821 226.45 113.259C220.119 99.6654 220.831 85.8747 228.037 82.5186C228.991 82.0742 230.026 81.8203 231.116 81.7627C234.105 81.6041 237.489 82.9238 240.903 85.5792C245.417 89.0902 249.567 94.5972 252.589 101.085C255.61 107.573 257.155 114.292 256.938 120.007C256.712 125.951 254.603 130.148 251.002 131.825C250.072 132.259 249.058 132.507 247.988 132.564Z" fill="#622D2D"/>
<path d="M235.374 109.103C235.726 109.859 235.697 110.619 235.309 110.8C234.921 110.98 234.321 110.514 233.969 109.757C233.616 109.001 233.645 108.241 234.033 108.06C234.421 107.88 235.021 108.346 235.374 109.103Z" fill="#D98282"/>
<path d="M251.706 101.472C248.265 94.0844 243.463 88.2883 238.721 85.1893C241.621 88.3063 244.336 92.331 246.509 96.9952C252.625 110.128 252.124 123.318 245.389 126.455C242.442 127.827 238.791 127.048 235.103 124.638C240.368 130.298 246.242 132.954 250.585 130.932C257.32 127.795 257.822 114.605 251.706 101.472Z" fill="#622D33"/>
<path d="M270.793 216.836C269.577 214.462 263.693 216.239 258.863 218.008C253.334 220.034 241.738 223.407 237.527 224.667C230.459 226.779 223.287 228.304 214.976 224.581C206.04 220.579 198.331 214.456 190.425 206.428C174.802 190.564 168.505 188.461 162.812 197.466C159.004 203.488 156.432 227.861 167.555 238.795C176.057 247.152 187.777 250.663 200 252.491C215.733 254.843 228.767 253.502 241.057 247.079C251.289 241.732 263.064 232.463 267.23 229.307C271.496 226.075 273.232 221.6 270.793 216.836Z" fill="url(#paint7_linear_254_6809)"/>
<path d="M241.092 242.37C235.607 245.134 231.213 247.362 224.454 246.53C220.544 246.053 216.302 243.605 211.561 242.787C206.885 241.979 202.296 243.22 197.654 242.646C189.711 241.663 186.604 233.195 180.497 229.057C176.246 226.181 165.955 224.195 160.778 225.639C161.958 230.687 164.096 235.392 167.555 238.795C176.059 247.155 187.778 250.661 200 252.494C215.735 254.84 228.765 253.501 241.056 247.077C247.07 243.935 253.624 239.433 258.846 235.614C254.666 234.737 243.848 240.977 241.092 242.37Z" fill="#312C2E"/>
<path d="M185.663 206.979C185.157 205.683 184.488 204.31 183.641 202.836C179.406 195.455 173.833 186.216 171.904 184.18C161.255 172.983 151.396 171.837 136.662 174.136C130.299 175.14 123.145 177.909 118.511 183.062C114.084 187.974 112.382 196.067 112.446 202.032C112.461 203.705 112.496 205.356 112.561 206.979C113.052 220.403 114.959 232.376 117.45 245.837C119.607 257.532 117.052 270.7 111.977 287.171H178.573C178.808 280.523 177.299 271.013 176.637 256.955C176.054 244.591 175.399 234.369 181.62 225.842C185.969 219.877 188.802 214.93 185.663 206.979Z" fill="url(#paint8_linear_254_6809)"/>
<path d="M113.016 214.801C113.835 225.201 115.45 235.038 117.443 245.829C119.607 257.539 117.045 270.707 111.97 287.171H131.865C133.438 261.966 134.669 216.915 113.016 214.801Z" fill="#312C2E"/>
<path d="M217.071 254.467C213.176 254.673 209.167 254.581 205.156 254.193C200.21 253.707 195.739 253.002 191.487 252.037C186.512 250.911 182.189 249.467 178.271 247.626C175.947 246.514 173.945 245.383 172.146 244.164C170.191 242.827 168.344 241.332 166.655 239.719C166.406 239.48 166.265 239.159 166.257 238.815C166.249 238.47 166.375 238.144 166.614 237.895C166.841 237.656 167.148 237.516 167.477 237.498C167.831 237.48 168.181 237.608 168.437 237.853C170.025 239.404 171.742 240.826 173.561 242.101C175.235 243.263 177.119 244.356 179.319 245.44C183.057 247.249 187.207 248.684 192.002 249.827C196.145 250.817 200.516 251.558 205.367 252.089C209.56 252.543 213.749 252.663 217.817 252.448C218.169 252.429 218.521 252.408 218.872 252.384C220.715 252.232 223.146 251.996 225.55 251.517C226.362 251.384 227.168 251.195 227.948 251.012C228.251 250.941 228.554 250.869 228.857 250.802L229.671 250.58C230.467 250.366 231.29 250.144 232.078 249.876C234.274 249.206 236.403 248.311 238.379 247.442C240.478 246.444 242.496 245.383 244.365 244.294C252.291 239.675 259.807 234.094 266.825 228.773C266.932 228.692 267.06 228.645 267.194 228.638C267.417 228.626 267.629 228.725 267.763 228.902C267.984 229.192 267.929 229.611 267.638 229.837C260.642 235.267 253.147 240.964 245.201 245.715C243.303 246.85 241.253 247.958 239.108 249.007C237.074 249.929 234.892 250.876 232.638 251.592C228.479 252.988 223.897 253.913 219.025 254.338C218.372 254.39 217.722 254.432 217.071 254.467Z" fill="#552D62"/>
<path d="M203.456 169.737C201.529 169.779 197.846 169.52 195.067 175.324C188.368 189.311 183.772 206.736 179.638 220.469C175.683 233.602 173.837 243.111 159.677 227.238C153.033 219.792 138.275 198.121 128.276 190.454C119.579 183.787 115.232 183.864 113.554 193.474C111.859 203.189 117.308 225.408 122.631 233.777C132.698 249.601 144.857 258.37 159.971 265.213C185.046 276.568 196.522 262.128 200.481 252.033C206.057 237.815 214.24 196.108 209.324 174.985C208.548 171.651 206.264 169.677 203.456 169.737Z" fill="url(#paint9_linear_254_6809)"/>
<path d="M199.668 244.728C197.992 248.915 196.435 253.268 193.736 256.967C187.772 265.131 179.835 264.047 171.101 260.903C167.163 259.479 162.994 259.266 159.111 258.174C154.56 256.897 150.125 253.347 147.18 249.888C144.707 246.983 142.947 243.733 139.44 241.802C134.93 239.325 131.78 238.002 128.48 233.85C127.405 232.503 120.411 222.338 116.756 219.274C118.457 225.172 120.564 230.52 122.634 233.775C132.697 249.601 144.86 258.373 159.971 265.213C185.047 276.567 196.521 262.13 200.483 252.034C201.889 248.445 203.327 243.251 204.619 237.11C201.941 238.698 200.757 242.005 199.668 244.728Z" fill="#312C2E"/>
<path d="M299.543 214.077C295.99 213.884 292.362 213.356 288.782 212.831C287.061 212.578 284.897 212.403 284.856 210.959C284.826 209.91 287.341 208.303 288.104 207.54C288.989 206.655 288.435 206.087 287.159 206.692C282.288 209.004 278.118 212.842 272.609 214.51C271.866 214.735 269.141 215.212 268.633 215.519C267.596 216.146 266.998 218.485 267.587 220.057C267.974 221.089 269.107 222.745 271.019 222.537C272.691 222.354 274.975 221.45 276.328 221.076C280.689 219.87 286.164 219.985 291.118 219.927C294.609 219.886 297.564 218.907 300.082 216.544C301.493 215.219 302.123 214.218 299.543 214.077Z" fill="#E89890"/>
<path d="M178.039 270.39C177.367 270.425 176.672 270.439 175.974 270.431C174.334 270.415 172.57 270.23 170.426 269.849C170.126 269.781 169.843 269.722 169.561 269.663C168.95 269.534 168.318 269.402 167.702 269.221L166.384 268.866L165.06 268.442C163.522 267.952 161.932 267.344 159.908 266.47C158.143 265.677 156.533 264.906 154.977 264.112C147.993 260.592 141.889 256.507 136.836 251.972C134.204 249.622 131.645 246.981 129.23 244.124C128.114 242.832 127.062 241.455 126.045 240.123L125.84 239.855L125.484 239.353C124.564 238.059 123.613 236.72 122.75 235.349C120.989 232.751 119.477 229.613 118.001 225.483C116.852 222.279 115.851 218.863 114.939 215.04C114.04 211.236 113.403 207.734 112.993 204.331C112.577 200.865 112.269 197.136 112.813 193.356C112.864 193.003 113.16 192.733 113.516 192.714L113.556 192.711L113.663 192.721C114.072 192.78 114.358 193.161 114.299 193.57C113.742 197.215 114.036 200.97 114.396 204.165C114.812 207.51 115.45 210.958 116.348 214.702C117.26 218.469 118.258 221.831 119.399 224.979C120.481 227.952 121.878 231.408 124.034 234.501C128.006 240.535 132.745 245.911 138.126 250.491C143.033 254.691 148.886 258.467 156.021 262.036C159.261 263.618 162.448 265.132 165.783 266.246L167.044 266.663L168.305 267.014C168.871 267.186 169.455 267.314 170.02 267.437C170.304 267.499 170.587 267.561 170.87 267.628C172.412 267.905 174.232 268.21 176.032 268.266C176.907 268.298 177.771 268.292 178.599 268.248H178.599C179.491 268.2 180.37 268.108 181.21 267.973C182.886 267.704 184.555 267.225 186.17 266.55C189.306 265.237 192.185 263.132 194.495 260.466C196.739 257.889 198.543 254.861 199.859 251.466C201.108 248.231 202.057 244.806 202.974 241.493L203.048 241.23C204.754 234.652 206.23 227.559 207.432 220.153C208.669 212.468 209.456 205.47 209.84 198.76C210.155 192.809 210.344 184.999 209.003 177.386C208.942 177.083 208.887 176.767 208.831 176.45C208.734 175.897 208.633 175.325 208.497 174.796C208.258 173.938 207.918 173.194 207.488 172.595C206.582 171.254 205.067 170.448 203.53 170.486C203.136 170.487 202.756 170.491 202.383 170.511C201.843 170.539 201.403 170.596 200.997 170.691C200.219 170.858 199.487 171.186 198.812 171.666C197.662 172.489 196.663 173.778 195.759 175.604C193.082 181.211 190.668 187.389 187.933 195.63C185.957 201.616 184.146 207.773 182.394 213.727L181.641 216.284L180.815 219.062C180.077 221.549 179.315 224.12 178.525 226.649C177.965 228.355 177.387 230.113 176.559 231.796C176.181 232.557 175.706 233.441 175.048 234.233C174.287 235.148 173.45 235.756 172.559 236.042C172.191 236.164 171.79 236.239 171.374 236.261C170.76 236.294 170.117 236.214 169.463 236.025C168.518 235.766 167.685 235.299 166.845 234.801C165.109 233.699 163.624 232.356 162.522 231.308C159.628 228.542 157.137 225.493 155.289 223.145C153.574 220.971 151.881 218.784 150.189 216.596C147.519 213.145 144.758 209.578 141.962 206.141C141.824 205.972 141.761 205.759 141.783 205.542C141.806 205.325 141.911 205.13 142.08 204.993C142.215 204.883 142.378 204.82 142.552 204.81C142.811 204.797 143.064 204.909 143.228 205.11C146.03 208.579 148.787 212.167 151.452 215.637C153.133 217.826 154.813 220.012 156.512 222.181C158.32 224.495 160.757 227.498 163.574 230.211C165.125 231.698 166.378 232.721 167.636 233.526C168.368 233.963 169.1 234.379 169.873 234.59C170.38 234.738 170.861 234.801 171.31 234.777C171.587 234.762 171.852 234.714 172.098 234.633C172.722 234.438 173.332 233.987 173.916 233.291C174.48 232.619 174.906 231.83 175.248 231.146C176.028 229.571 176.612 227.843 177.143 226.207C177.928 223.69 178.693 221.104 179.433 218.602L180.243 215.871L181 213.294C182.748 207.336 184.556 201.176 186.535 195.169C189.284 186.865 191.716 180.631 194.42 174.956C195.454 172.868 196.573 171.439 197.946 170.453C198.773 169.861 199.714 169.44 200.668 169.235C201.149 169.123 201.689 169.051 202.314 169.018C202.718 168.997 203.119 168.993 203.51 168.991C204.588 168.986 205.612 169.236 206.471 169.711C207.314 170.153 208.092 170.853 208.712 171.73C209.241 172.468 209.656 173.368 209.944 174.403C210.1 175.008 210.205 175.601 210.306 176.175C210.362 176.487 210.417 176.799 210.48 177.112C211.853 184.884 211.669 192.808 211.355 198.844C210.973 205.608 210.185 212.657 208.945 220.396C207.722 227.96 206.282 234.903 204.542 241.627L204.46 241.926C203.537 245.264 202.584 248.714 201.309 252.027C199.956 255.618 198.09 258.826 195.765 261.559C193.217 264.534 190.162 266.865 186.927 268.3C185.189 269.078 183.383 269.644 181.561 269.98C180.435 270.188 179.25 270.326 178.039 270.39Z" fill="black"/>
<path d="M212.71 149.338C211.664 145.784 210.629 141.461 208.348 141.505C207.243 141.525 206.103 141.989 204.841 142.806C205.215 143.715 203.692 147.529 200.437 147.963C199.123 146.24 198.396 147.291 198.661 150.573C198.861 153.05 200.85 156.544 200.925 159.472C201.008 162.695 198.353 168.569 197.978 171.932C197.613 175.202 201.371 176.082 203.272 175.787C205.538 175.436 207.49 173.602 208.276 170.182C208.908 167.434 209.429 163.955 210.439 160.485C211.777 155.887 213.798 153.033 212.71 149.338Z" fill="#E89890"/>
<path d="M209.545 169.092C205.977 171.122 199.741 169.641 198.467 166.337L196.639 171.775C196.728 173.454 198.096 175.111 199.632 176.002C201.944 177.342 207.313 176.75 209.37 175.186L209.545 169.092Z" fill="white"/>
<path d="M273.522 223.589C270.426 221.667 269.342 218.061 269.97 214.33L263.331 216.415C262.223 221.663 266.628 227.063 270.313 227.501L273.522 223.589Z" fill="white"/>
<path d="M175.604 269.24C172.533 269.402 164.091 268.146 158.953 266.558C143.54 261.8 130.683 255.232 118.737 240.981C118.387 240.565 117.042 238.861 115.937 237.38C113.946 225.624 112.569 214.57 112.447 202.032C112.422 199.416 112.733 196.392 113.465 193.403C113.635 206.423 117.271 222.048 125.223 233.559C135.784 248.874 144.332 256.163 158.744 263.404C163.079 265.583 170.58 268.451 175.604 269.24Z" fill="black"/>
<path d="M119.308 257.055C119.237 259.368 119.031 261.752 118.696 264.194C117.664 271.753 115.806 278.999 113.343 287.171H110.589C112.938 279.697 115.159 271.81 116.34 263.86C116.675 261.581 116.888 259.34 116.988 257.176C117.109 254.819 117.087 252.549 116.924 250.364C116.753 248.157 116.369 246.028 115.97 243.765L115.955 243.651C115.557 241.381 115.165 239.11 114.796 236.839C113.073 226.305 112.112 217.571 111.77 209.328C111.735 208.538 111.699 207.748 111.678 206.979C111.628 205.349 111.6 203.79 111.592 202.402C111.571 200.025 111.77 197.661 112.205 195.384C112.66 192.942 113.329 190.664 114.205 188.614C115.159 186.33 116.418 184.286 117.949 182.564C118.084 182.407 118.269 182.322 118.468 182.315C118.668 182.3 118.86 182.372 119.009 182.499C119.316 182.763 119.344 183.24 119.081 183.547C117.664 185.176 116.518 187.077 115.657 189.22C114.845 191.177 114.226 193.348 113.827 195.676C113.436 197.861 113.265 200.117 113.308 202.374C113.336 203.769 113.379 205.335 113.45 206.979C113.479 207.719 113.514 208.467 113.557 209.228C113.991 217.407 115.037 226.062 116.86 236.49C117.244 238.754 117.657 241.01 118.077 243.267L118.098 243.374C118.518 245.587 118.952 247.879 119.152 250.186C119.337 252.385 119.394 254.684 119.308 257.055Z" fill="#552D62"/>
<path d="M140.606 154.505C134.164 156.697 124.647 156.526 116.497 149.934C111.863 146.198 107.307 140.325 100.958 140.731C89.1065 141.486 85.5831 156.171 70.4859 153.771C66.5777 153.152 62.9049 151.764 59.552 149.835C55.8224 147.693 51.1458 148.497 48.2202 151.651C38.2765 162.377 24.3176 169.395 8.55838 170.228C-2.11156 170.798 -12.2832 168.456 -21.1451 163.886V60.0763C-14.0556 56.432 -6.0906 54.1898 2.38719 53.7413C21.7696 52.7163 39.4224 61.2723 50.7755 75.2592C53.6727 78.8322 58.5487 80.2136 62.8409 78.5552C64.4352 77.9358 66.108 77.4229 67.8377 77.0385C90.3449 71.9992 106.489 84.7833 116.283 97.4176C120.355 102.657 126.619 104.301 132.541 104.159C139.623 103.988 158.422 104.927 161.497 123.776C164.465 141.998 152.685 150.398 140.606 154.505Z" fill="url(#paint10_linear_254_6809)"/>
<path d="M161.497 123.776C161.212 121.99 160.771 120.366 160.223 118.886C158.799 120.608 159.269 124.281 157.525 129.014C155.632 134.154 152.051 138.93 146.934 140.745C138.897 143.599 132.106 143.408 124.077 140.625C116.475 137.99 111.5 135.5 103.392 136.46C94.9718 137.464 91.3631 143.443 82.0168 144.005C70.564 144.703 62.969 135.926 54.4703 139.101C43.3442 143.265 40.3905 153.159 22.218 157.153C5.46207 160.832 -10.1835 154.889 -21.1451 147.059V163.886C-12.2832 168.456 -2.11156 170.798 8.55838 170.228C24.3176 169.395 38.2765 162.377 48.2202 151.651C51.1386 148.497 55.8224 147.693 59.552 149.835C62.9049 151.764 66.5709 153.152 70.4859 153.771C85.5759 156.171 89.0993 141.486 100.958 140.731C107.307 140.325 111.863 146.198 116.497 149.934C124.647 156.526 134.164 156.697 140.606 154.505C152.685 150.398 164.465 141.998 161.497 123.776Z" fill="url(#paint11_linear_254_6809)"/>
<path d="M160.746 178.077C158.613 175.947 154.639 174.746 154.595 172.097C154.52 167.566 155.053 158.729 155.069 154.697C155.084 151.122 153.356 149.595 149.746 147.888C145.439 145.852 144.446 147.563 143.366 154.894C142.715 159.312 141.803 167.718 140.07 171.062C138.644 173.813 138.657 173.338 136.078 173.917C133.99 174.387 134.017 177.296 135.093 179.362C138.034 185.005 152.136 193.012 161.813 189.735C166.78 188.054 164.51 180.744 160.746 178.077Z" fill="url(#paint12_linear_254_6809)"/>
<path d="M155.07 154.696C155.065 156.75 154.918 160.044 154.796 163.379C150.235 164.333 145.54 160.341 143.134 156.519C143.218 155.937 143.296 155.391 143.369 154.895C144.449 147.561 145.442 145.854 149.748 147.886C153.353 149.598 155.08 151.125 155.07 154.696Z" fill="#E89890"/>
<path d="M160.199 144.35C159.856 140.984 158.424 139.493 157.965 137.251C157.107 133.065 157.038 131.536 155.435 129.307C154.262 127.676 152.929 126.814 151.562 126.474C151.309 128.002 150.898 129.582 150.301 131.169C147.91 137.53 143.431 141.974 139.406 142.44C139.985 150.835 145.558 154.8 150.496 156.041C153.246 156.732 156.9 157.039 158.775 154.087C159.712 152.611 160.599 148.26 160.199 144.35Z" fill="#FFD1D1"/>
<path d="M140.828 142.679C141.612 144.632 141.18 146.644 139.862 147.173C138.543 147.703 136.839 146.548 136.055 144.595C135.271 142.643 135.704 140.631 137.022 140.101C138.34 139.572 140.044 140.726 140.828 142.679Z" fill="#FFD1D1"/>
<path d="M160.639 190.068C153.222 189.123 144.817 185.186 141.203 180.88C135.768 174.405 139.719 171.705 140.031 171.136C138.354 171.394 136.312 171.65 134.961 173.503C133.328 175.742 134.842 180.743 138.519 186.278C142.521 192.303 151.999 198.781 159.689 201.314C159.975 199.477 160.478 192.661 160.639 190.068Z" fill="white"/>
<path d="M160.639 190.068C167.229 186.933 163.589 181.438 161.733 179.346C160.032 177.428 157.985 176.086 156.459 175.096C154.698 173.953 154.645 173.409 154.604 171.841C154.588 171.252 158.132 173.137 162.309 176.197C165.693 178.677 168.472 181.792 169.527 184.473C171.208 188.75 171.478 192.299 170.585 196.873C168.082 194.987 164.11 191.976 160.639 190.068Z" fill="white"/>
<path d="M157.952 146.66C158.185 146.988 156.959 148.477 155.019 148.841C152.142 149.379 150.622 148.552 150.688 148.22C150.772 147.801 151.625 147.579 154.293 146.906C156.529 146.341 157.667 146.258 157.952 146.66Z" fill="white"/>
<path d="M517.361 289.176C517.361 286.841 372.807 286.223 246.814 286.223C120.822 286.223 18.6847 286.841 18.6847 289.176L23.8404 296.992H23.8432C24.001 299.322 123.129 300.151 245.321 300.151C398.725 300.151 494.638 293.188 504.248 292.039C509.489 291.415 517.361 290.462 517.361 289.176Z" fill="#622D2D"/>
</g>
<defs>
<linearGradient id="paint0_linear_254_6809" x1="47.2388" y1="224.017" x2="108.325" y2="224.017" gradientUnits="userSpaceOnUse">
<stop stop-color="#B85353"/>
<stop offset="1" stop-color="#B85353"/>
</linearGradient>
<linearGradient id="paint1_linear_254_6809" x1="54.0611" y1="228.89" x2="85.1711" y2="228.89" gradientUnits="userSpaceOnUse">
<stop stop-color="#B85353"/>
<stop offset="1" stop-color="#B85353"/>
</linearGradient>
<linearGradient id="paint2_linear_254_6809" x1="83.0606" y1="297.028" x2="23.0259" y2="193.045" gradientUnits="userSpaceOnUse">
<stop stop-color="#994545"/>
<stop offset="1" stop-color="#B85353"/>
</linearGradient>
<linearGradient id="paint3_linear_254_6809" x1="86.5803" y1="294.077" x2="4.82492" y2="246.876" gradientUnits="userSpaceOnUse">
<stop stop-color="#D17B7B"/>
<stop offset="1" stop-color="#E48686"/>
</linearGradient>
<linearGradient id="paint4_linear_254_6809" x1="97.2592" y1="281.224" x2="207.81" y2="89.7445" gradientUnits="userSpaceOnUse">
<stop stop-color="#FF8080"/>
<stop offset="1" stop-color="#FFB921"/>
</linearGradient>
<linearGradient id="paint5_linear_254_6809" x1="224.822" y1="109.403" x2="254.199" y2="104.901" gradientUnits="userSpaceOnUse">
<stop stop-color="#B85359"/>
<stop offset="1" stop-color="#B85353"/>
</linearGradient>
<linearGradient id="paint6_linear_254_6809" x1="178.933" y1="141.348" x2="203.572" y2="129.873" gradientUnits="userSpaceOnUse">
<stop stop-color="#D93D40"/>
<stop offset="1" stop-color="#B85353"/>
</linearGradient>
<linearGradient id="paint7_linear_254_6809" x1="157.892" y1="216.572" x2="268.098" y2="239.971" gradientUnits="userSpaceOnUse">
<stop stop-color="#171717"/>
<stop offset="1" stop-color="#1D1D1D"/>
</linearGradient>
<linearGradient id="paint8_linear_254_6809" x1="99.3288" y1="266.656" x2="189.115" y2="211.302" gradientUnits="userSpaceOnUse">
<stop/>
<stop offset="1" stop-color="#2F2F2F"/>
</linearGradient>
<linearGradient id="paint9_linear_254_6809" x1="206.427" y1="241.85" x2="92.6303" y2="139.503" gradientUnits="userSpaceOnUse">
<stop stop-color="#131313"/>
<stop offset="1" stop-color="#202020"/>
</linearGradient>
<linearGradient id="paint10_linear_254_6809" x1="136.307" y1="111.985" x2="-46.799" y2="111.985" gradientUnits="userSpaceOnUse">
<stop stop-color="#2C2C2C"/>
<stop offset="0.00097341" stop-color="#302F30"/>
<stop offset="1" stop-color="#1C1C1C"/>
</linearGradient>
<linearGradient id="paint11_linear_254_6809" x1="162.595" y1="140.414" x2="-21.871" y2="150.186" gradientUnits="userSpaceOnUse">
<stop stop-color="#161516"/>
<stop offset="0.514573" stop-color="#2D2C2E"/>
<stop offset="1" stop-color="#171717"/>
</linearGradient>
<linearGradient id="paint12_linear_254_6809" x1="150.476" y1="199.059" x2="148.154" y2="155.227" gradientUnits="userSpaceOnUse">
<stop stop-color="#F0A19A"/>
<stop offset="1" stop-color="#FFD1D1"/>
</linearGradient>
</defs>
</svg>
