<svg xmlns="http://www.w3.org/2000/svg" width="94" height="31" viewBox="0 0 94 31" fill="none">
  <path d="M25.9109 4.59281C28.3533 7.65468 29.5745 11.2741 29.5745 15.4509C29.5745 19.6986 28.3533 23.3357 25.9109 26.3622C23.4685 29.371 19.7606 30.8753 14.7872 30.8753C9.81392 30.8753 6.10604 29.371 3.66363 26.3622C1.22121 23.3357 0 19.6986 0 15.4509C0 11.2741 1.22121 7.65468 3.66363 4.59281C6.10604 1.53094 9.81392 0 14.7872 0C19.7606 0 23.4685 1.53094 25.9109 4.59281ZM14.7607 6.39807C12.5484 6.39807 10.8404 7.18566 9.63693 8.76085C8.45112 10.3183 7.85821 12.5484 7.85821 15.4509C7.85821 18.3535 8.45112 20.5924 9.63693 22.1676C10.8404 23.7428 12.5484 24.5304 14.7607 24.5304C16.973 24.5304 18.6721 23.7428 19.8579 22.1676C21.0437 20.5924 21.6366 18.3535 21.6366 15.4509C21.6366 12.5484 21.0437 10.3183 19.8579 8.76085C18.6721 7.18566 16.973 6.39807 14.7607 6.39807Z" fill="#19191C"/>
  <path d="M89.4137 4.59281C91.8562 7.65468 93.0774 11.2741 93.0774 15.4509C93.0774 19.6986 91.8562 23.3357 89.4137 26.3622C86.9713 29.371 83.2634 30.8753 78.2901 30.8753C73.3168 30.8753 69.6089 29.371 67.1665 26.3622C64.7241 23.3357 63.5029 19.6986 63.5029 15.4509C63.5029 11.2741 64.7241 7.65468 67.1665 4.59281C69.6089 1.53094 73.3168 0 78.2901 0C83.2634 0 86.9713 1.53094 89.4137 4.59281ZM78.2636 6.39807C76.0512 6.39807 74.3433 7.18566 73.1398 8.76085C71.954 10.3183 71.3611 12.5484 71.3611 15.4509C71.3611 18.3535 71.954 20.5924 73.1398 22.1676C74.3433 23.7428 76.0512 24.5304 78.2636 24.5304C80.4759 24.5304 82.175 23.7428 83.3608 22.1676C84.5466 20.5924 85.1395 18.3535 85.1395 15.4509C85.1395 12.5484 84.5466 10.3183 83.3608 8.76085C82.175 7.18566 80.4759 6.39807 78.2636 6.39807Z" fill="#19191C"/>
</svg>