<svg width="437" height="295" viewBox="0 0 437 295" fill="none" xmlns="http://www.w3.org/2000/svg">
<mask id="mask0_255_8028" style="mask-type:alpha" maskUnits="userSpaceOnUse" x="0" y="0" width="437" height="295">
<rect width="437" height="294.623" transform="matrix(-1 0 0 1 437 0.377411)" fill="#C4C4C4"/>
</mask>
<g mask="url(#mask0_255_8028)">
<path d="M105.741 151.836C108.34 151.836 110.915 151.917 113.464 152.075C125.759 152.839 136.951 144.971 140.323 133.123C157.203 73.8133 211.774 30.3793 276.498 30.3789C354.922 30.3785 418.089 93.5542 418.078 171.979C418.067 250.162 354.684 313.536 276.499 313.536C240.922 313.536 208.413 300.411 183.542 278.744C165.52 297.252 137.374 309.164 105.741 309.164C51.3401 309.164 7.24103 273.945 7.24103 230.5C7.24103 187.055 51.3401 151.836 105.741 151.836Z" fill="#F7B2B2"/>
<path d="M187.671 292.139L187.243 291.266C186.616 289.989 186.043 288.66 185.542 287.311C183.409 281.612 183.92 276.542 184.627 271.836C185.053 269.033 185.831 266.284 186.584 263.626C187.626 259.956 188.61 256.492 188.801 252.859C189.008 248.803 188.188 245.233 186.22 241.623C184.593 238.625 183.019 236.432 181.352 234.109C180.271 232.595 179.155 231.03 177.978 229.199C175.256 224.963 174.242 218.93 174.961 211.269L175.044 210.446C175.609 204.468 176.097 199.305 172.465 193.791C171.977 193.042 171.22 192.193 170.419 191.294C169.135 189.853 167.379 187.88 167.213 186.656C167.102 185.824 167.26 185.093 167.617 184.795C167.777 184.659 168.012 184.59 168.316 184.59C168.609 184.59 168.951 184.652 169.333 184.774C174.999 186.567 180.881 190.358 183.639 193.995C186.167 197.324 186.484 200.069 186.885 203.544L186.898 203.651C187.032 204.787 187.165 205.906 187.373 207.137C188.635 214.552 194.14 219.97 199.464 225.21L199.543 225.287C202.254 227.955 205.057 230.713 207.214 233.677C210.668 238.427 212.607 243.108 212.978 247.591C213.063 248.587 213.048 249.671 212.93 250.905C212.816 252.174 212.61 253.462 212.41 254.707C212.022 257.103 211.584 259.802 211.794 262.45C212.39 270.059 218.245 274.369 223.907 278.538L224.015 278.617C226.429 280.401 228.926 282.245 231 284.338C233.191 286.55 235.374 289.481 236.563 291.807L236.731 292.139H239.485L239.083 291.278C237.576 288.039 234.741 284.57 232.771 282.584C230.565 280.355 227.993 278.456 225.506 276.619L225.386 276.53C219.933 272.521 214.782 268.733 214.278 262.261C214.095 259.947 214.478 257.544 214.85 255.22L214.891 254.971C215.102 253.654 215.321 252.292 215.428 250.915C215.544 249.633 215.555 248.479 215.461 247.387C215.047 242.442 212.95 237.335 209.23 232.21C206.95 229.086 204.069 226.248 201.283 223.504L201.232 223.453C195.95 218.26 190.962 213.354 189.827 206.72C189.638 205.616 189.517 204.587 189.4 203.592L189.361 203.252C188.928 199.544 188.553 196.341 185.623 192.481C182.06 187.793 175.254 184.036 170.089 182.393C169.465 182.196 168.871 182.096 168.325 182.096C167.419 182.096 166.641 182.361 166.012 182.883C164.973 183.768 164.51 185.265 164.741 186.991C165.005 188.961 166.885 191.074 168.543 192.939C169.221 193.695 169.979 194.542 170.385 195.162C173.536 199.944 173.084 204.694 172.561 210.194L172.484 211.037C171.709 219.267 172.85 225.831 175.876 230.547C177.114 232.464 178.216 234.009 179.33 235.553C180.949 237.816 182.468 239.938 184.038 242.812C185.785 246.028 186.5 249.229 186.286 252.887C186.097 256.214 185.175 259.463 184.198 262.904L184.168 263.008C183.402 265.719 182.61 268.523 182.167 271.465C181.607 275.177 180.669 281.391 183.206 288.187C183.656 289.389 184.17 290.602 184.735 291.791L184.9 292.139H187.671Z" fill="#F09E9E"/>
<path d="M205.459 292.139L204.948 291.234C204.017 289.593 203.007 287.987 202.031 286.437C199.568 282.524 197.249 278.84 196.426 275.256C195.426 270.901 196.288 264.866 197.122 259.03C197.822 254.122 198.484 249.486 198.004 246.043C196.911 238.204 191.972 232.358 187.614 227.199C185.084 224.206 182.696 221.38 181.563 218.67C180.703 216.617 180.697 213.762 180.69 210.455C180.676 204.777 180.659 197.713 175.875 191.819C175.658 191.551 175.336 191.398 174.991 191.398C174.73 191.398 174.475 191.488 174.272 191.654C174.037 191.844 173.89 192.116 173.857 192.419C173.826 192.723 173.915 193.019 174.107 193.256C178.385 198.527 178.399 204.864 178.411 210.455C178.42 214.014 178.427 217.08 179.46 219.55C180.728 222.577 183.221 225.529 185.86 228.655C190.028 233.587 194.745 239.168 195.747 246.359C196.182 249.481 195.543 253.963 194.866 258.707C194.003 264.756 193.113 271.004 194.205 275.766C195.115 279.729 197.649 283.753 200.1 287.647C201.036 289.132 201.876 290.474 202.664 291.835L202.838 292.139H205.459Z" fill="#F09E9E"/>
<path d="M219.878 291.286C214.186 285.842 209.492 279.293 205.217 271.22C204.499 269.865 203.845 268.447 203.24 266.988L213.461 268.26L201.338 261.706C196.277 245.346 197.141 225.509 201.865 216.64C216.151 221.5 229.479 231.861 239.848 251.248C244.39 259.739 246.168 277.618 245.241 291.286H219.878Z" fill="#D98282"/>
<path d="M324.662 291.283H327.666C328.456 290.734 329.239 290.173 330.022 289.605C330.648 289.148 331.275 288.676 331.894 288.207C339.098 282.777 346.002 276.506 352.102 269.501C352.893 268.59 353.675 267.665 354.437 266.725C357.768 262.647 360.822 258.334 363.491 253.806C366.175 249.258 368.474 244.489 370.289 239.527C374.332 228.9 375.983 215.397 375.414 203.14L370.196 205.425L368.175 206.315L365.378 207.539L368.054 204.87V204.863L370.004 202.919L375.029 197.901C374.524 192.975 373.634 188.37 372.374 184.391C372.069 183.416 371.734 182.483 371.385 181.586C370.538 179.444 369.57 177.536 368.474 175.935C364.929 177.594 361.47 179.544 358.124 181.814C356.95 182.604 355.789 183.437 354.651 184.312V184.32C343.254 193.025 333.303 205.83 325.908 224.266C323.167 231.114 321.352 242.268 320.74 253.806C319.957 268.32 321.089 283.431 324.662 291.283Z" fill="#D98282"/>
<path d="M332.736 291.483V291.282C332.736 291.138 332.716 291.01 332.675 290.894C332.477 290.265 332.28 289.349 332.093 288.175C331.071 281.792 330.314 266.494 333.089 258.37C334.902 253.043 337.101 249.589 338.814 247.175C339.597 246.08 340.399 245.039 341.176 244.032L341.52 243.588C344.192 240.16 346.715 236.922 348.252 231.928C350.527 224.608 351.52 215.192 352.396 206.884C353.045 200.65 353.658 194.763 354.717 190.951C355.534 187.986 356.74 184.943 358.303 181.907C364.951 169.028 376.813 159.039 382.581 159.039C383.781 159.039 384.769 159.471 385.519 160.323C387.092 162.118 387.634 165.57 387.043 170.043C386.593 173.473 384.841 176.284 382.987 179.259C380.865 182.665 378.674 186.182 378.515 190.705C378.357 195.048 379.217 199.467 380.127 204.146C381.206 209.752 382.429 216.107 382.017 223.08C381.607 229.971 378.259 235.86 375.815 240.161C374.857 241.842 374.143 243.117 373.69 244.213C373.376 244.957 373.079 245.777 372.808 246.649C370.387 254.567 372.452 261.534 374.637 268.911C375.827 272.94 377.058 277.106 377.512 281.495C377.569 282.101 377.631 282.819 377.661 283.547C377.668 283.709 377.675 283.869 377.675 284.03C377.774 286.511 377.739 288.916 377.569 291.19L377.568 291.483H380.043L380.056 291.298C380.243 288.768 380.277 286.123 380.157 283.437C380.149 283.187 380.135 282.941 380.113 282.694C380.067 281.905 379.987 281.081 379.87 280.182C379.331 276.012 378.175 272.092 377.058 268.301L377.032 268.212C374.926 261.091 372.937 254.364 375.306 247.013C375.511 246.38 375.741 245.758 375.991 245.165C376.399 244.184 377.149 242.862 377.874 241.584L377.98 241.401C380.546 236.887 384.06 230.707 384.506 223.232C384.934 215.954 383.683 209.451 382.58 203.713C381.689 199.123 380.854 194.82 381.003 190.798C381.137 186.943 383.053 183.863 385.081 180.602C387.018 177.497 388.998 174.323 389.515 170.374C390.199 165.162 389.444 161.007 387.389 158.675C386.148 157.265 384.53 156.55 382.581 156.55C375.336 156.55 360.938 169.323 354.465 184.232L354.449 184.27V184.278C353.577 186.282 352.858 188.301 352.313 190.281C351.211 194.274 350.585 200.244 349.923 206.564C349.055 214.791 348.073 224.101 345.874 231.196C344.469 235.726 342.083 238.801 339.558 242.056C338.546 243.362 337.406 244.83 336.269 246.48C333.857 250.014 332.094 253.535 330.721 257.563C327.745 266.311 328.541 282.843 329.824 289.641C329.947 290.31 330.078 290.878 330.212 291.339L330.256 291.483H332.736Z" fill="url(#paint0_linear_255_8028)"/>
<path d="M357.995 291.483L357.828 291.066C356.097 286.394 353.38 277.015 354.637 266.75C354.751 265.767 354.909 264.769 355.105 263.783C355.928 259.588 360.163 250.876 363.9 243.19C366.971 236.878 369.622 231.428 370.215 228.889C371.842 221.965 371.216 214.843 370.611 207.956L370.546 207.195C370.494 206.602 370.443 206.007 370.398 205.409C370.326 204.577 370.256 203.738 370.206 202.907C369.893 198.375 369.905 194.964 370.247 191.845C370.474 189.819 371.252 187.339 372.558 184.474C375.164 178.704 379.509 172.205 382.66 168.324C382.869 168.073 382.967 167.747 382.932 167.408C382.897 167.075 382.737 166.779 382.479 166.574C382.257 166.391 381.984 166.295 381.692 166.295C381.317 166.295 380.964 166.462 380.725 166.752C378.651 169.311 374.313 175.295 371.205 181.496C369.222 185.446 368.065 188.838 367.767 191.58C367.275 196.12 367.518 200.654 367.853 204.878L368.131 208.168C368.72 214.862 369.328 221.785 367.793 228.313C367.27 230.545 364.595 236.054 361.763 241.887L361.633 242.154C357.838 249.965 353.536 258.818 352.659 263.298C352.259 265.315 352.004 267.398 351.9 269.492C351.417 278.363 353.475 286.276 355.286 291.351L355.334 291.483H357.995Z" fill="url(#paint1_linear_255_8028)"/>
<path d="M412.003 195.42C413.111 189.572 409.99 184.455 404.674 183.675C398.808 182.814 392.715 185.647 388.985 190.349C384.917 195.477 385.968 203.754 381.336 208.291C377.514 212.035 369.304 211.644 364.318 218.873C359.507 225.849 362.92 233.783 356.517 243.883C351.449 251.876 340.595 254.064 333.152 264.839C328.017 272.274 328.84 287.538 330.738 291.283H396.682C397.08 289.345 397.275 287.287 397.25 285.099C397.119 273.916 387.006 265.128 395.979 254.3C398.65 251.077 407.969 244.92 409.334 237.211C411.139 227.011 405.037 218.835 406.02 211.495C406.868 205.165 410.826 201.631 412.003 195.42Z" fill="url(#paint2_linear_255_8028)"/>
<path d="M347.989 291.483L348.049 291.391C350.297 287.911 353.354 282.952 355.146 279.089C356.92 275.27 358.315 271.037 359.664 266.944C361.753 260.608 363.721 254.638 366.89 250.332C370.34 245.647 375.161 242.726 379.822 239.902C384.165 237.269 388.262 234.786 390.879 231.089C394.395 226.12 394.1 221.695 393.759 216.572C393.595 214.11 393.428 211.577 393.653 208.68C394.258 200.912 400.426 194.154 405.997 190.421C406.357 190.18 406.603 189.812 406.687 189.386C406.77 188.96 406.684 188.527 406.442 188.166C406.139 187.715 405.634 187.446 405.091 187.446C404.768 187.446 404.456 187.541 404.187 187.721C397.984 191.879 391.108 199.501 390.412 208.427C390.168 211.553 390.352 214.321 390.514 216.764C390.829 221.478 391.075 225.184 388.225 229.211C386 232.357 382.183 234.669 378.142 237.118C373.436 239.97 368.104 243.2 364.272 248.405C360.795 253.127 358.653 259.627 356.582 265.912C355.26 269.921 353.894 274.067 352.199 277.721C350.687 280.975 347.89 285.751 344.322 291.17L344.116 291.483H347.989Z" fill="#F09E9E"/>
<path d="M372.693 254.895C377.55 251.327 382.333 248.325 387.04 245.833L388.105 258.228L391.14 247.913C392.055 244.802 394.361 242.278 397.388 241.117C410.379 236.132 422.73 234.927 434.356 236.308C435.013 251.473 419.598 278.119 402.339 291.283H342.278C347.285 279.018 358.756 265.131 372.693 254.895Z" fill="url(#paint3_linear_255_8028)"/>
<path d="M363.185 291.283H367.071C370.823 288.672 374.403 286.293 377.876 284.03C378.56 283.588 379.236 283.147 379.912 282.713C381.756 281.517 383.571 280.357 385.365 279.204C392.761 274.463 399.743 269.985 406.406 264.925L420.763 264.405C421.062 264.391 421.339 264.27 421.539 264.049C421.745 263.828 421.845 263.544 421.838 263.252C421.816 262.654 421.325 262.17 420.742 262.17L409.41 262.582C416.983 256.518 423.212 250.24 428.956 242.908C429.141 242.674 429.219 242.382 429.183 242.083C429.148 241.791 428.998 241.528 428.764 241.343C428.571 241.193 428.322 241.108 428.08 241.108C427.731 241.108 427.411 241.264 427.198 241.535C414.314 257.992 400.341 266.946 384.162 277.324C382.71 278.257 381.215 279.218 379.67 280.207C379.03 280.627 378.375 281.047 377.713 281.474C373.3 284.343 368.573 287.475 363.655 290.946L363.185 291.283Z" fill="#F4D7FA"/>
<path d="M431.808 153.045C431.808 170.784 443.603 185.169 458.145 185.169V120.922C443.603 120.922 431.808 135.307 431.808 153.045Z" fill="#AEE8FA"/>
<path d="M411.138 84.8193C426.42 94.5424 443.973 96.7205 458.145 92.0512V11.5742C458.046 11.5102 457.946 11.4461 457.846 11.382C433.346 -4.20638 403.023 -0.398262 390.125 19.8811C377.227 40.1605 386.63 69.2381 411.138 84.8193Z" fill="#F7B2B2"/>
<path d="M245.209 291.286H333.496C338.081 291.286 341.799 287.569 341.799 282.984V87.9852C341.799 83.3999 338.081 79.6827 333.496 79.6827H245.209C240.623 79.6827 236.906 83.3999 236.906 87.9852V282.984C236.906 287.569 240.623 291.286 245.209 291.286Z" fill="#C6C6C6"/>
<path d="M240.322 291.286H328.609C333.195 291.286 336.912 287.569 336.912 282.984V87.9852C336.912 83.3999 333.195 79.6827 328.609 79.6827H240.322C235.736 79.6827 232.019 83.3999 232.019 87.9852V282.984C232.019 287.569 235.736 291.286 240.322 291.286Z" fill="white"/>
<path d="M240.555 287.174H328.376C330.556 287.174 332.324 285.407 332.324 283.227V87.7421C332.324 85.562 330.556 83.7943 328.376 83.7943H240.555C238.374 83.7943 236.607 85.562 236.607 87.7421V283.227C236.607 285.407 238.374 287.174 240.555 287.174Z" fill="url(#paint4_linear_255_8028)"/>
<path d="M270.402 91.1243H298.529C299.883 91.1243 301.016 90.094 301.143 88.7455L302 79.6827H266.932L267.788 88.7455C267.916 90.094 269.048 91.1243 270.402 91.1243Z" fill="white"/>
<path d="M248.153 130.772C245.095 137.338 245.345 143.933 248.713 145.501C252.081 147.07 257.29 143.018 260.348 136.452C263.406 129.885 263.155 123.291 259.788 121.722C256.42 120.154 251.211 124.205 248.153 130.772Z" fill="#EB4444"/>
<path d="M248.713 145.501L230.172 136.866L241.246 113.087L259.788 121.722L248.713 145.501Z" fill="#EA3838"/>
<path d="M241.289 142.044L235.078 139.152L220.471 157.461L226.681 160.353L241.289 142.044Z" fill="#622D2D"/>
<path d="M185.288 101.494C191.403 88.3631 201.818 80.2524 208.559 83.3923C209.412 83.7899 210.174 84.3504 210.825 85.0579C210.825 85.0579 229.644 107.682 241.247 113.086C244.614 114.654 244.864 121.251 241.806 127.816C238.749 134.382 233.538 138.435 230.171 136.867C218.569 131.463 189.141 131.617 189.141 131.617C188.18 131.574 187.261 131.351 186.408 130.954C179.666 127.814 179.173 114.624 185.288 101.494Z" fill="#C6C6C6"/>
<path d="M186.458 100.414C181.02 114.215 182.34 127.666 189.427 130.456C190.326 130.809 191.277 130.98 192.263 130.969C192.263 130.969 222.332 128.986 234.529 133.793C235.611 134.215 236.828 134.097 238.083 133.527C239.472 131.997 240.762 130.059 241.806 127.816C244.864 121.251 244.614 114.654 241.247 113.086C229.647 107.684 210.825 85.0579 210.825 85.0579C210.174 84.3504 209.412 83.7899 208.559 83.3923C203.085 80.8426 195.182 85.7201 189.131 94.6757C189.115 94.6929 189.105 94.7129 189.096 94.7333C188.135 96.5123 187.249 98.4161 186.458 100.414Z" fill="white"/>
<path d="M185.295 101.472C179.178 114.605 179.68 127.795 186.415 130.931C193.15 134.068 203.569 125.965 209.686 112.832C215.802 99.6986 215.3 86.5093 208.565 83.3723C201.83 80.2356 191.411 88.3391 185.295 101.472Z" fill="url(#paint5_linear_255_8028)"/>
<path d="M236.767 134.835L250.666 141.308C253.666 142.706 258.124 139.636 261.224 134.308C260.969 135.019 260.682 135.735 260.348 136.452C257.29 143.018 252.081 147.07 248.713 145.501L230.172 136.866C232.033 137.733 234.455 136.877 236.767 134.835Z" fill="url(#paint6_linear_255_8028)"/>
<path d="M204.985 103.725L199.671 115.134L206.663 118.39C207.748 116.678 208.763 114.818 209.678 112.853C210.594 110.888 211.365 108.914 211.977 106.981L204.985 103.725Z" fill="#D98282"/>
<path d="M199.402 108.067C197.934 111.219 198.055 114.384 199.671 115.137C201.287 115.89 203.788 113.945 205.256 110.793C206.724 107.641 206.603 104.476 204.987 103.723C203.371 102.97 200.87 104.915 199.402 108.067Z" fill="white"/>
<path d="M205.78 83.6886C206.624 83.7334 207.421 83.9272 208.148 84.2667C211.12 85.6497 212.842 89.314 212.998 94.5836C213.157 99.9512 211.666 106.295 208.802 112.445C203.731 123.332 195.487 130.992 189.2 130.66C188.35 130.615 187.547 130.42 186.813 130.077C183.9 128.721 182.187 125.118 181.989 119.934C181.784 114.52 183.264 108.115 186.159 101.899C189.055 95.6827 193.004 90.4275 197.28 87.1019C200.323 84.7356 203.262 83.5552 205.78 83.6886ZM189.012 132.564C196.107 132.94 205.165 124.821 210.55 113.259C216.881 99.6654 216.169 85.8747 208.963 82.5186C208.01 82.0742 206.974 81.8203 205.885 81.7627C202.895 81.6041 199.511 82.9238 196.097 85.5792C191.583 89.0902 187.433 94.5972 184.411 101.085C181.39 107.573 179.845 114.292 180.063 120.007C180.288 125.951 182.397 130.148 185.998 131.825C186.929 132.259 187.942 132.507 189.012 132.564Z" fill="#622D2D"/>
<path d="M201.626 109.103C201.274 109.859 201.303 110.619 201.691 110.8C202.079 110.98 202.679 110.514 203.031 109.757C203.384 109.001 203.355 108.241 202.967 108.06C202.579 107.88 201.979 108.346 201.626 109.103Z" fill="#D98282"/>
<path d="M185.294 101.472C188.735 94.0844 193.537 88.2883 198.279 85.1893C195.379 88.3063 192.664 92.331 190.492 96.9952C184.375 110.128 184.876 123.318 191.611 126.455C194.558 127.827 198.209 127.048 201.897 124.638C196.632 130.298 190.758 132.954 186.415 130.932C179.68 127.795 179.178 114.605 185.294 101.472Z" fill="#622D33"/>
<path d="M166.207 216.836C167.423 214.462 173.307 216.239 178.137 218.008C183.666 220.034 195.262 223.407 199.473 224.667C206.541 226.779 213.713 228.304 222.024 224.581C230.96 220.579 238.669 214.456 246.576 206.428C262.198 190.564 268.495 188.461 274.188 197.466C277.996 203.488 280.568 227.861 269.445 238.795C260.943 247.152 249.223 250.663 237 252.491C221.267 254.843 208.233 253.502 195.943 247.079C185.711 241.732 173.937 232.463 169.77 229.307C165.504 226.075 163.768 221.6 166.207 216.836Z" fill="url(#paint7_linear_255_8028)"/>
<path d="M195.908 242.37C201.393 245.134 205.787 247.362 212.546 246.53C216.456 246.053 220.698 243.605 225.439 242.787C230.115 241.979 234.704 243.22 239.346 242.646C247.289 241.663 250.396 233.195 256.503 229.057C260.754 226.181 271.045 224.195 276.222 225.639C275.042 230.687 272.904 235.392 269.445 238.795C260.941 247.155 249.222 250.661 237 252.494C221.265 254.84 208.235 253.501 195.944 247.077C189.93 243.935 183.376 239.433 178.154 235.614C182.334 234.737 193.152 240.977 195.908 242.37Z" fill="#312C2E"/>
<path d="M251.337 206.979C251.843 205.683 252.512 204.31 253.359 202.836C257.594 195.455 263.167 186.216 265.097 184.18C275.745 172.983 285.604 171.837 300.338 174.136C306.702 175.14 313.855 177.909 318.489 183.062C322.917 187.974 324.618 196.067 324.554 202.032C324.539 203.705 324.504 205.356 324.44 206.979C323.948 220.403 322.041 232.376 319.55 245.837C317.393 257.532 319.948 270.7 325.023 287.171H258.427C258.192 280.523 259.701 271.013 260.363 256.955C260.946 244.591 261.602 234.369 255.381 225.842C251.031 219.877 248.198 214.93 251.337 206.979Z" fill="url(#paint8_linear_255_8028)"/>
<path d="M323.984 214.801C323.166 225.201 321.55 235.038 319.557 245.829C317.393 257.539 319.955 270.707 325.031 287.171H305.135C303.562 261.966 302.331 216.915 323.984 214.801Z" fill="#312C2E"/>
<path d="M219.929 254.467C223.824 254.673 227.833 254.581 231.844 254.193C236.79 253.707 241.262 253.002 245.513 252.037C250.488 250.911 254.811 249.467 258.729 247.626C261.053 246.514 263.055 245.383 264.854 244.164C266.809 242.827 268.656 241.332 270.345 239.719C270.594 239.48 270.736 239.159 270.744 238.815C270.752 238.47 270.625 238.144 270.386 237.895C270.159 237.656 269.852 237.516 269.523 237.498C269.169 237.48 268.819 237.608 268.563 237.853C266.975 239.404 265.258 240.826 263.44 242.101C261.765 243.263 259.881 244.356 257.681 245.44C253.943 247.249 249.793 248.684 244.998 249.827C240.855 250.817 236.484 251.558 231.633 252.089C227.44 252.543 223.251 252.663 219.184 252.448C218.831 252.429 218.479 252.408 218.128 252.384C216.285 252.232 213.854 251.996 211.45 251.517C210.638 251.384 209.832 251.195 209.052 251.012C208.749 250.941 208.446 250.869 208.143 250.802L207.329 250.58C206.533 250.366 205.71 250.144 204.922 249.876C202.726 249.206 200.597 248.311 198.622 247.442C196.522 246.444 194.504 245.383 192.635 244.294C184.709 239.675 177.193 234.094 170.175 228.773C170.068 228.692 169.94 228.645 169.806 228.638C169.584 228.626 169.371 228.725 169.237 228.902C169.016 229.192 169.071 229.611 169.362 229.837C176.358 235.267 183.854 240.964 191.799 245.715C193.697 246.85 195.748 247.958 197.892 249.007C199.926 249.929 202.109 250.876 204.362 251.592C208.521 252.988 213.103 253.913 217.975 254.338C218.628 254.39 219.279 254.432 219.929 254.467Z" fill="#552D62"/>
<path d="M233.544 169.737C235.471 169.779 239.154 169.52 241.933 175.324C248.632 189.311 253.228 206.736 257.362 220.469C261.317 233.602 263.163 243.111 277.324 227.238C283.967 219.792 298.725 198.121 308.724 190.454C317.421 183.787 321.769 183.864 323.446 193.474C325.141 203.189 319.692 225.408 314.369 233.777C304.302 249.601 292.143 258.37 277.029 265.213C251.954 276.568 240.478 262.128 236.519 252.033C230.943 237.815 222.76 196.108 227.676 174.985C228.452 171.651 230.736 169.677 233.544 169.737Z" fill="url(#paint9_linear_255_8028)"/>
<path d="M237.332 244.728C239.008 248.915 240.565 253.268 243.264 256.967C249.228 265.131 257.165 264.047 265.899 260.903C269.837 259.479 274.006 259.266 277.889 258.174C282.44 256.897 286.875 253.347 289.82 249.888C292.293 246.983 294.053 243.733 297.56 241.802C302.07 239.325 305.22 238.002 308.52 233.85C309.595 232.503 316.589 222.338 320.244 219.274C318.543 225.172 316.436 230.52 314.366 233.775C304.303 249.601 292.14 258.373 277.029 265.213C251.953 276.567 240.479 262.13 236.517 252.034C235.111 248.445 233.673 243.251 232.381 237.11C235.059 238.698 236.243 242.005 237.332 244.728Z" fill="#312C2E"/>
<path d="M137.457 214.077C141.011 213.884 144.638 213.356 148.218 212.831C149.939 212.578 152.103 212.403 152.144 210.959C152.174 209.91 149.659 208.303 148.897 207.54C148.011 206.655 148.565 206.087 149.841 206.692C154.712 209.004 158.882 212.842 164.391 214.51C165.134 214.735 167.859 215.212 168.368 215.519C169.404 216.146 170.002 218.485 169.413 220.057C169.026 221.089 167.893 222.745 165.981 222.537C164.309 222.354 162.025 221.45 160.672 221.076C156.311 219.87 150.836 219.985 145.882 219.927C142.391 219.886 139.436 218.907 136.919 216.544C135.507 215.219 134.877 214.218 137.457 214.077Z" fill="#E89890"/>
<path d="M258.961 270.39C259.633 270.425 260.328 270.439 261.026 270.431C262.666 270.415 264.43 270.23 266.574 269.849C266.874 269.781 267.157 269.722 267.439 269.663C268.05 269.534 268.682 269.402 269.298 269.221L270.616 268.866L271.94 268.442C273.478 267.952 275.068 267.344 277.092 266.47C278.857 265.677 280.467 264.906 282.023 264.112C289.007 260.592 295.111 256.507 300.164 251.972C302.796 249.622 305.355 246.981 307.77 244.124C308.886 242.832 309.938 241.455 310.955 240.123L311.16 239.855L311.516 239.353C312.436 238.059 313.387 236.72 314.25 235.349C316.011 232.751 317.523 229.613 318.999 225.483C320.148 222.279 321.149 218.863 322.061 215.04C322.96 211.236 323.597 207.734 324.007 204.331C324.423 200.865 324.731 197.136 324.187 193.356C324.136 193.003 323.84 192.733 323.484 192.714L323.444 192.711L323.337 192.721C322.928 192.78 322.642 193.161 322.701 193.57C323.258 197.215 322.964 200.97 322.604 204.165C322.188 207.51 321.55 210.958 320.652 214.702C319.74 218.469 318.742 221.831 317.601 224.979C316.519 227.952 315.122 231.408 312.966 234.501C308.994 240.535 304.255 245.911 298.874 250.491C293.967 254.691 288.114 258.467 280.979 262.036C277.739 263.618 274.552 265.132 271.217 266.246L269.956 266.663L268.695 267.014C268.129 267.186 267.545 267.314 266.98 267.437C266.696 267.499 266.413 267.561 266.13 267.628C264.588 267.905 262.768 268.21 260.968 268.266C260.093 268.298 259.229 268.292 258.401 268.248H258.401C257.509 268.2 256.63 268.108 255.79 267.973C254.114 267.704 252.445 267.225 250.83 266.55C247.694 265.237 244.815 263.132 242.505 260.466C240.261 257.889 238.457 254.861 237.141 251.466C235.892 248.231 234.943 244.806 234.026 241.493L233.952 241.23C232.246 234.652 230.77 227.559 229.568 220.153C228.331 212.468 227.544 205.47 227.16 198.76C226.845 192.809 226.656 184.999 227.997 177.386C228.058 177.083 228.113 176.767 228.169 176.45C228.266 175.897 228.367 175.325 228.503 174.796C228.742 173.938 229.082 173.194 229.512 172.595C230.418 171.254 231.933 170.448 233.47 170.486C233.864 170.487 234.244 170.491 234.617 170.511C235.157 170.539 235.597 170.596 236.003 170.691C236.781 170.858 237.513 171.186 238.188 171.666C239.338 172.489 240.337 173.778 241.241 175.604C243.918 181.211 246.332 187.389 249.067 195.63C251.043 201.616 252.854 207.773 254.606 213.727L255.359 216.284L256.185 219.062C256.923 221.549 257.685 224.12 258.475 226.649C259.035 228.355 259.613 230.113 260.441 231.796C260.819 232.557 261.294 233.441 261.952 234.233C262.713 235.148 263.55 235.756 264.441 236.042C264.809 236.164 265.21 236.239 265.626 236.261C266.24 236.294 266.883 236.214 267.537 236.025C268.482 235.766 269.315 235.299 270.155 234.801C271.891 233.699 273.376 232.356 274.478 231.308C277.372 228.542 279.863 225.493 281.711 223.145C283.426 220.971 285.119 218.784 286.811 216.596C289.481 213.145 292.242 209.578 295.038 206.141C295.176 205.972 295.239 205.759 295.217 205.542C295.194 205.325 295.089 205.13 294.92 204.993C294.785 204.883 294.622 204.82 294.448 204.81C294.189 204.797 293.936 204.909 293.772 205.11C290.97 208.579 288.213 212.167 285.548 215.637C283.867 217.826 282.187 220.012 280.488 222.181C278.68 224.495 276.243 227.498 273.426 230.211C271.875 231.698 270.622 232.721 269.364 233.526C268.632 233.963 267.9 234.379 267.127 234.59C266.62 234.738 266.139 234.801 265.69 234.777C265.413 234.762 265.148 234.714 264.902 234.633C264.278 234.438 263.668 233.987 263.084 233.291C262.52 232.619 262.094 231.83 261.752 231.146C260.972 229.571 260.388 227.843 259.857 226.207C259.072 223.69 258.307 221.104 257.567 218.602L256.757 215.871L256 213.294C254.252 207.336 252.444 201.176 250.465 195.169C247.716 186.865 245.284 180.631 242.58 174.956C241.546 172.868 240.427 171.439 239.054 170.453C238.227 169.861 237.286 169.44 236.332 169.235C235.851 169.123 235.311 169.051 234.686 169.018C234.282 168.997 233.881 168.993 233.49 168.991C232.412 168.986 231.388 169.236 230.529 169.711C229.686 170.153 228.908 170.853 228.288 171.73C227.759 172.468 227.344 173.368 227.056 174.403C226.9 175.008 226.795 175.601 226.694 176.175C226.638 176.487 226.583 176.799 226.52 177.112C225.147 184.884 225.331 192.808 225.645 198.844C226.027 205.608 226.815 212.657 228.055 220.396C229.278 227.96 230.718 234.903 232.458 241.627L232.54 241.926C233.463 245.264 234.416 248.714 235.691 252.027C237.044 255.618 238.91 258.826 241.235 261.559C243.783 264.534 246.838 266.865 250.073 268.3C251.811 269.078 253.617 269.644 255.439 269.98C256.565 270.188 257.75 270.326 258.961 270.39Z" fill="black"/>
<path d="M224.29 149.338C225.336 145.784 226.371 141.461 228.652 141.505C229.758 141.525 230.897 141.989 232.16 142.806C231.786 143.715 233.308 147.529 236.563 147.963C237.877 146.24 238.604 147.291 238.339 150.573C238.139 153.05 236.15 156.544 236.075 159.472C235.992 162.695 238.647 168.569 239.023 171.932C239.387 175.202 235.629 176.082 233.728 175.787C231.462 175.436 229.51 173.602 228.724 170.182C228.092 167.434 227.571 163.955 226.561 160.485C225.223 155.887 223.202 153.033 224.29 149.338Z" fill="#E89890"/>
<path d="M227.455 169.092C231.024 171.122 237.26 169.641 238.533 166.337L240.362 171.775C240.273 173.454 238.904 175.111 237.368 176.002C235.056 177.342 229.688 176.75 227.63 175.186L227.455 169.092Z" fill="white"/>
<path d="M163.478 223.589C166.574 221.667 167.659 218.061 167.03 214.33L173.669 216.415C174.778 221.663 170.372 227.063 166.687 227.501L163.478 223.589Z" fill="white"/>
<path d="M261.396 269.24C264.467 269.402 272.909 268.146 278.047 266.558C293.46 261.8 306.318 255.232 318.264 240.981C318.614 240.565 319.958 238.861 321.063 237.38C323.054 225.624 324.431 214.57 324.553 202.032C324.578 199.416 324.267 196.392 323.535 193.403C323.365 206.423 319.729 222.048 311.778 233.559C301.216 248.874 292.668 256.163 278.257 263.404C273.922 265.583 266.421 268.451 261.396 269.24Z" fill="black"/>
<path d="M317.692 257.055C317.763 259.368 317.969 261.752 318.304 264.194C319.336 271.753 321.194 278.999 323.657 287.171H326.412C324.063 279.697 321.842 271.81 320.66 263.86C320.326 261.581 320.112 259.34 320.012 257.176C319.891 254.819 319.913 252.549 320.077 250.364C320.247 248.157 320.632 246.028 321.03 243.765L321.045 243.651C321.443 241.381 321.835 239.11 322.205 236.839C323.927 226.305 324.888 217.571 325.23 209.328C325.266 208.538 325.301 207.748 325.323 206.979C325.372 205.349 325.401 203.79 325.408 202.402C325.429 200.025 325.23 197.661 324.796 195.384C324.34 192.942 323.671 190.664 322.796 188.614C321.842 186.33 320.582 184.286 319.051 182.564C318.916 182.407 318.731 182.322 318.532 182.315C318.333 182.3 318.14 182.372 317.991 182.499C317.685 182.763 317.656 183.24 317.92 183.547C319.336 185.176 320.482 187.077 321.343 189.22C322.155 191.177 322.774 193.348 323.173 195.676C323.564 197.861 323.735 200.117 323.693 202.374C323.664 203.769 323.621 205.335 323.55 206.979C323.522 207.719 323.486 208.467 323.443 209.228C323.009 217.407 321.963 226.062 320.141 236.49C319.756 238.754 319.343 241.01 318.924 243.267L318.902 243.374C318.482 245.587 318.048 247.879 317.848 250.186C317.663 252.385 317.607 254.684 317.692 257.055Z" fill="#552D62"/>
<path d="M296.395 154.505C302.836 156.697 312.353 156.526 320.503 149.934C325.137 146.198 329.693 140.325 336.042 140.731C347.894 141.486 351.417 156.171 366.514 153.771C370.422 153.152 374.095 151.764 377.448 149.835C381.178 147.693 385.854 148.497 388.78 151.651C398.724 162.377 412.682 169.395 428.442 170.228C439.112 170.798 449.283 168.456 458.145 163.886V60.0763C451.056 56.432 443.091 54.1898 434.613 53.7413C415.231 52.7163 397.578 61.2723 386.225 75.2592C383.327 78.8322 378.451 80.2136 374.159 78.5552C372.565 77.9358 370.892 77.4229 369.162 77.0385C346.655 71.9992 330.511 84.7833 320.717 97.4176C316.646 102.657 310.381 104.301 304.459 104.159C297.377 103.988 278.578 104.927 275.503 123.776C272.535 141.998 284.315 150.398 296.395 154.505Z" fill="url(#paint10_linear_255_8028)"/>
<path d="M275.503 123.776C275.788 121.99 276.229 120.366 276.777 118.886C278.201 120.608 277.731 124.281 279.475 129.014C281.368 134.154 284.949 138.93 290.066 140.745C298.103 143.599 304.894 143.408 312.923 140.625C320.525 137.99 325.5 135.5 333.608 136.46C342.028 137.464 345.637 143.443 354.983 144.005C366.436 144.703 374.031 135.926 382.53 139.101C393.656 143.265 396.61 153.159 414.782 157.153C431.538 160.832 447.184 154.889 458.145 147.059V163.886C449.283 168.456 439.112 170.798 428.442 170.228C412.682 169.395 398.724 162.377 388.78 151.651C385.861 148.497 381.178 147.693 377.448 149.835C374.095 151.764 370.429 153.152 366.514 153.771C351.424 156.171 347.901 141.486 336.042 140.731C329.693 140.325 325.137 146.198 320.503 149.934C312.353 156.526 302.836 156.697 296.395 154.505C284.315 150.398 272.535 141.998 275.503 123.776Z" fill="url(#paint11_linear_255_8028)"/>
<path d="M276.255 178.077C278.387 175.947 282.361 174.746 282.405 172.097C282.48 167.566 281.947 158.729 281.931 154.697C281.916 151.122 283.645 149.595 287.255 147.888C291.561 145.852 292.555 147.563 293.634 154.894C294.285 159.312 295.198 167.718 296.93 171.062C298.357 173.813 298.343 173.338 300.922 173.917C303.01 174.387 302.983 177.296 301.907 179.362C298.966 185.005 284.864 193.012 275.187 189.735C270.22 188.054 272.49 180.744 276.255 178.077Z" fill="url(#paint12_linear_255_8028)"/>
<path d="M281.93 154.696C281.935 156.75 282.082 160.044 282.204 163.379C286.766 164.333 291.461 160.341 293.866 156.519C293.782 155.937 293.704 155.391 293.631 154.895C292.551 147.561 291.558 145.854 287.252 147.886C283.647 149.598 281.92 151.125 281.93 154.696Z" fill="#E89890"/>
<path d="M276.801 144.35C277.145 140.984 278.576 139.493 279.035 137.251C279.893 133.065 279.962 131.536 281.565 129.307C282.738 127.676 284.071 126.814 285.438 126.474C285.691 128.002 286.102 129.582 286.699 131.169C289.09 137.53 293.569 141.974 297.594 142.44C297.016 150.835 291.442 154.8 286.504 156.041C283.754 156.732 280.1 157.039 278.225 154.087C277.288 152.611 276.401 148.26 276.801 144.35Z" fill="#FFD1D1"/>
<path d="M296.172 142.679C295.388 144.632 295.82 146.644 297.138 147.173C298.457 147.703 300.161 146.548 300.945 144.595C301.729 142.643 301.296 140.631 299.978 140.101C298.66 139.572 296.956 140.726 296.172 142.679Z" fill="#FFD1D1"/>
<path d="M276.361 190.068C283.778 189.123 292.183 185.186 295.797 180.88C301.233 174.405 297.281 171.705 296.969 171.136C298.646 171.394 300.688 171.65 302.039 173.503C303.673 175.742 302.158 180.743 298.481 186.278C294.48 192.303 285.001 198.781 277.311 201.314C277.025 199.477 276.522 192.661 276.361 190.068Z" fill="white"/>
<path d="M276.361 190.068C269.771 186.933 273.411 181.438 275.267 179.346C276.968 177.428 279.015 176.086 280.541 175.096C282.302 173.953 282.355 173.409 282.396 171.841C282.412 171.252 278.868 173.137 274.691 176.197C271.308 178.677 268.528 181.792 267.473 184.473C265.792 188.75 265.522 192.299 266.415 196.873C268.918 194.987 272.89 191.976 276.361 190.068Z" fill="white"/>
<path d="M279.048 146.66C278.815 146.988 280.041 148.477 281.981 148.841C284.858 149.379 286.378 148.552 286.312 148.22C286.228 147.801 285.375 147.579 282.707 146.906C280.471 146.341 279.333 146.258 279.048 146.66Z" fill="white"/>
<path d="M-80.3605 289.176C-80.3605 286.841 64.1934 286.223 190.186 286.223C316.178 286.223 418.315 286.841 418.315 289.176L413.16 296.992H413.157C412.999 299.322 313.872 300.151 191.679 300.151C38.2753 300.151 -57.6383 293.188 -67.2477 292.039C-72.4888 291.415 -80.3605 290.462 -80.3605 289.176Z" fill="#622D2D"/>
</g>
<defs>
<linearGradient id="paint0_linear_255_8028" x1="389.761" y1="224.017" x2="328.675" y2="224.017" gradientUnits="userSpaceOnUse">
<stop stop-color="#B85353"/>
<stop offset="1" stop-color="#B85353"/>
</linearGradient>
<linearGradient id="paint1_linear_255_8028" x1="382.939" y1="228.89" x2="351.829" y2="228.89" gradientUnits="userSpaceOnUse">
<stop stop-color="#B85353"/>
<stop offset="1" stop-color="#B85353"/>
</linearGradient>
<linearGradient id="paint2_linear_255_8028" x1="353.939" y1="297.028" x2="413.974" y2="193.045" gradientUnits="userSpaceOnUse">
<stop stop-color="#994545"/>
<stop offset="1" stop-color="#B85353"/>
</linearGradient>
<linearGradient id="paint3_linear_255_8028" x1="350.42" y1="294.077" x2="432.175" y2="246.876" gradientUnits="userSpaceOnUse">
<stop stop-color="#D17B7B"/>
<stop offset="1" stop-color="#E48686"/>
</linearGradient>
<linearGradient id="paint4_linear_255_8028" x1="339.741" y1="281.224" x2="229.19" y2="89.7445" gradientUnits="userSpaceOnUse">
<stop stop-color="#FF8080"/>
<stop offset="1" stop-color="#FFB921"/>
</linearGradient>
<linearGradient id="paint5_linear_255_8028" x1="212.178" y1="109.403" x2="182.801" y2="104.901" gradientUnits="userSpaceOnUse">
<stop stop-color="#B85359"/>
<stop offset="1" stop-color="#B85353"/>
</linearGradient>
<linearGradient id="paint6_linear_255_8028" x1="258.068" y1="141.348" x2="233.429" y2="129.873" gradientUnits="userSpaceOnUse">
<stop stop-color="#D93D40"/>
<stop offset="1" stop-color="#B85353"/>
</linearGradient>
<linearGradient id="paint7_linear_255_8028" x1="279.108" y1="216.572" x2="168.902" y2="239.971" gradientUnits="userSpaceOnUse">
<stop stop-color="#171717"/>
<stop offset="1" stop-color="#1D1D1D"/>
</linearGradient>
<linearGradient id="paint8_linear_255_8028" x1="337.671" y1="266.656" x2="247.885" y2="211.302" gradientUnits="userSpaceOnUse">
<stop/>
<stop offset="1" stop-color="#2F2F2F"/>
</linearGradient>
<linearGradient id="paint9_linear_255_8028" x1="230.573" y1="241.85" x2="344.37" y2="139.503" gradientUnits="userSpaceOnUse">
<stop stop-color="#131313"/>
<stop offset="1" stop-color="#202020"/>
</linearGradient>
<linearGradient id="paint10_linear_255_8028" x1="300.693" y1="111.985" x2="483.799" y2="111.985" gradientUnits="userSpaceOnUse">
<stop stop-color="#2C2C2C"/>
<stop offset="0.00097341" stop-color="#302F30"/>
<stop offset="1" stop-color="#1C1C1C"/>
</linearGradient>
<linearGradient id="paint11_linear_255_8028" x1="274.405" y1="140.414" x2="458.871" y2="150.186" gradientUnits="userSpaceOnUse">
<stop stop-color="#161516"/>
<stop offset="0.514573" stop-color="#2D2C2E"/>
<stop offset="1" stop-color="#171717"/>
</linearGradient>
<linearGradient id="paint12_linear_255_8028" x1="286.524" y1="199.059" x2="288.846" y2="155.227" gradientUnits="userSpaceOnUse">
<stop stop-color="#F0A19A"/>
<stop offset="1" stop-color="#FFD1D1"/>
</linearGradient>
</defs>
</svg>
