<svg width="172" height="172" viewBox="0 0 172 172" fill="none" xmlns="http://www.w3.org/2000/svg">
<path d="M73.7111 137.428C72.4899 136.749 71.2171 136.215 69.9185 135.777C68.7317 135.381 67.5277 135.08 66.5817 136.267C66.1861 136.757 65.8851 137.368 65.5755 137.935C65.2401 138.555 64.9133 139.182 64.6381 139.845C64.0705 141.229 62.9783 142.425 63.1503 143.964C63.1675 144.093 63.0901 144.772 63.1589 144.841C63.0471 145.254 64.2081 145.383 64.5779 145.409C66.7451 145.546 68.9123 145.469 71.0709 145.185C71.3031 145.151 71.5353 145.005 71.5955 144.712C72.0341 142.416 72.8167 140.3 73.9003 138.34C74.0637 138.064 73.9691 137.574 73.7111 137.428Z" fill="#EA3838"/>
<path d="M103.837 60.0796C103.613 58.3166 101.91 57.1384 100.199 57.5168C99.296 57.0782 98.2038 57.0266 97.3352 57.6028C97.146 57.7232 97.0858 57.9382 97.1202 58.1274C96.888 58.2478 96.673 58.394 96.4838 58.5746C96.071 58.9702 96.5956 59.6324 97.0858 59.3572C97.0858 59.3572 97.0858 59.3572 97.0944 59.3572C97.2148 59.4776 97.3782 59.5464 97.5588 59.512C97.6362 59.4948 97.705 59.4862 97.7738 59.4776C97.8168 59.6238 97.877 59.77 97.9716 59.899C98.2038 60.2258 98.5736 60.4494 98.9606 60.4666C98.8402 60.802 98.7886 61.1632 98.8058 61.5244C98.7714 61.5674 98.7456 61.6104 98.7112 61.6448C98.6338 61.6964 98.5478 61.7394 98.4532 61.7738C98.1866 61.877 98.0576 62.1006 98.049 62.3242C97.92 62.436 97.7824 62.5392 97.6362 62.6338C97.5072 62.5306 97.3352 62.4876 97.1374 62.565C95.9334 63.0294 94.7294 63.4938 93.4996 63.9238C91.47 64.199 89.406 64.3366 87.385 64.6118C86.2498 64.7666 85.1318 64.9816 84.031 65.2826C82.6808 65.2826 81.3392 65.2482 79.9976 65.1966C77.1768 64.8096 74.356 64.457 71.5352 64.0872C71.217 64.0442 70.9504 64.3882 70.9504 64.672C70.9418 64.93 71.0106 65.1536 71.1224 65.3428C71.0708 65.575 71.1568 65.833 71.4664 65.919C71.733 65.9964 71.9996 66.0652 72.2662 66.134C72.3436 66.2114 72.4554 66.263 72.593 66.2544C72.6446 66.2544 72.6962 66.2458 72.7478 66.2458C73.2036 66.3576 73.6594 66.4522 74.1152 66.5382C74.2786 66.5726 74.4248 66.5296 74.528 66.4436C75.1902 66.5296 75.8696 66.5984 76.5318 66.65C76.5576 66.4522 76.635 66.263 76.7726 66.1254C76.8156 66.0824 76.8586 66.048 76.9102 66.0308C77.022 65.8502 77.1854 65.7212 77.409 65.6954C77.8132 65.6438 78.1486 65.9534 78.3636 66.3146C78.5958 66.3232 78.828 66.3318 79.0602 66.3404C79.2064 66.349 79.3526 66.3576 79.4988 66.3662C79.387 66.6156 79.4816 66.9596 79.7912 67.0714C80.2384 67.2262 80.7458 67.2606 81.2188 67.3036C81.3134 67.381 81.4338 67.4326 81.5628 67.4326C82.3798 67.467 83.1968 67.4498 84.0052 67.3982C84.7448 67.3724 85.4844 67.3036 86.2068 67.1574C86.224 67.1574 86.2412 67.1488 86.2584 67.1402C88.159 66.8392 90.0252 66.349 91.8656 65.7556C91.9516 65.7384 92.0376 65.7212 92.115 65.704C92.9836 65.5062 93.835 65.2654 94.6778 64.9644C94.9358 64.9214 95.2024 64.8784 95.4604 64.8268C97.619 64.414 99.8464 63.7346 101.652 62.4446C102.315 61.9716 102.977 61.318 103.132 60.501C103.458 60.6472 103.888 60.4838 103.837 60.0796Z" fill="#EA3838"/>
<path d="M121.123 56.545C121.011 56.1752 120.899 55.8054 120.787 55.427L120.503 54.4724C120.417 54.18 120.357 53.8446 120.185 53.5866C119.824 53.0362 119.17 53.148 118.723 53.5264C118.654 53.5866 118.577 53.6554 118.517 53.7242C118.422 53.7586 118.336 53.8274 118.267 53.9306C118.164 54.094 118.052 54.2574 117.958 54.4294C117.923 54.481 117.898 54.524 117.872 54.5756C117.622 54.9884 117.382 55.4098 117.132 55.8312C116.831 56.3472 116.332 56.9922 116.582 57.6286C116.84 58.2564 117.554 58.2478 118.121 58.2736C118.844 58.308 119.575 58.3768 120.297 58.3768C120.856 58.3768 121.346 58.0672 121.338 57.4566C121.329 57.147 121.209 56.8374 121.123 56.545Z" fill="#EA3838"/>
<path d="M138.443 26.101C136.629 22.9878 133.834 20.4078 130.548 18.9114C123.316 15.6004 114.406 17.6644 109.134 23.5468C106.58 26.3934 104.852 29.9882 104.232 33.7636C103.639 37.41 103.992 41.4606 106.116 44.591C106.451 45.0812 106.83 45.5456 107.251 45.9584C110.906 51.7806 118.99 53.6468 125.449 52.3654C129.241 51.6172 132.853 49.7768 135.545 46.9904C138.185 44.2642 139.965 40.678 140.507 36.9198C141.058 33.1702 140.352 29.3776 138.443 26.101ZM134.866 39.8438C134.754 40.291 134.573 40.7296 134.375 41.1424C134.126 41.6584 133.292 41.2886 133.455 40.7554C133.593 40.3168 133.765 39.8696 133.98 39.4654C134.246 38.9752 134.995 39.3192 134.866 39.8438ZM135.339 37.2552C135.063 37.8056 134.135 37.4186 134.341 36.8338C134.909 35.2428 135.227 33.5572 135.175 31.863C135.089 28.9132 133.868 26.0666 131.727 24.0284C129.671 22.0676 126.911 20.8808 124.073 20.812C123.419 20.7948 123.419 19.7886 124.073 19.7886C125.853 19.7972 127.59 20.2014 129.215 20.9238C132.131 22.231 134.41 24.639 135.605 27.5888C136.852 30.6332 136.835 34.3054 135.339 37.2552Z" fill="#EA3838"/>
<path d="M26.9957 67.3122C24.8027 67.3122 23.0225 65.532 23.0225 63.339C23.0225 61.146 24.8027 59.3658 26.9957 59.3658C29.1887 59.3658 30.9689 61.146 30.9689 63.339C30.9689 65.5234 29.1887 67.3122 26.9957 67.3122ZM26.9957 61.1288C25.7831 61.1288 24.7941 62.1178 24.7941 63.3304C24.7941 64.543 25.7831 65.532 26.9957 65.532C28.2083 65.532 29.1973 64.543 29.1973 63.3304C29.1973 62.1178 28.2083 61.1288 26.9957 61.1288Z" fill="#EA3838"/>
<path d="M123.582 153.45C121.389 153.45 119.609 151.67 119.609 149.477C119.609 147.284 121.389 145.503 123.582 145.503C125.775 145.503 127.555 147.284 127.555 149.477C127.555 151.67 125.775 153.45 123.582 153.45ZM123.582 147.275C122.369 147.275 121.38 148.264 121.38 149.477C121.38 150.689 122.369 151.678 123.582 151.678C124.795 151.678 125.784 150.689 125.784 149.477C125.784 148.264 124.795 147.275 123.582 147.275Z" fill="#EA3838"/>
<path d="M76.1102 80.5648C75.878 80.3842 75.534 80.3842 75.3792 80.7196C75.1126 81.2872 74.8546 81.8462 74.588 82.4138C74.4332 82.7406 74.2612 83.076 74.115 83.4114C73.986 83.4114 73.8484 83.4716 73.7194 83.6178C71.9822 85.57 69.5311 86.8772 66.9339 87.1868C64.3711 87.4964 61.7997 86.7912 59.6841 85.3206C58.4887 84.4864 57.4911 83.42 56.7429 82.173C56.6913 82.087 56.6311 82.0268 56.5623 81.9752C56.4247 81.6828 56.3043 81.3904 56.1753 81.0894C56.0463 80.7798 55.7367 80.6938 55.5045 80.7798C55.4615 80.668 55.4185 80.5476 55.3841 80.4272C55.1691 79.7994 54.1887 80.066 54.3865 80.7024C54.9025 82.345 55.7195 83.9016 56.7859 85.2518C58.1619 87.4878 60.4753 89.1304 63.0639 89.698C63.3133 89.7496 63.5713 89.8012 63.8207 89.8356C67.6133 90.7129 71.7672 89.6894 74.502 86.8256C76.0844 85.1658 77.1164 83.0416 77.34 80.754C77.4174 80.0316 76.3596 79.9714 76.1102 80.5648Z" fill="#EA3838"/>
<path d="M46.6292 114.509C45.9842 113.941 45.2016 113.486 44.4276 113.271C43.3096 112.591 42.1228 111.998 40.9102 111.473C37.2122 109.461 33.1702 108.093 28.9992 107.448C27.0212 107.139 25.026 106.993 23.0222 107.036C22.4976 107.044 22.3858 107.698 22.704 107.956C22.6266 107.964 22.5492 107.982 22.4632 107.999C22.0074 108.076 21.9988 108.566 22.2482 108.833C22.1794 109.134 22.3342 109.469 22.7126 109.418C23.8134 109.272 24.854 109.082 25.972 109.134C26.3332 109.151 26.6858 109.194 27.0298 109.254C27.0556 109.28 27.09 109.297 27.1244 109.315C28.5004 109.968 29.9796 110.458 31.3986 111.017C32.3188 111.37 33.2304 111.731 34.1506 112.092C35.3718 112.798 36.722 113.357 38.0206 113.89C38.055 113.976 38.1238 114.062 38.2356 114.122C39.0182 114.604 39.8524 115.008 40.6522 115.446C41.4606 115.885 42.2604 116.341 43.1032 116.711C43.3698 116.831 43.6278 116.728 43.7568 116.547C44.0148 116.685 44.2728 116.822 44.5308 116.951C44.9264 117.158 45.3134 117.373 45.709 117.571C46.0874 116.582 46.4228 115.558 46.6292 114.509Z" fill="#EA3838"/>
<path d="M137.015 101.127C136.559 100.233 136.043 99.3902 135.459 98.5818C135.183 98.1948 134.745 98.1174 134.409 98.5646C134.409 98.5646 134.229 98.8054 134.143 98.943C133.747 99.545 133.395 100.173 133.033 100.792C132.75 101.265 132.216 101.97 132.818 102.435C133.283 102.796 134.04 102.478 134.538 102.374C135.261 102.22 135.983 102.065 136.706 101.91C137.058 101.833 137.161 101.411 137.015 101.127Z" fill="#EA3838"/>
<path d="M65.3172 29.4034C62.9608 25.9204 60.7248 22.3428 58.1878 18.9888C56.8548 17.2344 55.41 15.566 54.0254 13.846C52.9676 12.5302 51.9184 11.1886 50.9208 9.8212C50.8778 15.9616 51.0584 22.102 51.454 28.2252C51.5744 30.0484 51.6948 31.8716 51.884 33.6862V33.6948C51.712 34.0388 51.798 34.5032 52.271 34.615C57.2074 35.7932 62.763 34.6924 66.7534 31.4932C66.2804 30.8052 65.7988 30.1086 65.3172 29.4034Z" fill="#EA3838"/>
<path d="M67.0199 57.147C66.2114 56.7514 65.231 56.6568 64.3452 56.7858C63.6142 56.889 62.6252 57.147 62.4962 58.0156C62.3758 58.8326 63.0638 59.1508 63.7346 59.2454C64.1818 59.4604 64.672 59.5808 65.1708 59.6238C65.8932 59.6754 66.8565 59.5464 67.4155 59.0304C68.0777 58.4198 67.7509 57.4996 67.0199 57.147Z" fill="#EA3838"/>
<path d="M77.3915 57.8694C77.8903 57.5168 78.3203 57.233 78.8621 56.9062C79.2921 56.6482 79.7393 56.4074 80.1865 56.1752C79.4383 55.8914 78.5869 55.8312 77.8129 55.943C77.0819 56.0462 76.0929 56.3042 75.9639 57.1728C75.8693 57.8522 76.3165 58.179 76.8497 58.3252C77.0045 58.1446 77.2109 57.9984 77.3915 57.8694Z" fill="#EA3838"/>
<path d="M155.514 80.5906C154.043 78.9136 151.472 79.3178 149.511 79.292C147.206 79.2662 144.738 78.8448 143.646 76.5142C142.502 74.0804 143.001 71.1994 141.9 68.7398C141.436 67.7078 140.688 66.7532 139.69 66.2114C138.675 65.661 137.531 65.6438 136.465 66.0652C134.031 67.0284 132.905 69.703 131.967 71.9906C131.838 72.3088 131.701 72.6356 131.563 72.971C130.643 75.0952 128.312 76.2304 126.076 75.6628C125.62 75.5424 125.173 75.4306 124.743 75.3274C122.464 74.7856 119.79 74.5706 117.932 76.3508C116.049 78.1568 116.599 80.9432 118.13 82.775C119.084 83.9102 120.366 84.7358 121.518 85.6904C122.86 86.7912 123.496 88.5456 123.144 90.2398C123.144 90.2484 123.144 90.257 123.135 90.2656C122.868 91.5212 122.258 92.6564 121.63 93.7572C120.452 95.8212 119.024 98.255 119.738 100.74C120.03 101.738 120.615 102.684 121.501 103.226C122.456 103.802 123.565 103.802 124.588 103.415C125.698 103.002 126.627 102.202 127.512 101.42C128.476 100.56 129.413 99.6482 130.445 98.8656C131.004 98.4442 131.606 98.0744 132.242 97.782C133.309 97.3004 134.521 97.2316 135.622 97.61C135.691 97.6358 135.76 97.653 135.82 97.6788C138.314 98.6248 140.146 100.749 142.322 102.228C144.308 103.578 146.656 104.43 148.995 103.57C149.941 103.226 150.844 102.572 151.377 101.686C152.005 100.646 152.1 99.3902 151.79 98.2292C151.446 96.9392 150.732 95.8212 150.036 94.7032C149.348 93.611 148.625 92.3726 148.548 91.0482C148.385 88.1758 151.687 87.4104 153.596 86.2838C154.62 85.6732 155.523 84.8562 155.961 83.7038C156.383 82.6804 156.271 81.4592 155.514 80.5906ZM147.843 81.657C144.962 81.3818 141.917 80.625 139.922 78.3804C138.985 77.3226 138.305 76.0326 138.004 74.648C137.703 73.2548 137.66 71.5348 138.271 70.219C138.52 69.6686 139.251 70.0986 139.174 70.5974C139.054 71.3112 138.873 71.9734 138.864 72.7044C138.864 73.3666 138.942 74.0202 139.122 74.6566C139.449 75.8262 140.077 76.8926 140.92 77.7612C142.812 79.6962 145.469 80.0402 147.98 80.6594C148.522 80.797 148.41 81.7086 147.843 81.657ZM152.375 81.9924C151.773 81.5366 151.266 81.399 150.517 81.5022C150.277 81.5366 150.07 81.2958 150.036 81.0808C150.001 80.8228 150.156 80.6336 150.388 80.5476C151.231 80.2036 152.418 80.5132 152.986 81.2184C153.312 81.6054 152.865 82.3622 152.375 81.9924Z" fill="#EA3838"/>
<path d="M154.284 53.019C152.091 53.019 150.311 51.2388 150.311 49.0458C150.311 46.8528 152.091 45.0726 154.284 45.0726C156.477 45.0726 158.257 46.8528 158.257 49.0458C158.257 51.2302 156.477 53.019 154.284 53.019ZM154.284 46.8356C153.071 46.8356 152.082 47.8246 152.082 49.0372C152.082 50.2498 153.071 51.2388 154.284 51.2388C155.496 51.2388 156.485 50.2498 156.485 49.0372C156.485 47.8246 155.496 46.8356 154.284 46.8356Z" fill="#EA3838"/>
<path d="M75.0694 58.0586C74.9576 57.0696 74.734 56.0892 74.5534 55.1174C74.3556 54.051 74.1578 52.976 73.9514 51.9096C73.831 51.2732 72.885 51.5484 72.9882 52.1762C73.272 53.8532 73.573 55.5302 73.874 57.2072C74.003 57.9124 74.2094 58.7552 73.874 59.4346C73.5816 60.0194 72.9624 60.2602 72.3346 60.2688C71.7928 60.2688 71.6294 61.1546 72.2056 61.2492C73.0054 61.3782 73.8138 61.103 74.3814 60.5182C75.0178 59.8474 75.164 58.9444 75.0694 58.0586Z" fill="black"/>
<path d="M78.9394 52.6492C78.26 51.858 76.8668 52.3654 76.9356 53.4404C76.9356 53.5006 76.9528 53.5608 76.9614 53.621C76.9614 53.6984 76.97 53.7758 76.9872 53.8532C77.099 54.309 77.5204 54.5842 77.9762 54.6186C78.9996 54.6874 79.6016 53.4146 78.9394 52.6492Z" fill="black"/>
<path d="M66.7017 53.5608C66.2459 52.804 65.0591 52.8126 64.6463 53.6124C64.4399 54.0166 64.4743 54.4982 64.7753 54.8422C64.8613 54.9368 64.9645 55.0228 65.0763 55.0744C65.2741 55.2292 65.5321 55.3238 65.8159 55.298C66.6587 55.2378 67.1403 54.2832 66.7017 53.5608Z" fill="black"/>
<path d="M99.0291 151.885C98.4787 148.29 95.2107 145.624 92.1233 144.136C90.2829 143.25 88.3393 142.622 86.3957 142.012C84.3059 141.35 82.1989 140.713 80.1005 140.085C78.2085 139.526 76.3165 138.985 74.4245 138.46C74.1923 138.4 73.9515 138.494 73.8225 138.701C73.8225 138.701 73.8225 138.709 73.8139 138.709C73.6333 139.01 73.7881 139.406 74.1321 139.492C75.2845 139.81 76.4283 140.137 77.5721 140.472C79.6275 141.066 81.6743 141.676 83.7211 142.313C85.6819 142.915 87.6513 143.5 89.5691 144.231C91.5299 144.97 93.4735 145.933 95.0387 147.352C96.5007 148.668 97.5069 150.276 98.0487 152.16C98.2379 152.779 99.1237 152.504 99.0291 151.885Z" fill="black"/>
<path d="M92.6221 62.7198C92.2351 61.1202 91.1515 59.6066 89.9389 58.523C88.6145 57.3362 86.9633 56.5278 85.2089 56.2526C81.6829 55.6936 78.1741 57.1384 76.0585 60.0108C75.4823 60.7934 74.9147 61.748 74.8459 62.7456C74.7857 63.683 75.3189 64.629 76.2563 64.8784C76.8927 65.0504 77.1593 64.07 76.5315 63.8894C75.7747 63.6744 75.8177 62.7456 76.0327 62.1522C76.2735 61.4814 76.7035 60.8278 77.1593 60.2774C78.0537 59.1852 79.2233 58.2994 80.5305 57.7662C83.3341 56.631 86.6881 57.1298 89.0101 59.0906C90.2743 60.157 91.0483 61.4728 91.6589 62.9864C91.8911 63.5712 92.7769 63.3648 92.6221 62.7198Z" fill="black"/>
<path d="M80.9003 58.7466C80.1865 59.1078 79.5501 59.641 78.9911 60.2086C78.4321 60.7848 77.8903 61.447 77.5979 62.2038C77.3313 62.8918 77.3485 63.7346 77.7871 64.3452C78.2257 64.9558 79.0341 65.2482 79.7307 64.9214C80.1435 64.7236 79.9629 63.9668 79.4899 64.027C78.9825 64.0872 78.5697 63.9066 78.4837 63.3562C78.3977 62.7972 78.6815 62.2812 78.9911 61.8426C79.6361 60.9224 80.5047 60.2516 81.3991 59.598C81.8979 59.2282 81.4679 58.4628 80.9003 58.7466Z" fill="black"/>
<path d="M84.2114 60.1312C84.607 59.7614 84.0738 59.039 83.618 59.3658C82.9042 59.8732 82.2764 60.4752 81.7088 61.146C81.1756 61.7738 80.6252 62.4618 80.522 63.3132C80.3242 64.9386 82.0442 66.2372 83.5406 65.5062C84.0566 65.2568 83.6954 64.457 83.1622 64.6032C82.6548 64.7408 82.1216 64.715 81.7776 64.2592C81.4336 63.8034 81.5368 63.253 81.7948 62.7886C82.371 61.748 83.36 60.931 84.2114 60.1312Z" fill="black"/>
<path d="M86.2668 61.5416C85.6304 62.2726 84.9768 62.952 84.22 63.554C83.7814 63.898 84.349 64.6376 84.822 64.328C85.6906 63.7604 86.4818 63.0122 87.0408 62.135C87.3332 61.6706 86.6366 61.1202 86.2668 61.5416Z" fill="black"/>
<path d="M94.3076 101.987C90.6698 97.2574 88.279 91.7706 85.785 86.387C83.0588 80.496 80.324 74.6136 77.5978 68.7226C77.3054 68.0948 76.755 67.2348 77.0904 66.5296C77.4688 65.7298 78.475 66.5124 78.9222 66.8306C80.2208 67.7594 81.3474 68.9204 82.3106 70.1846C82.689 70.6834 83.5318 70.2276 83.1706 69.6858C82.3278 68.4302 81.2786 67.3294 80.0918 66.4006C79.0942 65.618 77.4 64.371 76.3422 65.7556C75.336 67.0714 76.4712 68.7914 77.0474 70.0298C77.787 71.6294 78.5266 73.229 79.2748 74.8372C79.7478 75.852 80.2122 76.8668 80.6852 77.8816C80.0574 77.615 79.3952 77.4172 78.7502 77.2796C78.174 77.1592 77.5806 77.0904 76.9872 77.0732C76.5142 77.0646 75.981 77.056 75.4994 77.1506C75.2672 76.4024 75.0866 75.6456 74.949 74.8802C74.8028 74.0804 74.7856 73.272 74.6566 72.4722C74.6566 72.455 74.648 72.4464 74.648 72.4292C75.422 71.9562 76.0842 71.3456 76.6002 70.5802C76.9958 69.9954 76.0412 69.445 75.6542 70.0212C74.0632 72.3862 70.9156 72.7732 68.4044 71.8702C65.446 70.8038 63.511 68.3012 61.7738 65.8244C61.404 65.2998 60.5526 65.7728 60.8966 66.3318C63.4078 70.477 68.2668 75.0092 73.5214 72.9796C73.573 72.9624 73.6246 72.9366 73.6762 72.9194C73.659 73.6934 73.7966 74.4932 73.917 75.2414C74.0546 76.1186 74.2696 76.9872 74.5448 77.8386C74.9662 79.1286 75.5854 80.8916 77.013 81.3732C77.486 81.5366 77.8988 80.8486 77.5118 80.5132C77.0044 80.0746 76.5916 79.6962 76.2648 79.0942C76.1014 78.7932 75.9638 78.475 75.8434 78.1568C76.2046 78.131 76.5572 78.088 76.9184 78.0966C77.4688 78.1052 78.0106 78.174 78.5438 78.2858C79.6016 78.518 80.5046 78.9566 81.4334 79.4812C82.1816 81.1066 82.9384 82.7234 83.6866 84.3488C85.0884 87.376 86.4558 90.4118 87.9264 93.4046C89.5088 96.621 91.2546 99.7772 93.482 102.607C93.8432 103.088 94.6688 102.46 94.3076 101.987Z" fill="black"/>
<path d="M95.7784 153.269C95.1249 152.246 94.3337 151.308 93.4565 150.483C92.5879 149.666 91.6333 148.935 90.6099 148.316C89.6209 147.714 88.4943 147.103 87.3591 146.836C86.8431 146.716 86.4561 147.49 86.9807 147.731C87.9869 148.195 89.0017 148.574 89.9649 149.15C90.8937 149.709 91.7623 150.362 92.5449 151.102C94.1617 152.624 95.7613 154.559 95.8817 156.864C95.9161 157.518 96.8448 157.509 96.8964 156.864C97.0082 155.591 96.4492 154.31 95.7784 153.269Z" fill="black"/>
<path d="M90.283 153.845C89.5606 152.891 88.7092 152.057 87.746 151.343C86.8344 150.672 85.6992 149.958 84.5726 149.726C84.0566 149.614 83.6782 150.354 84.1942 150.62C84.6844 150.87 85.209 151.042 85.6992 151.3C86.1894 151.558 86.6538 151.85 87.101 152.168C87.9696 152.796 88.7608 153.579 89.3972 154.439C90.0766 155.359 90.6184 156.382 90.9882 157.466C91.3665 158.601 91.5041 159.736 91.5987 160.923C91.6503 161.577 92.5792 161.585 92.6136 160.923C92.7512 158.446 91.7622 155.798 90.283 153.845Z" fill="black"/>
<path d="M98.2723 113.718C97.7907 114.002 97.3521 114.354 96.8619 114.629C96.3459 114.913 95.8127 115.145 95.2537 115.317C94.1529 115.661 93.0779 115.704 91.9427 115.661C91.5041 113.623 91.0053 111.594 90.4549 109.59C89.5777 106.434 88.6231 103.252 87.3675 100.216C87.1353 99.6482 86.2151 99.8632 86.4215 100.474C87.3417 103.217 88.3049 105.926 89.0961 108.713C89.8873 111.49 90.5667 114.303 91.1343 117.132C92.2781 122.799 92.9575 128.561 93.1897 134.341C93.3187 137.609 93.1983 140.859 93.1639 144.127C93.1553 144.824 94.1615 144.798 94.2217 144.127C94.4797 141.238 94.4195 138.288 94.3335 135.381C94.2475 132.466 94.0411 129.559 93.7229 126.661C93.3531 123.324 92.8285 119.996 92.1577 116.702C93.2843 116.822 94.4625 116.659 95.5289 116.341C96.6727 115.997 98.0573 115.412 98.8571 114.483C99.2097 114.079 98.7797 113.425 98.2723 113.718Z" fill="black"/>
<path d="M74.7515 80.926C73.7797 83.678 71.5609 85.7248 68.7143 86.4214C65.5667 87.1954 62.2041 86.2408 59.6585 84.2972C58.2653 83.2308 57.1731 81.8892 56.2013 80.4358C55.8401 79.9026 55.0059 80.3756 55.3327 80.9432C57.0011 83.8844 59.8735 86.301 63.1157 87.2728C66.4439 88.2704 70.1247 87.7544 72.8595 85.5442C74.2097 84.452 75.3535 82.904 75.8007 81.2012C75.9727 80.539 74.9837 80.281 74.7515 80.926Z" fill="black"/>
<path d="M63.9239 89.2508C62.3845 88.9154 60.9569 88.3994 59.6583 87.4964C59.0391 87.0664 58.4715 86.5676 57.9555 86.0172C57.3965 85.4238 57.0095 84.753 56.5279 84.0994C56.2269 83.6952 55.4099 83.9188 55.6335 84.4778C55.9517 85.2604 56.5279 85.9828 57.0869 86.6106C57.6631 87.2556 58.3167 87.8318 59.0219 88.3306C60.4151 89.3282 62.0835 90.042 63.7949 90.2398C64.3539 90.3 64.4743 89.3712 63.9239 89.2508Z" fill="black"/>
<path d="M108.842 93.6282C108.455 91.5814 107.767 89.5346 106.709 87.7286C106.382 87.1696 105.548 87.6598 105.84 88.236C107.448 91.418 108.326 94.8322 108.136 98.4184C107.964 101.747 106.864 104.989 105.032 107.767C104.008 109.323 102.753 110.63 101.394 111.886C100.99 112.256 101.54 113.013 101.996 112.669C104.696 110.587 106.717 107.534 107.93 104.37C109.229 100.964 109.512 97.2144 108.842 93.6282Z" fill="black"/>
<path d="M103.897 82.216C102.323 79.5844 100.715 76.9786 99.1237 74.3642C98.3325 73.0656 97.5413 71.7756 96.7587 70.477C96.3717 69.8406 96.7329 70.4426 96.3459 69.8148C95.9331 69.1354 95.5461 68.413 95.0731 67.7766C94.7033 67.2778 93.9465 67.6906 94.2303 68.2668C94.5743 68.9806 95.0473 69.6514 95.4515 70.3394C95.8385 70.9758 95.4773 70.3738 95.8643 71.0102C96.6555 72.3088 97.4381 73.5988 98.2293 74.8974C99.8203 77.5118 101.403 80.1348 103.011 82.7406C103.355 83.2996 104.241 82.7922 103.897 82.216Z" fill="black"/>
<path d="M135.648 103.269C135.527 102.632 134.581 102.908 134.676 103.535C136.018 111.963 133.575 120.675 127.779 126.988C124.975 130.032 121.578 132.268 117.82 133.971C113.933 135.734 109.813 137.067 106.176 139.354C102.658 141.573 99.4761 144.712 98.4011 148.849C98.2377 149.485 99.2181 149.752 99.3815 149.124C100.371 145.435 103.14 142.597 106.262 140.558C109.882 138.193 114.019 136.852 117.949 135.115C121.776 133.42 125.276 131.21 128.183 128.174C130.952 125.276 133.111 121.81 134.47 118.026C136.147 113.322 136.585 108.171 135.648 103.269Z" fill="black"/>
<path d="M72.4896 64.4226C72.5756 64.4312 72.6702 64.4484 72.7562 64.457C72.9024 64.4914 73.0486 64.5172 73.1862 64.5516C73.5216 64.629 73.8484 64.7236 74.1924 64.758C74.7858 64.8182 74.8116 63.9668 74.3214 63.7862C74.0978 63.7002 73.599 63.6486 73.3926 63.6056C72.5412 63.425 71.7156 63.2702 70.8728 63.0466C70.0644 62.823 69.3076 62.4962 68.5766 62.1092C68.2412 61.9286 67.923 62.1522 67.837 62.4274C67.7854 62.5048 67.751 62.5908 67.751 62.694C67.751 63.21 67.8886 63.7432 68.1294 64.2162C68.4648 65.016 69.1442 65.747 69.7634 66.2114C70.6578 66.8822 71.8532 67.2864 72.9798 67.2004C73.0916 67.2004 73.212 67.2004 73.3238 67.2004C73.5646 67.209 73.8054 67.209 74.0376 67.1918C74.5536 67.1402 74.7428 66.3662 74.1666 66.2286C73.685 66.1168 73.1432 66.0824 72.6186 66.0652C72.5068 66.0652 72.3262 66.0308 72.223 65.9878C71.664 65.7728 71.4834 65.2654 71.664 64.8612C71.8188 64.5516 72.1542 64.3796 72.4896 64.4226Z" fill="black"/>
<path d="M99.0375 59.9334C98.5817 59.4174 97.8507 59.1938 97.1885 59.125C96.5951 59.0562 96.5779 59.9162 97.0595 60.0968C97.5153 60.2688 98.2119 60.3462 98.4097 60.8794C98.5903 61.3696 97.9539 61.6104 97.6013 61.7652C96.4145 62.2726 95.1761 62.6768 93.9377 63.0208C92.7165 63.3562 91.4695 63.6228 90.2139 63.8034C88.8895 64.0012 87.5737 64.0356 86.2407 64.1388C85.6129 64.1904 85.6043 65.0934 86.2407 65.1278C87.8059 65.2052 89.4227 64.9902 90.9621 64.7408C92.5531 64.4828 94.1269 64.1044 95.6577 63.6056C96.4145 63.3562 97.1541 63.081 97.8851 62.78C98.4527 62.5478 99.0461 62.2726 99.3385 61.6964C99.6481 61.0944 99.4675 60.415 99.0375 59.9334Z" fill="black"/>
<path d="M102.856 57.6802C102.822 57.6286 102.77 57.577 102.71 57.534C101.153 56.4762 99.0118 56.3902 97.3692 57.2932C95.8813 58.1016 94.7117 59.8044 94.6945 61.533C94.6859 62.092 95.6061 62.2468 95.6921 61.6706C95.9157 60.243 96.5349 58.9702 97.8422 58.2306C99.0548 57.5512 100.517 57.5856 101.747 58.1704C101.79 58.2134 101.841 58.2564 101.901 58.2908C103.028 58.8842 103.51 60.3032 102.822 61.404C102.091 62.565 100.543 63.0466 99.33 63.4938C96.0362 64.715 92.6306 65.6094 89.1647 66.177C87.1953 66.4952 85.2173 66.6844 83.2307 66.8048C82.5771 66.8478 82.5685 67.854 83.2307 67.8282C87.1523 67.682 91.0739 67.0284 94.858 66.0136C96.75 65.5062 98.6076 64.8956 100.431 64.1904C101.781 63.6658 103.286 62.9692 103.914 61.5674C104.524 60.2172 104.069 58.5058 102.856 57.6802Z" fill="black"/>
<path d="M103.054 52.4256C102.676 53.4232 102.572 54.5326 102.633 55.5904C102.676 56.2354 103.665 56.244 103.648 55.5904C103.613 54.5928 103.759 53.6468 104 52.6836C104.164 52.0558 103.278 51.8408 103.054 52.4256Z" fill="black"/>
<path d="M106.365 56.0032C105.703 56.459 105.049 56.975 104.447 57.4996C104.017 57.8694 104.585 58.6176 105.058 58.2908C105.72 57.8264 106.373 57.3276 106.984 56.7944C107.397 56.416 106.838 55.685 106.365 56.0032Z" fill="black"/>
<path d="M80.7367 36.5672C79.4381 34.1334 77.2451 32.2242 74.8371 30.9342C73.5557 30.2462 72.1711 29.6786 70.7607 29.3346C70.3393 29.2228 70.1157 29.0508 69.8749 29.3862C66.8477 33.5744 61.9113 36.1114 56.7513 36.1372C55.1603 36.1458 53.6037 35.9136 52.0729 35.5008C51.9783 35.475 51.8923 35.475 51.8063 35.4922C51.6515 35.4836 51.4881 35.5524 51.3849 35.7416C49.8799 38.2356 49.1919 41.2714 49.0199 44.161C48.8307 47.2226 49.2779 50.3014 50.1035 53.2512C50.5679 54.9196 51.1011 56.6568 51.8751 58.2134C51.9095 58.2822 51.9525 58.3338 51.9955 58.3682C52.3481 59.7098 53.1393 60.9482 54.2831 61.7566C55.1173 62.35 56.1321 62.6854 57.1383 62.6768C57.1211 62.7714 57.1297 62.8832 57.1813 62.9864C58.8669 66.822 58.6605 71.423 56.6739 75.1124C54.6787 78.819 51.0495 81.2614 47.3687 83.0932C43.1547 85.183 38.6139 86.6106 34.6321 89.1562C31.3125 91.2804 28.4659 94.1184 26.2901 97.395C23.9939 100.852 22.3255 104.911 21.8095 109.048V109.057C21.6891 109.564 21.6633 110.114 21.6977 110.648C21.4741 111.68 21.8783 112.858 22.9361 113.391C23.0909 113.468 23.2457 113.468 23.3661 113.408C22.0761 117.51 21.0097 121.699 20.7087 125.999C20.3819 130.729 21.1387 135.605 23.4263 139.802C24.5013 141.771 25.9203 143.568 27.6661 144.979C29.6527 146.587 31.9833 147.653 34.4171 148.376C37.0057 149.141 39.6889 149.563 42.3463 149.95C45.2789 150.38 48.2287 150.732 51.1871 150.999C57.1469 151.532 63.1325 151.713 69.1095 151.549C69.8405 151.532 78.0191 151.893 78.7501 151.842C79.4037 151.799 79.4209 150.801 78.7501 150.81C78.2083 150.818 70.2189 150.431 69.6771 150.44C69.7803 148.703 70.2619 147.103 70.9671 145.521C71.3541 145.228 71.5863 144.798 71.4401 144.196C71.3111 143.646 70.4511 143.766 70.4597 144.325C70.4597 144.489 70.3995 144.609 70.3049 144.712C70.2877 144.729 70.2619 144.747 70.2447 144.764C69.8319 145.082 68.9461 145.039 68.5505 145.065C67.6217 145.125 66.6843 145.125 65.7555 145.065C65.2997 145.03 64.0011 145.099 63.7775 144.549C63.6485 144.231 63.8807 143.749 63.9839 143.457C64.1473 143.009 64.3451 142.571 64.5601 142.149C64.8439 141.565 63.9925 141.057 63.6829 141.633C63.3905 142.175 63.1411 142.751 62.9347 143.328C62.7455 143.852 62.6079 144.42 62.8229 144.953C63.0121 145.417 63.3819 145.675 63.8119 145.83C63.1411 147.258 62.7283 148.952 62.6595 150.517C59.7269 150.474 56.8029 150.345 53.8789 150.139C50.9979 149.932 48.1169 149.64 45.2445 149.279C42.5097 148.926 39.7663 148.548 37.0745 147.954C34.6063 147.413 32.1639 146.639 29.9967 145.323C28.0789 144.153 26.4621 142.554 25.2237 140.687C22.7555 136.981 21.6977 132.457 21.7235 128.037C21.7579 122.378 23.3747 116.9 25.0947 111.559C25.2839 110.974 25.4731 110.381 25.6623 109.796C26.9179 109.96 28.1649 110.407 29.3087 110.871C31.0029 111.568 32.6369 112.411 34.2881 113.193C35.9823 114.002 37.6765 114.81 39.3707 115.618C40.8843 116.341 42.3807 117.115 43.9115 117.803C43.9115 117.82 43.9029 117.829 43.9029 117.846C43.6363 120.082 43.2837 122.301 42.8451 124.511C42.6301 125.594 42.3893 126.678 42.1313 127.753C41.8733 128.811 41.5035 129.869 41.3057 130.935C40.9359 130.875 40.5747 130.806 40.2049 130.746C39.5599 130.634 39.2847 131.614 39.9297 131.726C48.4093 133.257 56.8373 135.029 65.1965 137.127C65.2653 137.144 65.3427 137.161 65.4115 137.179C65.6179 137.23 65.8329 137.153 65.9619 136.989L65.9705 136.981C66.2027 136.68 66.0565 136.233 65.6781 136.138C62.0575 135.226 58.4111 134.375 54.7647 133.575C50.6367 132.681 46.5001 131.847 42.3377 131.107C42.7161 130.101 42.9225 128.983 43.1719 127.951C43.4385 126.85 43.6793 125.741 43.8943 124.623C44.3071 122.498 44.6339 120.357 44.8661 118.207C44.9521 118.241 45.0295 118.276 45.1155 118.31C45.6573 118.534 46.0099 117.648 45.5111 117.373C43.6277 116.332 41.6153 115.489 39.6717 114.561C37.7711 113.658 35.8705 112.755 33.9699 111.852C31.9833 110.914 30.0139 109.899 27.9069 109.246C27.1157 108.996 26.3073 108.833 25.4817 108.738C24.6389 108.644 23.7531 108.627 22.9705 109.005C22.9447 109.014 22.9189 109.031 22.8931 109.048C23.5295 105.384 24.7507 101.91 26.7287 98.7194C28.8185 95.3482 31.6307 92.407 34.9589 90.2312C38.9493 87.6254 43.5331 86.1806 47.7901 84.0908C51.5225 82.2504 55.1775 79.7908 57.3361 76.1444C59.7527 72.068 60.0107 66.8822 58.1015 62.565C58.3767 62.4962 58.6519 62.4016 58.9099 62.2812C59.5033 61.9974 58.9873 61.1288 58.3939 61.404C56.2439 62.3844 53.8617 60.6128 53.1479 58.6176C52.7351 57.4566 52.7609 56.1666 53.2511 55.0314C53.4403 54.5842 53.7241 53.9994 54.1971 53.793C54.7217 53.5608 55.2893 54.0338 55.6505 54.3692C56.6137 55.2808 57.1297 56.4332 57.4049 57.7146C57.4565 57.9468 57.6457 58.0586 57.8521 58.0672C57.9897 58.1446 58.1531 58.1618 58.3337 58.0844C58.9787 57.792 59.2023 57.1728 59.2969 56.5278C59.5979 55.47 59.7527 54.3262 59.9075 53.2598C60.1139 51.8408 60.2515 50.4132 60.2945 48.9856C60.3461 47.5752 60.3203 46.1734 60.2171 44.763C60.1655 44.0578 60.0967 43.3612 60.0021 42.6646C59.9763 42.4754 59.9591 42.2948 59.9333 42.1056C60.6213 42.7334 61.5157 43.1548 62.3499 43.5418C63.7947 44.2212 65.2997 44.7802 66.8477 45.2102C69.8835 46.053 73.0913 46.354 76.2389 46.1132C77.1247 46.0444 78.0105 45.9326 78.8877 45.7864C79.2575 45.7262 79.6531 45.666 80.0401 45.5886C80.0831 45.9498 80.1261 46.311 80.1519 46.6636C80.2379 47.7042 80.2981 48.7534 80.3239 49.794C80.0831 49.149 79.6703 48.6416 79.1113 48.2374C78.5953 47.859 77.8557 47.5236 77.2107 47.5838C76.6861 47.6354 76.5227 48.375 77.0817 48.5384C77.5891 48.6846 78.0449 48.762 78.4835 49.0716C78.8963 49.364 79.2059 49.7768 79.4467 50.2154C79.6531 50.5852 80.1863 50.4734 80.3325 50.1552C80.3497 50.9894 80.3497 51.8322 80.3325 52.6664C80.3239 53.1738 80.3067 53.6812 80.2809 54.1886C80.2551 54.7132 80.1691 55.2636 80.2035 55.7882C80.2379 56.33 81.0635 56.5106 81.1925 55.9258C81.4161 54.9454 81.3731 53.836 81.3989 52.8384C81.4247 51.7978 81.4247 50.7486 81.3903 49.708C81.3559 48.6932 81.2957 47.6784 81.2011 46.6722C81.1581 46.225 81.1237 45.7692 81.0807 45.3134C81.2355 45.2618 81.3817 45.193 81.5279 45.1242C81.7171 45.0296 81.7945 44.849 81.7859 44.6684C81.7859 44.6598 81.7945 44.6426 81.7945 44.634C82.5599 41.9336 82.0181 38.9924 80.7367 36.5672ZM64.0613 148.264C64.2591 147.499 64.5515 146.776 64.8353 146.045C65.0589 146.071 65.2825 146.08 65.4889 146.097C66.7961 146.209 68.1291 146.2 69.4363 146.054C69.4793 146.045 69.5309 146.045 69.5739 146.037C68.9891 147.43 68.6967 148.978 68.6365 150.466C66.9767 150.5 65.3169 150.526 63.6571 150.526C63.7603 149.769 63.8635 149.012 64.0613 148.264ZM58.6863 51.7806C58.6433 52.116 58.6175 52.46 58.5315 52.7868C58.4025 53.3286 57.5597 53.1996 57.5769 52.6578C57.5855 52.3654 57.6285 52.073 57.6629 51.7806C57.6973 51.5054 57.8693 51.2646 58.1789 51.2646C58.4283 51.2646 58.7207 51.5054 58.6863 51.7806ZM59.1077 49.4414C59.0303 49.9918 58.1015 49.8542 58.1359 49.3124C58.2993 46.87 58.2305 44.4362 57.7231 42.0368C57.5941 41.4004 58.5573 41.1338 58.6949 41.7702C59.2711 44.2814 59.4603 46.8786 59.1077 49.4414ZM71.7325 43.86C70.3135 43.8428 68.8859 43.602 67.5271 43.2322C66.1769 42.8624 64.7837 42.3722 63.5883 41.6498C63.0379 41.323 63.5195 40.5576 64.0785 40.807C65.3083 41.3574 66.5037 41.8906 67.8023 42.2346C69.0923 42.5786 70.4081 42.7678 71.7325 42.8796C72.3517 42.9398 72.3689 43.8686 71.7325 43.86ZM76.6259 43.9718C76.0583 43.9632 75.4907 43.9202 74.9231 43.8514C74.3211 43.7826 74.2867 42.871 74.9231 42.8796C75.4907 42.8882 76.0583 42.9226 76.6259 42.9914C77.2279 43.0688 77.2709 43.9804 76.6259 43.9718Z" fill="black"/>
<path d="M86.1033 155.307C83.2137 157.217 79.9457 158.498 76.5315 159.074C74.7513 159.375 72.9539 159.392 71.1479 159.435C69.4365 159.478 67.6907 159.59 66.074 160.175C64.5002 160.743 63.0468 161.723 62.2126 163.211C61.8944 163.778 62.7372 164.269 63.0812 163.718C64.8442 160.889 68.4734 160.571 71.4833 160.51C73.2463 160.476 75.0007 160.416 76.7465 160.132C78.3977 159.857 80.0231 159.418 81.5883 158.816C83.3599 158.128 85.0455 157.26 86.6279 156.193C87.1697 155.823 86.6537 154.938 86.1033 155.307Z" fill="black"/>
<path d="M87.9181 157.406C87.0151 158.223 86.1122 158.98 85.0458 159.582C83.9793 160.192 82.8355 160.657 81.6487 160.958C79.0773 161.611 76.3769 161.353 73.7969 161.99C72.4725 162.316 71.2169 162.875 70.2021 163.804C69.7119 164.251 70.4257 164.948 70.9245 164.527C72.8939 162.841 75.5857 162.695 78.0453 162.514C79.3697 162.42 80.7027 162.299 81.9927 161.964C83.1537 161.663 84.2717 161.207 85.3209 160.631C86.5163 159.969 87.6945 159.134 88.6234 158.128C89.0706 157.638 88.3997 156.967 87.9181 157.406Z" fill="black"/>
<path d="M117.76 60.544C117.381 66.1082 114.896 71.2424 111.937 75.852C108.884 80.6078 105.315 84.8906 102.486 89.7582C99.7169 94.5398 97.6443 99.8116 98.0485 105.453C98.4699 111.413 101.445 116.84 101.841 122.885C102.056 126.11 101.359 129.533 100.327 132.681C99.2525 135.94 97.7905 139.2 96.6381 142.433C96.3457 143.242 96.0447 144.016 95.8039 144.798C95.6147 145.435 96.5091 145.77 96.7499 145.125C97.9625 141.883 99.2611 138.649 100.482 135.373C101.652 132.225 102.658 128.837 102.882 125.517C103.097 122.344 102.478 119.385 101.686 116.41C100.904 113.486 99.8975 110.682 99.3901 107.732C98.8999 104.903 98.9515 102.108 99.5965 99.33C100.224 96.6296 101.291 94.1184 102.606 91.6932C105.298 86.7138 108.841 82.3794 111.998 77.658C115.051 73.1 117.811 68.069 118.594 62.5392C118.688 61.8684 118.749 61.1718 118.749 60.501C118.74 59.8474 117.803 59.9076 117.76 60.544Z" fill="black"/>
<path d="M68.5679 27.4856C65.0247 23.4092 61.4729 19.3328 57.9297 15.265C57.8867 15.1618 57.8093 15.0758 57.7147 15.0242C56.8203 14.0008 55.9259 12.9688 55.0315 11.9454C53.7501 10.4748 52.4773 9.01279 51.1873 7.55079C51.0927 7.44759 50.9895 7.39599 50.8863 7.38739C50.5767 7.28419 50.1811 7.43039 50.1983 7.85179C50.4907 14.5512 50.7831 21.242 51.0841 27.9414L51.3421 33.669C51.3765 34.357 52.4429 34.357 52.4085 33.669C52.1935 28.8444 51.9699 24.0284 51.7549 19.2038C52.6235 18.361 53.3459 17.3634 53.9049 16.2798C54.3435 15.437 54.7735 14.4738 54.9885 13.5106C55.6077 14.2244 56.2355 14.9468 56.8547 15.6606C56.4763 16.7872 56.0549 17.8794 55.4959 18.9372C54.8681 20.0982 54.0941 21.1302 53.3029 22.1794C52.9417 22.6524 53.7157 23.22 54.1199 22.8072C55.0659 21.8268 55.8399 20.6228 56.4763 19.4274C56.9493 18.533 57.3707 17.5784 57.6717 16.598C58.6005 17.6644 59.5379 18.7394 60.4667 19.8058C60.1743 20.6658 59.8905 21.5086 59.4863 22.3342C59.0649 23.1942 58.5661 24.0198 57.9985 24.7938C56.8805 26.3246 55.4615 27.6404 53.9135 28.7154C53.3975 29.068 53.8619 29.8936 54.4123 29.5668C56.1667 28.509 57.6459 27.0986 58.8585 25.456C59.8819 24.0714 60.7935 22.4374 61.2923 20.7518C62.1953 21.7838 63.0897 22.8158 63.9927 23.8478C64.1475 24.0284 64.3023 24.2004 64.4571 24.381C63.7777 25.7226 63.0811 27.0212 62.1437 28.208C61.1289 29.4808 59.9679 30.6848 58.6607 31.6566C58.1361 32.0522 58.6263 32.9466 59.1853 32.5596C60.6301 31.5448 61.9287 30.3838 63.0123 28.982C63.8809 27.864 64.6893 26.6084 65.2397 25.2754C66.0997 26.2644 66.9683 27.262 67.8283 28.251C68.2669 28.7584 69.0151 28.0016 68.5679 27.4856ZM53.6555 14.1814C53.4577 14.7404 53.2255 15.2822 52.9417 15.7982C52.5805 16.4776 52.1505 17.114 51.6861 17.716C51.6259 16.3314 51.5571 14.9554 51.4969 13.5708C51.4281 12.126 51.3593 10.6812 51.2905 9.23639C52.2365 10.3372 53.1825 11.4294 54.1285 12.5216C53.9565 13.0634 53.8533 13.631 53.6555 14.1814Z" fill="black"/>
<path d="M66.4437 48.2546C64.8183 47.7386 62.9865 48.5556 62.4017 50.1896C62.2125 50.7228 63.0639 51.084 63.3219 50.5766C63.8809 49.4758 64.9387 48.8652 66.1857 49.2006C66.7963 49.364 67.0457 48.4438 66.4437 48.2546Z" fill="black"/>
<path d="M37.4875 49.5274C36.5501 46.8012 34.1249 44.634 31.2697 44.1266C31.1407 44.1008 31.0031 44.0836 30.8655 44.0664C30.1259 42.7506 28.8703 41.7014 27.6147 40.9102C26.3935 40.1362 25.0347 39.5772 23.6329 39.2332C20.4165 38.4592 16.8561 38.7946 13.9923 40.5146C13.4247 40.8586 13.9235 41.6928 14.5083 41.4004C18.7997 39.2848 24.2349 39.6374 28.0275 42.6474C28.5349 43.0516 29.0509 43.516 29.4551 44.0406C28.5091 44.1352 27.5975 44.4792 26.9697 45.236C26.1183 46.268 25.9549 47.9794 27.0815 48.891C28.2167 49.8026 29.9453 49.4414 30.7967 48.3234C31.4675 47.4376 31.5879 46.3024 31.3299 45.2446C33.6605 45.7434 35.6901 47.558 36.4899 49.794C36.7135 50.4218 37.7025 50.1638 37.4875 49.5274ZM28.9133 48.2632C27.7781 48.4782 27.1159 47.472 27.5287 46.4572C27.9415 45.4424 29.0595 45.1242 30.0829 45.1242C30.1517 45.2876 30.2033 45.4596 30.2463 45.6402C30.5043 46.698 30.1087 48.0396 28.9133 48.2632Z" fill="black"/>
<path d="M105.066 15.05C102.065 14.6974 99.0635 16.0304 97.2575 18.4298C96.7071 19.1608 96.2685 19.9864 95.9761 20.8636C95.6149 20.8464 95.2537 20.8722 94.9011 20.9496C93.6025 21.2162 92.5275 22.1622 91.8051 23.2286C89.8701 26.0924 90.0163 30.1172 91.4697 33.1358C91.7535 33.7292 92.6049 33.2132 92.3383 32.6284C91.2977 30.315 91.0827 27.5716 91.9771 25.1808C92.5705 23.5898 93.9293 21.9644 95.6923 21.9214C95.6579 22.0762 95.6321 22.231 95.6063 22.3858C95.4085 23.7618 95.4601 25.5506 96.9049 26.2472C98.2465 26.8922 99.4849 25.843 99.6483 24.5014C99.7945 23.3146 99.1237 22.231 98.1691 21.586C97.8251 21.3538 97.4467 21.1732 97.0425 21.0528C97.2833 20.3992 97.6101 19.7714 98.0143 19.1952C99.5967 16.9506 102.366 15.8154 105.066 16.039C105.711 16.0906 105.685 15.1274 105.066 15.05ZM98.4185 23.3662C98.7281 23.9854 98.6679 25.5764 97.6101 25.3786C96.3373 25.1378 96.5179 23.2458 96.6899 22.3256C96.7071 22.2396 96.7243 22.145 96.7415 22.059C97.4381 22.2826 98.0831 22.7126 98.4185 23.3662Z" fill="black"/>
<path d="M154.207 144.334C152.779 141.969 150.44 139.741 147.731 138.847C147.482 137.892 147.017 136.972 146.475 136.19C144.343 133.094 140.438 131.15 136.663 131.632C136.061 131.709 136.026 132.646 136.663 132.603C139.527 132.388 142.382 133.377 144.446 135.39C145.349 136.267 146.114 137.359 146.544 138.555C146.458 138.537 146.381 138.529 146.295 138.512C144.532 138.262 142.657 138.959 142.046 140.756C141.513 142.313 142.605 143.809 144.171 144.041C145.856 144.291 147.249 143.061 147.731 141.513C147.869 141.049 147.929 140.576 147.92 140.111C150.07 141.023 151.91 142.76 153.132 144.704C154.748 147.275 155.436 150.397 154.92 153.407C154.809 154.043 155.763 154.327 155.901 153.682C156.597 150.483 155.875 147.103 154.207 144.334ZM145.228 142.923C144.136 143.31 142.7 142.528 142.992 141.246C143.371 139.612 145.211 139.32 146.604 139.655C146.682 139.673 146.751 139.69 146.828 139.716C146.957 140.988 146.527 142.468 145.228 142.923Z" fill="black"/>
<path d="M68.697 143.388C67.7166 143.233 66.7104 143.173 65.7128 143.095C65.0592 143.044 65.0764 144.041 65.7128 144.102C66.6588 144.196 67.6134 144.334 68.568 144.36C69.1098 144.368 69.256 143.474 68.697 143.388Z" fill="black"/>
<path d="M71.965 137.686C71.3372 137.867 70.7352 138.219 70.1418 138.494C69.5397 138.778 68.8775 139.019 68.3099 139.372C68.1981 139.44 68.1379 139.535 68.1035 139.638C67.9917 139.784 67.9487 139.982 68.0777 140.171C68.3271 140.524 68.6023 140.868 68.8689 141.212C69.1355 141.556 69.3935 141.943 69.7032 142.253C70.1074 142.657 70.804 142.141 70.503 141.633C70.2794 141.264 69.9783 140.928 69.7117 140.593C69.5655 140.412 69.4279 140.232 69.2817 140.051C69.7031 139.87 70.1074 139.664 70.5202 139.475C71.1222 139.2 71.8016 138.967 72.352 138.606C72.825 138.305 72.5412 137.514 71.965 137.686Z" fill="black"/>
</svg>
