<svg width="84" height="84" viewBox="0 0 84 84" fill="none" xmlns="http://www.w3.org/2000/svg">
<g clip-path="url(#clip0_8501_141)">
<path d="M42 0C65.1965 0 84 18.8042 84 42C84 65.1965 65.1965 84 42 84C18.8042 84 0 65.1965 0 42C0 18.8042 18.8042 0 42 0Z" fill="#19191C"/>
<path d="M56.5846 34.6864L49.3109 31.0709C49.4347 30.6692 49.4644 30.2242 49.492 29.8103L49.4923 29.8052L49.4923 29.8052C49.5265 29.2926 49.5581 28.8183 49.7118 28.4082L49.7119 28.4079C50.0293 27.5581 50.23 26.6143 50.4264 25.6908C50.4824 25.4277 50.538 25.1663 50.5958 24.9092C50.8604 23.7331 51.1732 22.6359 51.7668 21.7655L51.8021 21.7137L51.8088 21.6513C51.8355 21.4031 51.8621 21.1656 51.8888 20.9333C52.0072 20.0823 52.0813 19.2256 52.1107 18.3668L52.1108 18.3668L52.1108 18.3583C52.1109 18.1217 52.1855 17.8915 52.3234 17.7014C52.4613 17.5112 52.655 17.3711 52.8761 17.3007C53.0972 17.2304 53.3346 17.2333 53.5539 17.309C53.7734 17.3847 53.9638 17.5295 54.0971 17.7229L54.0976 17.7236L56.8779 21.7291L56.9219 21.7924L56.9938 21.82C57.9079 22.1705 58.7786 22.6277 59.5883 23.1824C59.905 23.4513 60.1845 23.7625 60.419 24.1076L60.427 24.1194L60.4364 24.1303C60.5217 24.2293 60.6264 24.359 60.7364 24.4953C60.764 24.5294 60.7919 24.564 60.8199 24.5986C60.9558 24.7664 61.0969 24.9383 61.2023 25.0479L61.2391 25.0862L61.2882 25.1063C61.7795 25.3064 62.6688 25.5067 63.3679 25.6623M63.3679 25.6623C63.3678 25.6622 63.3677 25.6622 63.3676 25.6622L63.4222 25.4182L63.3679 25.6623Z" fill="#E13838" stroke="white" stroke-width="0.5"/>
<path d="M47.6065 32.6832L47.7958 32.7751L56.1092 36.8109L56.2808 36.8942L56.2458 37.0817C56.0638 38.056 56.0625 39.1708 56.1092 40.2648C56.1265 40.67 56.1507 41.0754 56.1741 41.4686C56.2131 42.1225 56.25 42.7426 56.25 43.271V43.2744C56.2412 43.9103 56.186 44.5222 56.1404 45.0271C56.1259 45.1878 56.1123 45.3377 56.1016 45.474L56.1015 45.4748C55.9681 47.1005 55.3605 48.6587 54.3474 49.9783C54.3031 50.0364 54.2599 50.0926 54.2182 50.1467C54.0915 50.3116 53.9796 50.457 53.8981 50.5756C53.874 50.6846 53.8528 50.8677 53.8362 51.1305C53.818 51.4194 53.8064 51.7857 53.7982 52.2186C53.7884 52.7325 53.7837 53.3339 53.7784 54.0042C53.7748 54.4651 53.7709 54.9586 53.7649 55.4786C53.7364 57.9733 53.6608 61.0576 53.3386 63.9555L53.9586 64.2427L53.9591 64.243C54.296 64.3999 54.5697 64.6612 54.7323 64.9874C54.8952 65.3139 54.9358 65.684 54.8465 66.0363C54.7572 66.3884 54.5444 66.6983 54.2467 66.9175C53.9494 67.1364 53.584 67.2527 53.2102 67.25C53.2101 67.25 53.21 67.2499 53.21 67.2499M47.6065 32.6832L53.2118 67L53.21 67.2499M47.6065 32.6832L47.4841 32.8534M47.6065 32.6832L47.4841 32.8534M53.21 67.2499L49.1274 67.2233L48.879 67.2216V66.9733V65.628V65.6202L48.8795 65.6124C49.2756 59.2948 47.2503 55.767 45.1507 53.8159C44.0964 52.8362 43.0151 52.2462 42.1928 51.9014C41.7818 51.7291 41.4363 51.6184 41.1924 51.551C41.0705 51.5173 40.9743 51.4946 40.9084 51.4805C40.8754 51.4734 40.8506 51.4686 40.8343 51.4657L40.8269 51.4644M53.21 67.2499L22.4375 55.7122M20.4071 53.5153C20.2708 53.6274 17.0681 56.3019 17 59.8839M20.4071 53.5153C20.5453 53.3905 20.709 53.2933 20.8882 53.2295C21.0675 53.1658 21.2586 53.1368 21.45 53.1444C21.6415 53.1519 21.8294 53.1959 22.0023 53.2735C22.1752 53.3511 22.3297 53.4609 22.4563 53.5961M20.4071 53.5153L20.2483 53.3222C20.247 53.3232 20.2456 53.3245 20.2439 53.3258M20.4071 53.5153L20.2396 53.3297C20.241 53.3284 20.2424 53.3271 20.2439 53.3258M17 59.8839L21.7813 63.4072M17 59.8839C17 61.9018 17.937 63.7542 19.8393 65.3824M17 59.8839L19.8393 65.3824M22.4563 53.5961C22.5829 53.7314 22.679 53.8893 22.739 54.0604C22.7989 54.2316 22.8213 54.4123 22.805 54.5918C22.7886 54.7713 22.7337 54.9458 22.6437 55.1049M22.4563 53.5961L22.6388 53.4253C22.7886 53.5853 22.9032 53.7732 22.9749 53.9778C23.0466 54.1825 23.0736 54.3992 23.0539 54.6145C23.0343 54.8299 22.9685 55.0386 22.8612 55.2281L22.6437 55.1049M22.4563 53.5961L22.6388 53.4253C22.489 53.2653 22.3071 53.1363 22.1047 53.0454C21.9023 52.9545 21.683 52.9034 21.4599 52.8946C21.2368 52.8858 21.0139 52.9195 20.8045 52.994C20.5968 53.0678 20.4061 53.1804 20.2439 53.3258M22.6437 55.1049C22.5536 55.2639 22.4303 55.4042 22.281 55.5172M22.6437 55.1049L22.8612 55.2281C22.7551 55.4155 22.6108 55.5799 22.4375 55.7122M22.281 55.5172C22.2804 55.5177 22.2783 55.5196 22.2746 55.5228C22.136 55.6428 19.8677 57.6073 19.8677 59.9213C19.862 61.1598 20.4866 62.3022 21.7813 63.4072M22.281 55.5172L22.4319 55.7165C22.4338 55.7151 22.4357 55.7136 22.4375 55.7122M22.281 55.5172L22.4523 55.6993C22.4511 55.7004 22.4477 55.7033 22.4422 55.7082C22.4408 55.7094 22.4392 55.7108 22.4375 55.7122M21.7813 63.4072L21.9436 63.2171C21.9391 63.2133 21.9347 63.2095 21.9302 63.2057C21.9254 63.2026 21.9205 63.1995 21.9156 63.1964L21.7813 63.4072ZM20.2439 53.3258C20.1434 53.409 19.3055 54.1162 18.4762 55.2509C17.6347 56.4021 16.7855 58.0161 16.75 59.8792H16.75V59.8839C16.75 61.9899 17.7315 63.9074 19.6767 65.5724L19.6788 65.5742C20.8758 66.5757 22.9062 67.1167 24.891 67.0471M24.891 67.0471L46.2937 67.1966L46.5454 67.1983V66.9466V65.5906V65.5775L46.5441 65.5644C46.5431 65.5552 46.5431 65.546 46.5441 65.5368L46.5443 65.5368L46.5449 65.5262C46.8721 60.3034 45.4375 57.3253 43.8456 55.6461C42.2606 53.9742 40.5521 53.6241 40.3812 53.5946L40.3387 53.8409L40.3824 53.5948C40.0749 53.5402 39.807 53.3742 39.6343 53.1383C39.4622 52.903 39.3975 52.6161 39.4507 52.3392C39.5041 52.0619 39.6727 51.8112 39.9259 51.6448C40.1795 51.478 40.4954 51.4111 40.804 51.4612L40.8239 51.4644H40.8269M24.891 67.0471L24.8857 67.0471L24.8875 66.7971M24.891 67.0471C24.8928 67.0471 24.8946 67.047 24.8964 67.0469L24.8875 66.7971M40.8269 51.4644L40.8183 51.463C40.8073 51.4614 40.8234 51.4644 40.8441 51.4644H40.8269ZM24.8875 66.7971C22.9397 66.8665 20.975 66.3327 19.8393 65.3824M24.8875 66.7971L46.0454 66.9448V66.9466H46.2954L46.2972 66.6966L46.2954 66.6966V65.5906C46.2926 65.564 46.2926 65.5372 46.2954 65.5106L19.8393 65.3824M47.4841 32.8534C47.4841 32.8534 47.4785 32.86 47.4621 32.8724C47.4437 32.8863 47.4179 32.9027 47.3837 32.9216C47.314 32.9601 47.228 32.9989 47.1298 33.0423L47.1099 33.0511C47.0215 33.0902 46.9239 33.1333 46.8387 33.1782C46.7564 33.2215 46.6534 33.2824 46.581 33.3663L45.6212 34.3641L45.621 34.3639M47.4841 32.8534L45.621 34.3639M45.621 34.3639L45.6134 34.3726M45.621 34.3639L45.6134 34.3726M45.6134 34.3726C43.7468 36.5016 41.5102 38.8167 39.3734 41.0285C38.6652 41.7615 37.968 42.4832 37.2989 43.183C35.9568 44.5864 34.7276 45.902 33.7547 47.0401C32.7872 48.1717 32.0541 49.1492 31.7241 49.8721L31.7238 49.8727M45.6134 34.3726L31.7238 49.8727M31.7238 49.8727C30.6958 52.1403 30.1121 54.9757 29.6032 57.4472L29.5999 57.4633L29.5997 57.4642M31.7238 49.8727L29.5997 57.4642M29.5997 57.4642C29.4065 58.4207 29.2089 59.3864 29.0019 60.2064C28.7925 61.0362 28.5815 61.6813 28.372 62.0204C28.0657 62.5074 27.6442 62.9234 27.1386 63.2359C26.6327 63.5486 26.0566 63.749 25.4541 63.821L25.454 63.8209M29.5997 57.4642L25.454 63.8209M25.454 63.8209L25.4504 63.8214M25.454 63.8209L25.4504 63.8214M25.4504 63.8214C25.2628 63.8466 25.0735 63.8621 24.908 63.8726L25.4504 63.8214ZM24.1965 63.8726H24.1947V64.1226L24.1983 63.8726C24.1977 63.8726 24.1971 63.8726 24.1965 63.8726Z" fill="#E13838" stroke="white" stroke-width="0.5"/>
</g>
<defs>
<clipPath id="clip0_8501_141">
<rect width="84" height="84" fill="white"/>
</clipPath>
</defs>
</svg>
