<svg xmlns="http://www.w3.org/2000/svg" width="84" height="84" viewBox="0 0 84 84" fill="none">
  <g clip-path="url(#clip0_8501_264)">
    <path d="M42 0C65.1958 0 84 18.8042 84 42C84 65.1965 65.1958 84 42 84C18.8042 84 0 65.1965 0 42C0 18.8042 18.8042 0 42 0Z" fill="#19191C"/>
    <path d="M30.8438 55.125H27.5625C26.838 55.125 26.25 55.713 26.25 56.4375V60.375C26.25 61.0995 26.838 61.6875 27.5625 61.6875H30.8438C31.5683 61.6875 32.1562 61.0995 32.1562 60.375V56.4375C32.1562 55.713 31.5683 55.125 30.8438 55.125ZM56.4375 55.125H53.1562C52.4317 55.125 51.8438 55.713 51.8438 56.4375V60.375C51.8438 61.0995 52.4317 61.6875 53.1562 61.6875H56.4375C57.162 61.6875 57.75 61.0995 57.75 60.375V56.4375C57.75 55.713 57.162 55.125 56.4375 55.125Z" fill="#501C1C"/>
    <path d="M17.0625 58.4063V63.6563C17.0625 64.3815 17.6505 64.9688 18.375 64.9688H28.2188C28.9432 64.9688 29.5312 64.3815 29.5312 63.6563V58.4063C29.528 58.4201 17.075 58.4043 17.0625 58.4063ZM54.4688 58.4063V63.6563C54.4688 64.3815 55.0568 64.9688 55.7812 64.9688H65.625C66.3495 64.9688 66.9375 64.3815 66.9375 63.6563V58.4063C66.925 58.4043 54.4727 58.4201 54.4688 58.4063Z" fill="#5F2323"/>
    <path d="M18.9768 64.9688H20.9455V58.4062H18.9768V64.9688ZM22.258 64.9688H24.2268V58.4062H22.258V64.9688ZM25.6482 64.9688H27.5074V58.4062H25.6482V64.9688ZM63.0551 58.4062V64.9688H65.0239V58.4062H63.0551ZM59.7739 64.9688H61.7426V58.4062H59.7739V64.9688ZM56.4926 64.9688H58.3518V58.4062H56.4926V64.9688Z" fill="#511B1B"/>
    <path d="M63.6562 21C63.6562 19.9132 62.7743 19.0312 61.6875 19.0312H22.3125C21.2251 19.0312 20.3438 19.9132 20.3438 21V36.0938H63.6562V21ZM67.5938 40.0312H16.4062C15.6817 40.0312 15.0938 40.6192 15.0938 41.3438V54.4688H68.9062V41.3438C68.9062 40.6192 68.3182 40.0312 67.5938 40.0312Z" fill="#C03A2B"/>
    <path d="M24.2812 21.6562H59.7188C60.4432 21.6562 61.0312 22.2442 61.0312 22.9688V35.4375C61.0312 36.1627 60.4432 36.75 59.7188 36.75H24.2812C23.5567 36.75 22.9688 36.1627 22.9688 35.4375V22.9688C22.9688 22.2442 23.5567 21.6562 24.2812 21.6562Z" fill="white"/>
    <path d="M22.9688 34.125H61.0312V36.0938H22.9688V34.125Z" fill="#DADADA"/>
    <path d="M63.6562 36.0938H20.3438L15.0938 40.6875H68.9062L63.6562 36.0938Z" fill="#E74C3C"/>
    <path d="M13.7812 54.4688H70.2188C70.9432 54.4688 71.5312 55.0567 71.5312 55.7812V57.0938C71.5312 57.8182 70.9432 58.4062 70.2188 58.4062H13.7812C13.0567 58.4062 12.4688 57.8182 12.4688 57.0938V55.7812C12.4688 55.0567 13.0567 54.4688 13.7812 54.4688Z" fill="#BDC3C6"/>
    <path d="M27.5625 43.3125H18.375C17.6505 43.3125 17.0625 43.9005 17.0625 44.625V50.5312C17.0625 51.2558 17.6505 51.8438 18.375 51.8438H27.5625C28.287 51.8438 28.875 51.2558 28.875 50.5312V44.625C28.875 43.9005 28.287 43.3125 27.5625 43.3125ZM64.9688 43.3125H55.7812C55.0568 43.3125 54.4688 43.9005 54.4688 44.625V50.5312C54.4688 51.2558 55.0568 51.8438 55.7812 51.8438H64.9688C65.6932 51.8438 66.2812 51.2558 66.2812 50.5312V44.625C66.2812 43.9005 65.6932 43.3125 64.9688 43.3125Z" fill="white"/>
    <path d="M25.5938 45.2812H20.3438C19.6192 45.2812 19.0312 45.8692 19.0312 46.5938V48.5625C19.0312 49.2877 19.6192 49.875 20.3438 49.875H25.5938C26.3183 49.875 26.9062 49.2877 26.9062 48.5625V46.5938C26.9062 45.8692 26.3183 45.2812 25.5938 45.2812ZM63 45.2812H57.75C57.0255 45.2812 56.4375 45.8692 56.4375 46.5938V48.5625C56.4375 49.2877 57.0255 49.875 57.75 49.875H63C63.7245 49.875 64.3125 49.2877 64.3125 48.5625V46.5938C64.3125 45.8692 63.7245 45.2812 63 45.2812Z" fill="#F39D12"/>
    <path d="M51.5156 46.5938H31.8281C31.2841 46.5938 30.8438 47.0347 30.8438 47.5781C30.8438 48.1215 31.2841 48.5625 31.8281 48.5625H51.5156C52.059 48.5625 52.5 48.1215 52.5 47.5781C52.5 47.0347 52.059 46.5938 51.5156 46.5938ZM51.5156 49.875H31.8281C31.2841 49.875 30.8438 50.316 30.8438 50.8594C30.8438 51.4028 31.2841 51.8438 31.8281 51.8438H51.5156C52.059 51.8438 52.5 51.4028 52.5 50.8594C52.5 50.316 52.059 49.875 51.5156 49.875ZM31.8281 45.2812H51.5156C52.059 45.2812 52.5 44.8403 52.5 44.2969C52.5 43.7535 52.059 43.3125 51.5156 43.3125H31.8281C31.2841 43.3125 30.8438 43.7535 30.8438 44.2969C30.8438 44.8403 31.2841 45.2812 31.8281 45.2812Z" fill="#ECF0F1"/>
    <path d="M42 21.6562H24.2812C23.5567 21.6562 22.9688 22.2442 22.9688 22.9688V34.125H42V21.6562Z" fill="#F0F0F0"/>
    <path d="M29.5312 58.4062H17.0625V59.9379H29.5312V58.4062Z" fill="#542020"/>
    <path d="M27.5074 58.4062H25.6482V59.9379H27.5074V58.4062Z" fill="#481818"/>
    <path d="M24.2268 58.4062H22.258V59.9379H24.2268V58.4062Z" fill="#481818"/>
    <path d="M20.9455 58.4062H18.9768V59.9379H20.9455V58.4062Z" fill="#481818"/>
    <path d="M66.9375 58.4062H54.4688V59.9379H66.9375V58.4062Z" fill="#542020"/>
    <path d="M65.0239 58.4062H63.0551V59.9379H65.0239V58.4062Z" fill="#481818"/>
    <path d="M58.3518 58.4062H56.4926V59.9379H58.3518V58.4062Z" fill="#481818"/>
    <path d="M61.7426 58.4062H59.7739V59.9379H61.7426V58.4062Z" fill="#481818"/>
  </g>
  <defs>
    <clipPath id="clip0_8501_264">
      <rect width="84" height="84" fill="white"/>
    </clipPath>
  </defs>
</svg>