<svg xmlns="http://www.w3.org/2000/svg" width="84" height="84" viewBox="0 0 84 84" fill="none">
  <g clip-path="url(#clip0_8501_317)">
    <path d="M42 0C65.1958 0 84 18.8042 84 42C84 65.1965 65.1958 84 42 84C18.8042 84 0 65.1965 0 42C0 18.8042 18.8042 0 42 0Z" fill="#19191C"/>
    <path d="M58.4062 20.3438H25.5938C23.7818 20.3438 22.3125 21.8124 22.3125 23.625V64.3125C22.3125 65.3999 23.1938 66.2812 24.2812 66.2812H59.7188C60.8055 66.2812 61.6875 65.3999 61.6875 64.3125V23.625C61.6875 21.8124 60.2188 20.3438 58.4062 20.3438Z" fill="#5D3333"/>
    <path d="M58.4062 20.3438H25.5938C23.7818 20.3438 22.3125 21.8124 22.3125 23.625V26.9062H28.875V33.4688H22.3125V40.0312H28.875V46.5938H22.3125V53.1562H28.875V59.7188H22.3125V64.3125C22.3125 65.3999 23.1938 66.2812 24.2812 66.2812H59.7188C60.8055 66.2812 61.6875 65.3999 61.6875 64.3125V59.7188H55.125V53.1562H61.6875V46.5938H55.125V40.0312H61.6875V33.4688H55.125V26.9062H61.6875V23.625C61.6875 21.8124 60.2188 20.3438 58.4062 20.3438ZM48.5625 59.7188H35.4375V53.1562H48.5625V59.7188ZM48.5625 46.5938H35.4375V40.0312H48.5625V46.5938ZM48.5625 33.4688H35.4375V26.9062H48.5625V33.4688Z" fill="#8D3535"/>
    <path d="M41.3438 23.625H42.6562V66.2812H41.3438V23.625Z" fill="#4E2A2A"/>
    <path d="M35.4375 33.4688H28.875V40.0312H35.4375V33.4688Z" fill="#AA3434"/>
    <path d="M55.125 46.5938H48.5625V53.1562H55.125V46.5938Z" fill="#AA3434"/>
    <path d="M35.4375 46.5938H28.875V53.1562H35.4375V46.5938Z" fill="#AA3434"/>
    <path d="M55.125 20.3438H48.5625V26.9062H55.125V20.3438Z" fill="#AA3434"/>
    <path d="M55.125 59.7188H48.5625V66.2812H55.125V59.7188Z" fill="#AA3434"/>
    <path d="M35.4375 59.7188H28.875V66.2812H35.4375V59.7188Z" fill="#AA3434"/>
    <path d="M35.4375 20.3438H28.875V26.9062H35.4375V20.3438Z" fill="#AA3434"/>
    <path d="M55.125 33.4688H48.5625V40.0312H55.125V33.4688Z" fill="#AA3434"/>
    <path d="M42.6562 33.4688H41.3438V40.0312H42.6562V33.4688Z" fill="#782D2D"/>
    <path d="M42.6562 23.625H41.3438V26.9062H42.6562V23.625Z" fill="#782D2D"/>
    <path d="M42.6562 59.7188H41.3438V66.2812H42.6562V59.7188Z" fill="#782D2D"/>
    <path d="M42.6562 46.5938H41.3438V53.1562H42.6562V46.5938Z" fill="#782D2D"/>
    <path d="M42.3281 31.5C42.8715 31.5 43.3125 31.059 43.3125 30.5156C43.3125 29.9722 42.8715 29.5312 42.3281 29.5312C41.7841 29.5312 41.3438 29.9722 41.3438 30.5156C41.3438 31.059 41.7841 31.5 42.3281 31.5ZM42.3281 36.0938C41.7841 36.0938 41.3438 36.5347 41.3438 37.0781C41.3438 37.6215 41.7841 38.0625 42.3281 38.0625C42.8715 38.0625 43.3125 37.6215 43.3125 37.0781C43.3125 36.5347 42.8715 36.0938 42.3281 36.0938ZM42.3281 42.6562C41.7841 42.6562 41.3438 43.0972 41.3438 43.6406C41.3438 44.184 41.7841 44.625 42.3281 44.625C42.8715 44.625 43.3125 44.184 43.3125 43.6406C43.3125 43.0972 42.8715 42.6562 42.3281 42.6562ZM42.3281 49.2188C41.7841 49.2188 41.3438 49.6597 41.3438 50.2031C41.3438 50.7465 41.7841 51.1875 42.3281 51.1875C42.8715 51.1875 43.3125 50.7465 43.3125 50.2031C43.3125 49.6597 42.8715 49.2188 42.3281 49.2188ZM42.3281 55.7812C41.7841 55.7812 41.3438 56.2222 41.3438 56.7656C41.3438 57.309 41.7841 57.75 42.3281 57.75C42.8715 57.75 43.3125 57.309 43.3125 56.7656C43.3125 56.2222 42.8715 55.7812 42.3281 55.7812ZM42.3281 62.3438C41.7841 62.3438 41.3438 62.7848 41.3438 63.3281C41.3438 63.8722 41.7841 64.3125 42.3281 64.3125C42.8715 64.3125 43.3125 63.8722 43.3125 63.3281C43.3125 62.7848 42.8715 62.3438 42.3281 62.3438Z" fill="#EBEEEE"/>
    <path d="M42.3281 31.5C42.8715 31.5 43.3125 31.059 43.3125 30.5156C43.3125 29.9722 42.8715 29.5312 42.3281 29.5312C41.7841 29.5312 41.3438 29.9722 41.3438 30.5156C41.3438 31.059 41.7841 31.5 42.3281 31.5ZM42.3281 36.0938C41.7841 36.0938 41.3438 36.5347 41.3438 37.0781C41.3438 37.6215 41.7841 38.0625 42.3281 38.0625C42.8715 38.0625 43.3125 37.6215 43.3125 37.0781C43.3125 36.5347 42.8715 36.0938 42.3281 36.0938ZM42.3281 42.6562C41.7841 42.6562 41.3438 43.0972 41.3438 43.6406C41.3438 44.184 41.7841 44.625 42.3281 44.625C42.8715 44.625 43.3125 44.184 43.3125 43.6406C43.3125 43.0972 42.8715 42.6562 42.3281 42.6562ZM42.3281 49.2188C41.7841 49.2188 41.3438 49.6597 41.3438 50.2031C41.3438 50.7465 41.7841 51.1875 42.3281 51.1875C42.8715 51.1875 43.3125 50.7465 43.3125 50.2031C43.3125 49.6597 42.8715 49.2188 42.3281 49.2188ZM42.3281 55.7812C41.7841 55.7812 41.3438 56.2222 41.3438 56.7656C41.3438 57.309 41.7841 57.75 42.3281 57.75C42.8715 57.75 43.3125 57.309 43.3125 56.7656C43.3125 56.2222 42.8715 55.7812 42.3281 55.7812ZM42.3281 62.3438C41.7841 62.3438 41.3438 62.7848 41.3438 63.3281C41.3438 63.8722 41.7841 64.3125 42.3281 64.3125C42.8715 64.3125 43.3125 63.8722 43.3125 63.3281C43.3125 62.7848 42.8715 62.3438 42.3281 62.3438Z" fill="#EBEEEE"/>
    <path d="M51.8438 15.75L44.625 21.6562L49.875 26.9062L56.4375 20.3438L51.8438 15.75ZM27.5625 20.3438L34.125 26.9062L39.375 21.6562L32.1562 15.75L27.5625 20.3438Z" fill="#D52C2C"/>
    <path d="M32.1562 15.75H51.8438L42 25.5938L32.1562 15.75Z" fill="#663B3B"/>
    <path d="M47.25 20.3438L51.8438 15.75H32.1562L36.75 20.3438H47.25Z" fill="#5B3535"/>
  </g>
  <defs>
    <clipPath id="clip0_8501_317">
      <rect width="84" height="84" fill="white"/>
    </clipPath>
  </defs>
</svg>