<svg width="84" height="84" viewBox="0 0 84 84" fill="none" xmlns="http://www.w3.org/2000/svg">
<g clip-path="url(#clip0_8501_148)">
<path d="M42 0C65.1965 0 84 18.8042 84 42C84 65.1965 65.1965 84 42 84C18.8042 84 0 65.1965 0 42C0 18.8042 18.8042 0 42 0Z" fill="#19191C"/>
<path d="M64.0724 34.119L55.6969 25.7434L52.977 28.4633C51.4127 27.2623 49.5183 26.5687 47.5483 26.4757C45.5783 26.3827 43.627 26.8948 41.9565 27.9431C41.5401 28.133 41.1609 28.3957 40.8369 28.7189L32.6905 36.8653C32.6052 36.9475 32.5373 37.0461 32.491 37.1552C32.4446 37.2642 32.4207 37.3815 32.4207 37.5C32.4207 37.6186 32.4446 37.7359 32.491 37.8449C32.5373 37.954 32.6052 38.0526 32.6905 38.1348L33.3914 38.8357C34.1484 39.5911 35.1741 40.0153 36.2435 40.0153C37.3129 40.0153 38.3386 39.5911 39.0956 38.8357L42.3974 35.5164L44.1606 37.2796L52.5362 45.6552L55.4015 48.5205L57.6717 46.2503C58.745 45.1784 59.541 43.8612 59.9911 42.4127C60.4412 40.9642 60.5317 39.4278 60.2549 37.9365L64.0724 34.119Z" fill="#E45656"/>
<path d="M62.7499 32.7965L55.6968 25.7434L53.55 27.8902C53.3967 28.0442 53.1947 28.1402 52.9784 28.1619C52.7622 28.1836 52.5451 28.1297 52.3642 28.0092C50.8145 27.003 49.0089 26.462 47.1612 26.4503C45.3136 26.4386 43.5012 26.9566 41.9389 27.9431C41.5224 28.133 41.1432 28.3957 40.8192 28.7189L32.6729 36.8653C32.5875 36.9475 32.5197 37.0461 32.4733 37.1552C32.4269 37.2642 32.403 37.3815 32.403 37.5C32.403 37.6186 32.4269 37.7359 32.4733 37.8449C32.5197 37.954 32.5875 38.0526 32.6729 38.1348L33.3738 38.8357C34.1308 39.5911 35.1565 40.0153 36.2259 40.0153C37.2952 40.0153 38.321 39.5911 39.078 38.8357L44.1606 34.1939L55.9084 45.8095C56.9817 44.7376 57.7777 43.4204 58.2278 41.9719C58.6779 40.5234 58.7684 38.987 58.4916 37.4956L62.7499 32.7965Z" fill="#EA3838"/>
<path d="M52.0027 52.2982C52.2094 52.5049 52.4547 52.6688 52.7248 52.7807C52.9948 52.8925 53.2842 52.9501 53.5765 52.9501C53.8687 52.9501 54.1581 52.8925 54.4281 52.7807C54.6982 52.6688 54.9435 52.5049 55.1502 52.2982C55.3568 52.0916 55.5208 51.8462 55.6326 51.5762C55.7445 51.3062 55.802 51.0168 55.802 50.7245C55.802 50.4322 55.7445 50.1428 55.6326 49.8728C55.5208 49.6028 55.3568 49.3575 55.1502 49.1508L47.2683 41.2689L47.6871 40.3873L42.3973 35.5383L39.6201 38.3155C38.7199 39.2156 37.4989 39.7213 36.2258 39.7213C34.9527 39.7213 33.7318 39.2156 32.8315 38.3155L32.2584 37.7204L41.9565 28.0223C41.6214 27.6873 41.7228 27.6873 41.3173 27.5022C39.7864 26.5355 38.0147 26.0184 36.2041 26.0099C34.3936 26.0013 32.6171 26.5016 31.0771 27.4537C30.8419 27.6023 30.5636 27.6675 30.2869 27.6387C30.0102 27.6099 29.7513 27.4888 29.5518 27.295L27.5593 25.3025L19.1837 33.6781L23.0012 37.4955C22.756 38.8201 22.8004 40.182 23.1314 41.4878C23.4624 42.7936 24.0722 44.0122 24.9188 45.06L24.2311 45.7477C24.0405 45.9381 23.8893 46.1641 23.7862 46.413C23.683 46.6618 23.6299 46.9286 23.6299 47.198C23.6299 47.4674 23.683 47.7341 23.7862 47.983C23.8893 48.2318 24.0405 48.4579 24.2311 48.6483L24.4163 48.8334C24.6066 49.024 24.8327 49.1752 25.0816 49.2784C25.3304 49.3815 25.5972 49.4346 25.8666 49.4346C26.136 49.4346 26.4027 49.3815 26.6516 49.2784C26.9004 49.1752 27.1265 49.024 27.3169 48.8334L27.9428 48.2074L28.4542 48.7276C28.2652 48.8195 28.0925 48.9416 27.9428 49.0891L27.3169 49.7151C27.1263 49.9054 26.9751 50.1315 26.8719 50.3803C26.7687 50.6292 26.7156 50.8959 26.7156 51.1653C26.7156 51.4347 26.7687 51.7015 26.8719 51.9503C26.9751 52.1992 27.1263 52.4252 27.3169 52.6156L27.502 52.8008C27.6924 52.9914 27.9185 53.1426 28.1673 53.2457C28.4162 53.3489 28.6829 53.402 28.9523 53.402C29.2217 53.402 29.4884 53.3489 29.7373 53.2457C29.9861 53.1426 30.2122 52.9914 30.4026 52.8008L31.0286 52.1748C31.1259 52.0782 31.2131 51.9719 31.2886 51.8574L31.6325 52.2057C31.4078 52.3043 31.2032 52.4433 31.0286 52.6156L30.4026 53.2416C30.212 53.432 30.0608 53.658 29.9576 53.9069C29.8545 54.1557 29.8014 54.4225 29.8014 54.6919C29.8014 54.9613 29.8545 55.228 29.9576 55.4769C30.0608 55.7257 30.212 55.9518 30.4026 56.1422L30.5877 56.3273C30.7781 56.5179 31.0042 56.6691 31.253 56.7723C31.5019 56.8755 31.7686 56.9286 32.038 56.9286C32.3074 56.9286 32.5742 56.8755 32.823 56.7723C33.0719 56.6691 33.2979 56.5179 33.4883 56.3273L34.1143 55.7014C34.2867 55.5268 34.4256 55.3221 34.5243 55.0974L34.8725 55.4413C34.758 55.5168 34.6517 55.604 34.5551 55.7014L33.9291 56.3273C33.7385 56.5177 33.5873 56.7438 33.4842 56.9926C33.381 57.2415 33.3279 57.5082 33.3279 57.7776C33.3279 58.047 33.381 58.3138 33.4842 58.5626C33.5873 58.8115 33.7385 59.0375 33.9291 59.2279L34.1143 59.4131C34.3047 59.6037 34.5307 59.7549 34.7796 59.858C35.0284 59.9612 35.2952 60.0143 35.5646 60.0143C35.834 60.0143 36.1007 59.9612 36.3496 59.858C36.5984 59.7549 36.8245 59.6037 37.0149 59.4131L37.6408 58.7871C37.7382 58.6905 37.8254 58.5842 37.9009 58.4697L38.3417 58.9105C38.4843 59.0485 38.6443 59.1671 38.8178 59.2632L38.8751 59.3205C39.3447 59.5972 39.9002 59.6902 40.4343 59.5813C40.9683 59.4725 41.4432 59.1697 41.767 58.7313C42.0909 58.2929 42.2408 57.75 42.1879 57.2076C42.135 56.6651 41.8829 56.1615 41.4804 55.7939L40.8236 55.1371L41.066 54.6214L44.0636 57.6189C44.481 58.0363 45.047 58.2708 45.6373 58.2708C46.2276 58.2708 46.7936 58.0363 47.211 57.6189C47.6284 57.2016 47.8629 56.6355 47.8629 56.0452C47.8629 55.4549 47.6284 54.8889 47.211 54.4715L43.0629 50.3234L43.1643 50.1074L49.7766 56.7196C50.194 57.137 50.7601 57.3715 51.3503 57.3715C51.9406 57.3715 52.5067 57.137 52.924 56.7196C53.3414 56.3023 53.5759 55.7362 53.5759 55.1459C53.5759 54.5557 53.3414 53.9896 52.924 53.5722L45.148 45.7962L45.245 45.5758L52.0027 52.2982Z" fill="#EA3838"/>
<path d="M54.8108 52.1969L53.5677 53.44L42.5472 42.4195C42.8777 42.0897 43.3256 41.9045 43.7925 41.9045C44.2594 41.9045 44.7073 42.0897 45.0378 42.4195L54.8108 52.1969Z" fill="#E45656"/>
<path d="M52.8271 56.8254L51.584 58.0685L39.9023 46.3868C40.2328 46.057 40.6807 45.8718 41.1476 45.8718C41.6145 45.8718 42.0623 46.057 42.3929 46.3868L52.8271 56.8254Z" fill="#E45656"/>
<path d="M47.0964 57.7071L45.8533 58.9501L36.1553 49.2521C36.4859 48.9224 36.9337 48.7372 37.4006 48.7372C37.8675 48.7372 38.3154 48.9224 38.6459 49.2521L47.0964 57.7071Z" fill="#E45656"/>
<path d="M38.69 54.2908C38.3913 53.9914 38.0273 53.7652 37.6266 53.6298C37.2258 53.4944 36.7992 53.4536 36.3801 53.5106C36.4433 53.0416 36.3841 52.5643 36.2085 52.1249C36.0329 51.6855 35.7467 51.2989 35.3777 51.0027C35.0088 50.7064 34.5695 50.5106 34.1025 50.434C33.6356 50.3575 33.1567 50.4029 32.7125 50.5659C32.8787 50.1138 32.9231 49.6258 32.8411 49.1511C32.7592 48.6765 32.5538 48.2317 32.2457 47.8614C31.9375 47.4912 31.5374 47.2085 31.0854 47.0418C30.6335 46.875 30.1456 46.8301 29.6709 46.9115C29.8524 46.3246 29.8322 45.6938 29.6136 45.1197C29.395 44.5456 28.9905 44.0612 28.4646 43.7437C27.9386 43.4262 27.3216 43.2939 26.7117 43.3679C26.1019 43.4419 25.5343 43.7179 25.0996 44.152L24.0328 45.2143C24.2355 45.1663 24.442 45.1353 24.6499 45.1218C25.1234 44.8102 25.6816 44.6526 26.2481 44.6704C26.8146 44.6882 27.3618 44.8805 27.8148 45.2211C28.2678 45.5618 28.6046 46.034 28.779 46.5733C28.9534 47.1126 28.957 47.6926 28.7892 48.2339C29.264 48.1526 29.7518 48.1975 30.2038 48.3642C30.6557 48.531 31.0559 48.8136 31.364 49.1839C31.6722 49.5541 31.8776 49.9989 31.9595 50.4736C32.0414 50.9483 31.9971 51.4362 31.8309 51.8883C32.2751 51.7254 32.7539 51.68 33.2209 51.7565C33.6878 51.833 34.1271 52.0289 34.4961 52.3251C34.8651 52.6214 35.1513 53.0079 35.3269 53.4473C35.5025 53.8867 35.5616 54.3641 35.4985 54.833C35.9573 54.7712 36.4243 54.8263 36.8561 54.9933C37.2879 55.1604 37.6705 55.4338 37.9683 55.7883C38.2661 56.1429 38.4694 56.5669 38.5593 57.0211C38.6493 57.4752 38.623 57.9448 38.4828 58.386L38.69 58.1788C39.2042 57.6625 39.4928 56.9635 39.4928 56.2348C39.4928 55.5061 39.2042 54.8072 38.69 54.2908Z" fill="#E45656"/>
<path d="M39.8361 38.937C39.3608 39.413 38.7963 39.7906 38.1749 40.0482C37.5535 40.3058 36.8874 40.4384 36.2148 40.4384C35.5421 40.4384 34.876 40.3058 34.2547 40.0482C33.6333 39.7906 33.0688 39.413 32.5934 38.937L34.3567 40.7003C34.8321 41.1763 35.3966 41.5539 36.0179 41.8115C36.6393 42.0691 37.3054 42.2017 37.9781 42.2017C38.6507 42.2017 39.3168 42.0691 39.9382 41.8115C40.5596 41.5539 41.1241 41.1763 41.5994 40.7003L45.483 36.8387L43.7197 35.0754L39.8361 38.937Z" fill="#E45656"/>
<path d="M58.1701 21.1935L54.7414 24.6223L65.037 34.918L68.4658 31.4892L58.1701 21.1935Z" fill="white"/>
<path d="M67.1461 30.1667L63.7173 33.5955L65.039 34.9171L68.4677 31.4883L67.1461 30.1667Z" fill="white"/>
<path d="M15.0969 31.5153L18.055 34.4734L28.3507 24.1777L25.3926 21.2197L15.0969 31.5153Z" fill="white"/>
<path d="M15.0974 31.5163L18.0555 34.4744L19.5984 32.9314L16.6403 29.9733L15.0974 31.5163Z" fill="white"/>
<path d="M51.6104 58.3419C51.21 58.3448 50.813 58.2684 50.4422 58.1171C50.0715 57.9658 49.7344 57.7426 49.4504 57.4603L47.1669 55.1768C47.1051 55.1157 47.056 55.043 47.0225 54.9628C46.989 54.8826 46.9717 54.7965 46.9717 54.7096C46.9717 54.6226 46.989 54.5366 47.0225 54.4563C47.056 54.3761 47.1051 54.3034 47.1669 54.2423C47.2915 54.1195 47.4593 54.0507 47.6342 54.0507C47.8091 54.0507 47.9769 54.1195 48.1015 54.2423L50.3849 56.5257C50.7137 56.8435 51.1531 57.0212 51.6104 57.0212C52.0677 57.0212 52.5071 56.8435 52.8359 56.5257C52.9974 56.3651 53.1256 56.1742 53.2131 55.9639C53.3006 55.7536 53.3456 55.528 53.3456 55.3003C53.3456 55.0725 53.3006 54.847 53.2131 54.6366C53.1256 54.4263 52.9974 54.2354 52.8359 54.0748L51.1211 52.36C50.9966 52.2361 50.9264 52.0678 50.926 51.8921C50.9256 51.7164 50.995 51.5478 51.1189 51.4233C51.2428 51.2988 51.4111 51.2286 51.5868 51.2282C51.7625 51.2277 51.9311 51.2971 52.0556 51.4211L53.7704 53.1402C54.1976 53.5675 54.4885 54.1118 54.6064 54.7043C54.7242 55.2969 54.6637 55.9111 54.4325 56.4693C54.2013 57.0275 53.8098 57.5045 53.3075 57.8402C52.8051 58.1759 52.2146 58.3551 51.6104 58.3551V58.3419Z" fill="#252D32"/>
<path d="M53.528 53.5501C53.1275 53.5535 52.7303 53.4773 52.3595 53.3259C51.9887 53.1746 51.6517 52.9511 51.368 52.6684L42.0534 43.3583C41.9295 43.2338 41.8601 43.0652 41.8605 42.8895C41.8609 42.7138 41.9311 42.5455 42.0556 42.4216C42.1802 42.2977 42.3488 42.2283 42.5245 42.2287C42.7001 42.2291 42.8685 42.2993 42.9924 42.4238L52.3025 51.7339C52.6293 52.0571 53.0711 52.2374 53.5307 52.2349C53.9903 52.2324 54.4302 52.0474 54.7534 51.7207C55.0767 51.3939 55.2569 50.9521 55.2544 50.4925C55.252 50.0328 55.067 49.593 54.7402 49.2697L44.1606 38.6901C44.0378 38.5655 43.969 38.3977 43.969 38.2228C43.969 38.0479 44.0378 37.8801 44.1606 37.7555C44.2216 37.6937 44.2944 37.6446 44.3746 37.6111C44.4548 37.5776 44.5409 37.5603 44.6278 37.5603C44.7148 37.5603 44.8008 37.5776 44.881 37.6111C44.9612 37.6446 45.034 37.6937 45.0951 37.7555L55.6747 48.3352C56.1019 48.7624 56.3929 49.3067 56.5107 49.8993C56.6286 50.4918 56.5681 51.106 56.3369 51.6642C56.1057 52.2224 55.7142 52.6995 55.2118 53.0352C54.7095 53.3708 54.1189 53.55 53.5147 53.5501H53.528Z" fill="#252D32"/>
<path d="M65.439 35.7895C65.2637 35.7894 65.0956 35.7196 64.9717 35.5956L54.1893 24.8176C54.1274 24.7565 54.0783 24.6837 54.0448 24.6035C54.0113 24.5233 53.994 24.4372 53.994 24.3503C53.994 24.2634 54.0113 24.1773 54.0448 24.0971C54.0783 24.0169 54.1274 23.9441 54.1893 23.883L57.4646 20.6077C57.5912 20.489 57.7583 20.423 57.9318 20.423C58.1054 20.423 58.2725 20.489 58.3991 20.6077L69.1771 31.3858C69.239 31.4469 69.2881 31.5196 69.3216 31.5998C69.3551 31.68 69.3723 31.7661 69.3723 31.853C69.3723 31.94 69.3551 32.026 69.3216 32.1062C69.2881 32.1865 69.239 32.2592 69.1771 32.3203L65.9062 35.5956C65.7818 35.7188 65.6141 35.7884 65.439 35.7895ZM55.5911 24.3282L65.439 34.1938L67.7753 31.853L57.9318 22.0095L55.5911 24.3282Z" fill="#252D32"/>
<path d="M45.8621 59.3203C45.4617 59.323 45.0648 59.2465 44.6941 59.0952C44.3234 58.9439 43.9863 58.7208 43.7021 58.4387L35.3265 50.0631C35.2616 50.0026 35.2095 49.9296 35.1733 49.8485C35.1372 49.7674 35.1178 49.6798 35.1162 49.591C35.1146 49.5023 35.131 49.4141 35.1642 49.3317C35.1975 49.2494 35.247 49.1746 35.3098 49.1118C35.3725 49.049 35.4473 48.9995 35.5297 48.9663C35.612 48.933 35.7002 48.9167 35.789 48.9183C35.8778 48.9198 35.9653 48.9392 36.0464 48.9754C36.1275 49.0115 36.2005 49.0636 36.2611 49.1286L44.6366 57.5042C44.7976 57.6651 44.9886 57.7928 45.1989 57.8799C45.4092 57.9669 45.6345 58.0118 45.8621 58.0118C46.0897 58.0118 46.3151 57.9669 46.5253 57.8799C46.7356 57.7928 46.9267 57.6651 47.0876 57.5042C47.2485 57.3432 47.3762 57.1522 47.4633 56.9419C47.5504 56.7317 47.5952 56.5063 47.5952 56.2787C47.5952 56.0511 47.5504 55.8257 47.4633 55.6155C47.3762 55.4052 47.2485 55.2142 47.0876 55.0532L39.532 47.4579C39.4701 47.3968 39.421 47.324 39.3875 47.2438C39.354 47.1636 39.3367 47.0776 39.3367 46.9906C39.3367 46.9037 39.354 46.8177 39.3875 46.7374C39.421 46.6572 39.4701 46.5844 39.532 46.5234C39.6565 46.4006 39.8243 46.3318 39.9992 46.3318C40.1741 46.3318 40.3419 46.4006 40.4665 46.5234L48.0221 54.0834C48.4493 54.5106 48.7402 55.0549 48.8581 55.6475C48.9759 56.2401 48.9154 56.8543 48.6842 57.4125C48.453 57.9706 48.0615 58.4477 47.5592 58.7834C47.0569 59.1191 46.4663 59.2983 45.8621 59.2983V59.3203Z" fill="#252D32"/>
<path d="M40.1139 60.2595C39.3041 60.2641 38.5256 59.947 37.9495 59.3779C37.8267 59.2533 37.7579 59.0855 37.7579 58.9106C37.7579 58.7357 37.8267 58.5679 37.9495 58.4433C38.0105 58.3815 38.0833 58.3324 38.1635 58.2989C38.2437 58.2654 38.3298 58.2481 38.4167 58.2481C38.5037 58.2481 38.5897 58.2654 38.6699 58.2989C38.7501 58.3324 38.8229 58.3815 38.884 58.4433C39.1816 58.7368 39.5749 58.9131 39.992 58.9399C40.409 58.9667 40.8218 58.8423 41.1545 58.5894C41.4872 58.3365 41.7176 57.9721 41.8034 57.5631C41.8891 57.1541 41.8246 56.7279 41.6215 56.3626C41.5786 56.2871 41.5511 56.2039 41.5404 56.1177C41.5298 56.0315 41.5362 55.9441 41.5593 55.8603C41.5824 55.7766 41.6218 55.6983 41.6752 55.6298C41.7286 55.5613 41.795 55.504 41.8705 55.4612C41.9461 55.4183 42.0293 55.3908 42.1155 55.3801C42.2017 55.3695 42.2891 55.3759 42.3729 55.399C42.4566 55.4221 42.5349 55.4615 42.6034 55.5149C42.6719 55.5683 42.7292 55.6347 42.772 55.7102C43.0352 56.1741 43.1724 56.6987 43.1699 57.232C43.1674 57.7653 43.0254 58.2886 42.758 58.75C42.4905 59.2114 42.1069 59.5947 41.6454 59.8618C41.1838 60.1289 40.6604 60.2706 40.1271 60.2727L40.1139 60.2595Z" fill="#252D32"/>
<path d="M28.7848 54.2906C28.4114 54.291 28.0416 54.2176 27.6966 54.0746C27.3516 53.9316 27.0383 53.7219 26.7747 53.4574L26.5058 53.1886C25.9738 52.6548 25.6752 51.932 25.6752 51.1784C25.6752 50.4249 25.9738 49.702 26.5058 49.1683L27.2684 48.4057C27.8023 47.8724 28.5261 47.5729 29.2807 47.5729C30.0353 47.5729 30.7591 47.8724 31.2931 48.4057L31.5575 48.6745C32.0905 49.2077 32.39 49.9308 32.39 50.6847C32.39 51.4386 32.0905 52.1616 31.5575 52.6948L30.7949 53.4574C30.5313 53.7219 30.218 53.9316 29.873 54.0746C29.528 54.2176 29.1582 54.291 28.7848 54.2906ZM29.2829 48.895C29.0834 48.8936 28.8856 48.9319 28.7009 49.0075C28.5163 49.0832 28.3485 49.1948 28.2073 49.3358L27.4403 50.0984C27.156 50.3842 26.9965 50.7709 26.9965 51.174C26.9965 51.5771 27.156 51.9638 27.4403 52.2496L27.7092 52.5185C27.995 52.8028 28.3817 52.9623 28.7848 52.9623C29.1879 52.9623 29.5746 52.8028 29.8604 52.5185L30.623 51.7559C30.7643 51.6147 30.8764 51.447 30.9528 51.2624C31.0293 51.0779 31.0687 50.8801 31.0687 50.6803C31.0687 50.4805 31.0293 50.2827 30.9528 50.0981C30.8764 49.9136 30.7643 49.7459 30.623 49.6047L30.3541 49.3358C30.2136 49.1951 30.0465 49.0837 29.8627 49.008C29.6788 48.9324 29.4817 48.8939 29.2829 48.895Z" fill="#252D32"/>
<path d="M25.9108 50.4557C25.5344 50.4581 25.1613 50.3857 24.8132 50.2427C24.4651 50.0997 24.1489 49.8889 23.883 49.6225L23.6141 49.3536C23.0811 48.8204 22.7817 48.0974 22.7817 47.3435C22.7817 46.5896 23.0811 45.8665 23.6141 45.3333L24.3767 44.5663C24.9105 44.0344 25.6333 43.7357 26.3868 43.7357C27.1404 43.7357 27.8632 44.0344 28.397 44.5663L28.6659 44.8352C29.1989 45.3684 29.4983 46.0914 29.4983 46.8453C29.4983 47.5992 29.1989 48.3223 28.6659 48.8555L27.9209 49.6225C27.3875 50.1554 26.6647 50.455 25.9108 50.4557ZM26.4045 45.0644C26.205 45.0633 26.0072 45.1017 25.8226 45.1773C25.638 45.253 25.4702 45.3644 25.3289 45.5052L24.5663 46.2679C24.282 46.5537 24.1224 46.9404 24.1224 47.3435C24.1224 47.7466 24.282 48.1333 24.5663 48.4191L24.8352 48.688C25.121 48.9722 25.5077 49.1318 25.9108 49.1318C26.3139 49.1318 26.7006 48.9722 26.9863 48.688L27.749 47.9209C27.8903 47.7797 28.0023 47.612 28.0788 47.4275C28.1553 47.2429 28.1946 47.0451 28.1946 46.8453C28.1946 46.6456 28.1553 46.4478 28.0788 46.2632C28.0023 46.0787 27.8903 45.911 27.749 45.7697L27.4801 45.5052C27.3392 45.3638 27.1714 45.252 26.9867 45.1763C26.802 45.1006 26.6041 45.0626 26.4045 45.0644Z" fill="#252D32"/>
<path d="M32.1395 57.6453C31.766 57.6462 31.396 57.573 31.051 57.43C30.706 57.287 30.3927 57.077 30.1294 56.8122L29.8605 56.5433C29.3275 56.0101 29.028 55.2871 29.028 54.5331C29.028 53.7792 29.3275 53.0562 29.8605 52.523L30.6231 51.7604C31.1563 51.2274 31.8793 50.928 32.6332 50.928C33.3871 50.928 34.1102 51.2274 34.6433 51.7604L34.9122 52.0249C35.4455 52.5588 35.745 53.2826 35.745 54.0372C35.745 54.7919 35.4455 55.5156 34.9122 56.0496L34.1496 56.8122C33.886 57.0766 33.5727 57.2864 33.2277 57.4293C32.8827 57.5723 32.5129 57.6457 32.1395 57.6453ZM32.6332 52.2673C32.2304 52.266 31.8436 52.4246 31.5576 52.7082L30.795 53.4708C30.6537 53.612 30.5416 53.7797 30.4652 53.9642C30.3887 54.1488 30.3493 54.3466 30.3493 54.5464C30.3493 54.7461 30.3887 54.944 30.4652 55.1285C30.5416 55.3131 30.6537 55.4807 30.795 55.622L31.0639 55.8909C31.3497 56.1751 31.7364 56.3347 32.1395 56.3347C32.5426 56.3347 32.9293 56.1751 33.2151 55.8909L33.9777 55.1282C34.119 54.987 34.2311 54.8193 34.3075 54.6348C34.384 54.4502 34.4234 54.2524 34.4234 54.0526C34.4234 53.8529 34.384 53.6551 34.3075 53.4705C34.2311 53.286 34.119 53.1183 33.9777 52.977L33.7088 52.7082C33.5676 52.5671 33.3998 52.4556 33.2152 52.3799C33.0306 52.3042 32.8327 52.266 32.6332 52.2673Z" fill="#252D32"/>
<path d="M35.494 60.9999C35.1204 61.0018 34.7502 60.9291 34.405 60.786C34.0598 60.6429 33.7467 60.4324 33.4839 60.1668L33.215 59.8979C32.682 59.3647 32.3826 58.6417 32.3826 57.8878C32.3826 57.1339 32.682 56.4108 33.215 55.8776L33.9776 55.115C34.5108 54.582 35.2339 54.2826 35.9878 54.2826C36.7417 54.2826 37.4647 54.582 37.9979 55.115L38.2668 55.3795C38.7998 55.9127 39.0992 56.6357 39.0992 57.3896C39.0992 58.1435 38.7998 58.8666 38.2668 59.3998L37.5042 60.1668C37.2408 60.4316 36.9276 60.6416 36.5825 60.7846C36.2375 60.9276 35.8675 61.0008 35.494 60.9999ZM35.9878 55.6043C35.7883 55.6032 35.5905 55.6416 35.4059 55.7172C35.2213 55.7929 35.0535 55.9043 34.9122 56.0451L34.1495 56.8078C34.0083 56.949 33.8962 57.1167 33.8197 57.3012C33.7432 57.4858 33.7039 57.6836 33.7039 57.8834C33.7039 58.0831 33.7432 58.2809 33.8197 58.4655C33.8962 58.65 34.0083 58.8177 34.1495 58.959L34.4184 59.2278C34.7085 59.5038 35.0936 59.6578 35.494 59.6578C35.8944 59.6578 36.2795 59.5038 36.5696 59.2278L37.3323 58.4608C37.6165 58.175 37.7761 57.7883 37.7761 57.3852C37.7761 56.9821 37.6165 56.5954 37.3323 56.3096L37.0634 56.0451C36.9223 55.9039 36.7546 55.7922 36.5699 55.7165C36.3852 55.6409 36.1873 55.6027 35.9878 55.6043Z" fill="#252D32"/>
<path d="M36.0098 40.5989C35.2996 40.6006 34.5959 40.4621 33.9393 40.1913C33.2827 39.9205 32.686 39.5227 32.1835 39.0207C32.0056 38.8423 31.8645 38.6305 31.7685 38.3976C31.6724 38.1646 31.6232 37.915 31.6237 37.663C31.6226 37.4105 31.6719 37.1604 31.7688 36.9272C31.8657 36.6941 32.0082 36.4826 32.1879 36.3053L39.845 28.6659C41.5552 27.0271 43.7516 25.9884 46.1034 25.7062C48.4551 25.4239 50.8349 25.9134 52.8844 27.101L54.8857 25.0997C55.0096 24.9751 55.1779 24.905 55.3536 24.9045C55.5293 24.9041 55.6979 24.9735 55.8224 25.0975C55.947 25.2214 56.0171 25.3897 56.0175 25.5654C56.018 25.741 55.9486 25.9097 55.8246 26.0342L53.453 28.4058C53.3456 28.5126 53.2049 28.5796 53.0542 28.5956C52.9035 28.6117 52.7518 28.5758 52.6243 28.494C50.8103 27.3185 48.6527 26.7896 46.5007 26.9928C44.3487 27.196 42.3282 28.1194 40.7663 29.6136L33.1401 37.2398C33.0302 37.3533 32.9688 37.5051 32.9688 37.663C32.9688 37.821 33.0302 37.9727 33.1401 38.0862C33.9074 38.8491 34.9454 39.2773 36.0275 39.2773C37.1095 39.2773 38.1475 38.8491 38.9148 38.0862L43.2172 33.9205C43.2777 33.8524 43.3516 33.7976 43.4342 33.7594C43.5168 33.7212 43.6065 33.7005 43.6975 33.6986C43.7885 33.6967 43.8789 33.7136 43.9631 33.7482C44.0473 33.7828 44.1234 33.8345 44.1867 33.8999C44.25 33.9654 44.2991 34.0432 44.3309 34.1284C44.3628 34.2137 44.3767 34.3047 44.3717 34.3956C44.3668 34.4865 44.3431 34.5753 44.3023 34.6567C44.2614 34.738 44.2041 34.81 44.1341 34.8682L39.8185 39.0428C39.3171 39.5398 38.7227 39.9331 38.0691 40.2001C37.4156 40.4671 36.7158 40.6026 36.0098 40.5989Z" fill="#252D32"/>
<path d="M55.7365 49.3227C55.5615 49.3211 55.394 49.2516 55.2693 49.1287C55.1465 49.0042 55.0777 48.8363 55.0777 48.6615C55.0777 48.4866 55.1465 48.3187 55.2693 48.1942L57.1339 46.3339C58.1856 45.2854 58.9794 44.0071 59.4529 42.5995C59.9264 41.192 60.0667 39.6938 59.8626 38.2229C59.8481 38.1223 59.8572 38.0197 59.8894 37.9232C59.9215 37.8268 59.9758 37.7392 60.0477 37.6674L63.7286 33.9866C63.7891 33.9216 63.8621 33.8695 63.9432 33.8334C64.0243 33.7972 64.1119 33.7778 64.2007 33.7762C64.2895 33.7747 64.3777 33.791 64.46 33.8243C64.5423 33.8575 64.6171 33.907 64.6799 33.9698C64.7427 34.0326 64.7922 34.1074 64.8255 34.1897C64.8587 34.272 64.875 34.3602 64.8735 34.449C64.8719 34.5378 64.8525 34.6254 64.8163 34.7065C64.7802 34.7876 64.7281 34.8606 64.6631 34.9211L61.2115 38.3771C61.3873 40 61.1961 41.6416 60.6521 43.1806C60.1081 44.7196 59.2251 46.1166 58.0685 47.2685L56.2038 49.1287C56.1426 49.1903 56.0698 49.2392 55.9896 49.2725C55.9094 49.3058 55.8234 49.3228 55.7365 49.3227Z" fill="#252D32"/>
<path d="M17.9451 35.3135C17.7698 35.3133 17.6018 35.2435 17.4779 35.1195L14.2687 31.9059C14.2069 31.8448 14.1578 31.7721 14.1243 31.6919C14.0907 31.6117 14.0735 31.5256 14.0735 31.4387C14.0735 31.3517 14.0907 31.2657 14.1243 31.1855C14.1578 31.1053 14.2069 31.0325 14.2687 30.9714L25.0467 20.1934C25.1707 20.0695 25.3388 20 25.514 20C25.6892 20 25.8573 20.0695 25.9813 20.1934L29.1904 23.4025C29.2523 23.4636 29.3014 23.5364 29.3349 23.6166C29.3684 23.6968 29.3857 23.7829 29.3857 23.8698C29.3857 23.9567 29.3684 24.0428 29.3349 24.123C29.3014 24.2032 29.2523 24.276 29.1904 24.3371L18.4124 35.1195C18.2885 35.2435 18.1204 35.3133 17.9451 35.3135ZM15.6705 31.4387L17.9451 33.7177L27.7886 23.8698L25.514 21.5952L15.6705 31.4387Z" fill="#252D32"/>
<path d="M41.6039 28.1501C41.4754 28.1525 41.3493 28.1156 41.2424 28.0443C39.6838 27.0276 37.8643 26.4837 36.0034 26.4782C34.1425 26.4727 32.3198 27.0059 30.7553 28.0134C30.6287 28.0957 30.4776 28.1319 30.3275 28.1158C30.1773 28.0998 30.0373 28.0325 29.931 27.9253L27.5594 25.5581C27.4944 25.4975 27.4423 25.4246 27.4061 25.3434C27.37 25.2623 27.3506 25.1748 27.349 25.086C27.3474 24.9972 27.3638 24.909 27.397 24.8267C27.4303 24.7443 27.4798 24.6696 27.5426 24.6068C27.6054 24.544 27.6802 24.4945 27.7625 24.4612C27.8448 24.428 27.933 24.4116 28.0218 24.4132C28.1106 24.4148 28.1981 24.4342 28.2793 24.4703C28.3604 24.5065 28.4334 24.5586 28.4939 24.6235L30.4952 26.6249C32.2482 25.6137 34.247 25.1076 36.2701 25.1629C38.2931 25.2181 40.2613 25.8325 41.9565 26.9378C42.0746 27.0162 42.1644 27.1304 42.2127 27.2636C42.261 27.3968 42.2652 27.542 42.2247 27.6778C42.1842 27.8136 42.1011 27.9328 41.9878 28.0178C41.8744 28.1029 41.7367 28.1492 41.595 28.1501H41.6039Z" fill="#252D32"/>
<path d="M24.5971 45.5669C24.4901 45.5672 24.3848 45.5413 24.2902 45.4913C24.1957 45.4413 24.1148 45.3689 24.0549 45.2804C22.5615 43.1248 21.8934 40.504 22.1726 37.8966L18.7166 34.4406C18.5998 34.3153 18.5362 34.1495 18.5392 33.9782C18.5422 33.8069 18.6116 33.6434 18.7328 33.5223C18.8539 33.4011 19.0174 33.3317 19.1887 33.3287C19.36 33.3257 19.5257 33.3893 19.6511 33.5061L23.3319 37.1869C23.4039 37.2588 23.4584 37.3463 23.4912 37.4426C23.5241 37.5389 23.5344 37.6414 23.5215 37.7423C23.1936 40.1285 23.7725 42.5508 25.1437 44.531C25.2121 44.6304 25.2519 44.7466 25.259 44.867C25.266 44.9875 25.24 45.1075 25.1837 45.2142C25.1274 45.3209 25.043 45.4102 24.9396 45.4724C24.8362 45.5345 24.7177 45.5672 24.5971 45.5669Z" fill="#252D32"/>
</g>
<defs>
<clipPath id="clip0_8501_148">
<rect width="84" height="84" fill="white"/>
</clipPath>
</defs>
</svg>
