<svg width="84" height="84" viewBox="0 0 84 84" fill="none" xmlns="http://www.w3.org/2000/svg">
<g clip-path="url(#clip0_8501_194)">
<path d="M42 0C65.1965 0 84 18.8042 84 42C84 65.1965 65.1965 84 42 84C18.8042 84 0 65.1965 0 42C0 18.8042 18.8042 0 42 0Z" fill="#19191C"/>
<path d="M15.6359 51.7957V68.5819H22.3475V51.7957H15.6359ZM18.996 66.4847C18.7886 66.4847 18.5859 66.4232 18.4135 66.3079C18.2411 66.1927 18.1067 66.029 18.0273 65.8373C17.948 65.6457 17.9272 65.4349 17.9677 65.2315C18.0082 65.0281 18.108 64.8412 18.2546 64.6946C18.4012 64.5479 18.5881 64.4481 18.7914 64.4076C18.9948 64.3671 19.2056 64.3879 19.3972 64.4673C19.5888 64.5466 19.7525 64.681 19.8677 64.8535C19.9829 65.0259 20.0444 65.2287 20.0444 65.4361C20.0422 65.7135 19.931 65.9789 19.7348 66.175C19.5387 66.3712 19.2733 66.4824 18.996 66.4847Z" fill="#EA3838"/>
<path d="M20.5685 36.78L18.8928 36.6682C18.8326 37.6051 18.8154 38.5677 18.8498 39.5132C18.949 42.2997 19.4676 45.0553 20.3881 47.6871L21.9693 47.1284C21.1086 44.6565 20.6248 42.069 20.5342 39.453C20.517 38.5763 20.517 37.6395 20.5685 36.78Z" fill="white"/>
<path d="M19.3226 33.3417L20.9726 33.6511C21.9134 28.6514 24.3044 24.0391 27.8475 20.3889L26.6444 19.22C22.8689 23.105 20.3221 28.0169 19.3226 33.3417Z" fill="white"/>
<path d="M31.9207 15C30.9056 15.6325 29.9324 16.3302 29.0075 17.0886L30.0731 18.3865C30.9429 17.6738 31.8587 17.0192 32.8145 16.4268L31.9207 15Z" fill="white"/>
<path d="M64.4564 42.0915L69.3719 38.5331L64.4564 34.9661L67.636 29.8091L61.7665 28.3909L62.7204 22.3744L56.7049 23.3284L55.2955 17.4236L50.1393 20.6038L46.5816 15.6874L43.0152 20.6038L37.859 17.4236L36.4496 23.3284L30.4341 22.3744L31.3966 28.3909L25.4842 29.8005L28.6638 34.9576L23.7139 38.4987L28.6294 42.0571L25.4498 47.2141L31.3622 48.6237L30.8122 52.0618C42.448 53.0244 35.3153 55.921 49.8901 55.7491C50.5977 55.7421 51.2894 55.9586 51.8667 56.3679C52.2473 56.6502 52.5443 57.0304 52.726 57.4681C52.8108 57.6767 52.877 57.8924 52.9237 58.1127L55.2955 59.5653L56.7049 53.6605L62.7204 54.6231L61.7665 48.6065L67.6704 47.197L64.4564 42.0915ZM47.0284 52.0704C44.3521 52.1638 41.7082 51.4616 39.4308 50.0525C37.1534 48.6434 35.3448 46.5907 34.2336 44.1538C33.1223 41.7169 32.7583 39.0052 33.1876 36.3614C33.6168 33.7177 34.8201 31.2605 36.6452 29.3006C38.4704 27.3406 40.8355 25.9658 43.4417 25.3499C46.0479 24.734 48.7781 24.9047 51.2873 25.8403C53.7966 26.776 55.9721 28.4347 57.5391 30.6067C59.106 32.7787 59.994 35.3666 60.0908 38.0432C60.2161 41.6352 58.9108 45.13 56.4616 47.7601C54.0124 50.3902 50.6196 51.9405 47.0284 52.0704Z" fill="#EA3838"/>
<path d="M46.5299 52.7063H47.0541C50.8051 52.6372 54.377 51.0895 56.9929 48.3999C59.6088 45.7102 61.057 42.0963 61.0225 38.3442C60.9879 34.5921 59.4734 31.0055 56.8085 28.3645C54.1435 25.7235 50.5436 24.2418 46.792 24.2418C43.0404 24.2418 39.4405 25.7235 36.7755 28.3645C34.1106 31.0055 32.5961 34.5921 32.5615 38.3442C32.527 42.0963 33.9752 45.7102 36.5911 48.3999C39.207 51.0895 42.7789 52.6372 46.5299 52.7063ZM37.0769 29.7317C38.2289 28.4802 39.6186 27.4709 41.1649 26.7625C42.7112 26.0542 44.3831 25.661 46.083 25.606H46.5557C49.5172 25.6082 52.3877 26.6303 54.6844 28.5003C56.9811 30.3704 58.5639 32.9744 59.1668 35.8744C59.7696 38.7745 59.3556 41.7937 57.9944 44.4243C56.6332 47.055 54.4079 49.1366 51.6926 50.3192C48.9773 51.5018 45.9377 51.7131 43.0849 50.9178C40.2321 50.1225 37.7401 48.3689 36.028 45.952C34.3159 43.5351 33.4881 40.6022 33.6838 37.6467C33.8795 34.6911 35.0868 31.893 37.1027 29.7231L37.0769 29.7317Z" fill="#E5E5E5"/>
<path d="M56.3354 55.2077L55.9917 56.6345C57.53 56.1703 58.8534 55.6632 60.0049 55.2335C60.7096 54.967 61.3369 54.735 61.9213 54.5373L59.3432 54.1333C58.4581 54.4685 57.4698 54.8295 56.3354 55.2077Z" fill="#1A171B"/>
<path d="M69.0369 56.3082C68.7541 56.0998 68.4255 55.9622 68.0786 55.9069C67.7318 55.8516 67.3767 55.8801 67.0431 55.9902C67.0526 55.2462 66.8137 54.5202 66.3642 53.9273C66.0643 53.5663 65.6846 53.2798 65.2551 53.0904C64.8257 52.901 64.3581 52.8138 63.8893 52.8358C63.395 52.8565 62.9047 52.9344 62.4283 53.0678L62.6346 54.3227C63.0475 54.1952 63.4748 54.1201 63.9065 54.0992C64.1846 54.0746 64.4645 54.118 64.722 54.2258C64.9796 54.3337 65.207 54.5026 65.3846 54.7181C65.5558 54.955 65.6776 55.224 65.7426 55.509C65.8075 55.794 65.8144 56.0892 65.7627 56.3769C65.1869 56.5918 64.5338 56.8583 63.7775 57.1677C60.3908 58.6123 56.886 59.7626 53.3019 60.6057C53.4759 60.2658 53.5811 59.8948 53.6113 59.5142C53.6944 58.9213 53.6475 58.3174 53.4739 57.7445C53.3002 57.1716 53.004 56.6434 52.6058 56.1964C51.8696 55.5044 50.8918 55.128 49.8816 55.1478C42.0356 55.2424 40.6864 54.4602 39.1224 53.5577C37.2146 52.4576 35.0404 51.2113 22.3562 51.1511H15.6359C15.4688 51.1511 15.3083 51.2169 15.1893 51.3344C15.0703 51.4518 15.0023 51.6114 15 51.7786V68.582C15.0023 68.7492 15.0703 68.9087 15.1893 69.0262C15.3083 69.1436 15.4688 69.2094 15.6359 69.2094H22.3476C22.5148 69.2094 22.6752 69.1436 22.7942 69.0262C22.9132 68.9087 22.9812 68.7492 22.9835 68.582V67.7224C28.453 69.2332 34.1012 69.9994 39.7755 70.0001C48.4293 70.0001 58.9307 68.1264 68.0142 61.1386C68.2119 61.0097 69.922 59.815 69.9994 58.2679C70.0083 57.8879 69.9254 57.5113 69.7579 57.1702C69.5903 56.8291 69.343 56.5334 69.0369 56.3082ZM21.7202 67.9545H16.2633V52.4318H21.7202V67.9545ZM68.7447 58.2077C68.7017 58.9898 67.6705 59.8579 67.2752 60.1244C49.6152 73.7132 26.4038 67.456 22.9835 66.4246V52.4318C34.774 52.5263 36.7333 53.6609 38.4521 54.6665C40.1708 55.6721 41.6747 56.5145 49.8816 56.3855C50.5415 56.3795 51.1796 56.6219 51.6691 57.0645C51.9378 57.387 52.1344 57.7632 52.2455 58.1679C52.3567 58.5727 52.3799 58.9965 52.3136 59.411C52.2621 60.1502 51.6777 60.7346 50.5949 61.13C48.6957 61.7059 44.9231 62.1958 37.7732 61.259C37.6079 61.2373 37.4409 61.2822 37.3087 61.3837C37.1765 61.4853 37.0901 61.6352 37.0685 61.8004C37.0468 61.9657 37.0917 62.1328 37.1932 62.265C37.2948 62.3972 37.4446 62.4836 37.6099 62.5052C40.0392 62.8424 42.4877 63.0233 44.9403 63.0467C46.9689 63.1021 48.9949 62.8648 50.9558 62.3419C55.5256 61.4739 59.9865 60.1077 64.2588 58.2679C66.2955 57.4083 67.765 56.8325 68.2291 57.2193C68.6931 57.606 68.7533 58.0874 68.7447 58.2077Z" fill="#EA3838"/>
<path d="M52.0569 39.5264C52.0569 42.0321 51.6132 43.9451 50.7259 45.2654C49.8457 46.5858 48.5431 47.2459 46.8182 47.2459C45.0933 47.2459 43.7978 46.5893 42.9318 45.2761C42.0658 43.9629 41.6328 42.0463 41.6328 39.5264C41.6328 36.9496 42.0516 35.0189 42.8892 33.734C43.734 32.4492 45.0649 31.8068 46.8821 31.8068C48.6496 31.8068 49.9522 32.4563 50.7898 33.7553C51.6345 35.0544 52.0569 36.978 52.0569 39.5264ZM50.1083 39.5264C50.1083 38.0783 49.9983 36.9035 49.7783 36.002C49.5653 35.0934 49.221 34.4261 48.7454 34.0002C48.2699 33.5743 47.6487 33.3614 46.8821 33.3614C46.1013 33.3614 45.466 33.5708 44.9762 33.9896C44.4864 34.4084 44.1279 35.0721 43.9008 35.9807C43.6807 36.8822 43.5707 38.0641 43.5707 39.5264C43.5707 40.9461 43.6843 42.1102 43.9114 43.0188C44.1457 43.9274 44.5041 44.5982 44.9868 45.0312C45.4695 45.4642 46.0871 45.6807 46.8395 45.6807C47.9682 45.6807 48.7951 45.1767 49.3204 44.1687C49.8457 43.1608 50.1083 41.6133 50.1083 39.5264Z" fill="white"/>
</g>
<defs>
<clipPath id="clip0_8501_194">
<rect width="84" height="84" fill="white"/>
</clipPath>
</defs>
</svg>
