<svg xmlns="http://www.w3.org/2000/svg" width="84" height="84" viewBox="0 0 84 84" fill="none">
  <g clip-path="url(#clip0_8501_244)">
    <path d="M42.0656 83.9016C65.2616 83.9016 84.0656 65.0976 84.0656 41.9016C84.0656 18.7056 65.2616 -0.0983887 42.0656 -0.0983887C18.8697 -0.0983887 0.0656281 18.7056 0.0656281 41.9016C0.0656281 65.0976 18.8697 83.9016 42.0656 83.9016Z" fill="#19191C"/>
    <path d="M55.5516 44.8055V29.9906C55.5516 24.5766 51.1547 20.1797 45.7406 20.1797H37.718C32.3039 20.1797 27.907 24.5766 27.907 29.9906V44.8055H55.5516Z" fill="#CA4646"/>
    <path d="M30.532 42.1805V29.9906C30.532 26.0367 33.7477 22.8047 37.718 22.8047H45.7406C49.6945 22.8047 52.9266 26.0203 52.9266 29.9906V42.1805H30.532Z" fill="#E06F6F"/>
    <path d="M30.1547 61.8516H26.2336L28.6617 54.5016H34.6008L30.1547 61.8516Z" fill="white"/>
    <path d="M53.3203 61.8516H57.225L54.7969 54.5016H48.8578L53.3203 61.8516Z" fill="white"/>
    <path d="M65.543 34.4696C64.575 32.9438 63.0492 31.8774 61.2773 31.4836C60.8016 31.3688 60.293 31.3196 59.8008 31.3196C56.6344 31.3196 53.8617 33.5672 53.1727 36.6516L52.3359 40.4743H31.1227L30.2859 36.6516C29.5969 33.5672 26.8078 31.3196 23.6578 31.3196C23.1656 31.3196 22.6734 31.3688 22.1812 31.4836C20.4094 31.8774 18.9 32.9274 17.9156 34.4696C16.9477 35.9954 16.6195 37.8165 17.0133 39.5883L19.2281 49.6125C19.2937 50.0063 19.3758 50.4165 19.4906 50.7938L19.5727 51.1383C20.2617 54.2227 23.0344 56.4704 26.2008 56.4704C26.3484 56.4704 26.4797 56.4704 26.6273 56.454C26.8078 56.4704 26.9719 56.4704 27.1359 56.4704H56.2898C56.4703 56.4704 56.6344 56.4704 56.8148 56.454C56.9625 56.4704 57.1102 56.4704 57.2578 56.4704C60.4242 56.4704 63.1969 54.2227 63.8859 51.1383L66.4453 39.5883C66.8391 37.8165 66.5109 35.9954 65.543 34.4696Z" fill="#19191C"/>
    <path d="M41.7375 46.6921C49.4302 46.6921 55.6664 44.6722 55.6664 42.1804C55.6664 39.6887 49.4302 37.6687 41.7375 37.6687C34.0448 37.6687 27.8086 39.6887 27.8086 42.1804C27.8086 44.6722 34.0448 46.6921 41.7375 46.6921Z" fill="#19191C"/>
    <path d="M27.1523 54.2227C23.9695 54.2227 21.3938 51.6469 21.3938 48.4641C21.3938 45.2813 23.9695 42.6891 27.1523 42.6891H56.3063C59.4891 42.6891 62.0648 45.2649 62.0648 48.4641C62.0648 51.6469 59.4891 54.2227 56.3063 54.2227H27.1523Z" fill="#CA4646"/>
    <path d="M30.6633 48.6774C31.2047 51.1383 29.6461 53.5829 27.1852 54.1243C24.7242 54.6657 22.2797 53.1071 21.7383 50.6462L19.1953 39.0961C18.6539 36.6352 20.2125 34.1907 22.6734 33.6493C25.1344 33.1079 27.5789 34.6665 28.1203 37.1274L30.6633 48.6774Z" fill="#CA4646"/>
    <path d="M52.8117 48.6774C52.2703 51.1383 53.8289 53.5829 56.2898 54.1243C58.7508 54.6657 61.1953 53.1071 61.7367 50.6462L64.2961 39.0961C64.8375 36.6352 63.2789 34.1907 60.818 33.6493C58.357 33.1079 55.9125 34.6665 55.3711 37.1274L52.8117 48.6774Z" fill="#CA4646"/>
    <path d="M41.7375 48.6937C49.2399 48.6937 55.3219 46.7472 55.3219 44.3461C55.3219 41.9449 49.2399 39.9984 41.7375 39.9984C34.2351 39.9984 28.1531 41.9449 28.1531 44.3461C28.1531 46.7472 34.2351 48.6937 41.7375 48.6937Z" fill="#CA4646"/>
  </g>
  <defs>
    <clipPath id="clip0_8501_244">
      <rect width="84" height="84" fill="white"/>
    </clipPath>
  </defs>
</svg>