<svg xmlns="http://www.w3.org/2000/svg" width="84" height="84" viewBox="0 0 84 84" fill="none">
  <g clip-path="url(#clip0_8501_129)">
    <path d="M42 0C65.1965 0 84 18.8042 84 42C84 65.1965 65.1965 84 42 84C18.8042 84 0 65.1965 0 42C0 18.8042 18.8042 0 42 0Z" fill="#19191C"/>
    <path d="M49.875 69H34.7812V82.7812H49.875V69Z" fill="#963B3B"/>
    <path d="M28.875 28.2188V29.5312H55.7812V28.2188H28.875ZM28.875 42H55.7812V40.6875H28.875V42ZM28.875 54.4688H55.7812V53.1562H28.875V54.4688Z" fill="#AC8989"/>
    <path d="M57.5315 32.1562C59.4641 32.1562 61.0312 30.6876 61.0312 28.875C61.0312 27.0631 59.4641 25.5938 57.5315 25.5938C55.5982 25.5938 55.7812 27.0631 55.7812 28.875C55.7812 30.6876 55.5982 32.1562 57.5315 32.1562ZM57.5315 38.0625C55.5982 38.0625 55.7812 39.5312 55.7812 41.3438C55.7812 43.1563 55.5982 44.625 57.5315 44.625C59.4641 44.625 61.0312 43.1563 61.0312 41.3438C61.0312 39.5312 59.4641 38.0625 57.5315 38.0625ZM57.5315 50.5312C55.5982 50.5312 55.7812 51.9999 55.7812 53.8125C55.7812 55.6251 55.5982 57.0938 57.5315 57.0938C59.4641 57.0938 61.0312 55.6251 61.0312 53.8125C61.0312 51.9999 59.4641 50.5312 57.5315 50.5312ZM27.1254 25.5938C25.1921 25.5938 23.625 27.0631 23.625 28.875C23.625 30.6876 25.1921 32.1562 27.1254 32.1562C29.0581 32.1562 28.875 30.6876 28.875 28.875C28.875 27.0631 29.0581 25.5938 27.1254 25.5938ZM27.1254 38.0625C25.1921 38.0625 23.625 39.5312 23.625 41.3438C23.625 43.1563 25.1921 44.625 27.1254 44.625C29.0581 44.625 28.875 43.1563 28.875 41.3438C28.875 39.5312 29.0581 38.0625 27.1254 38.0625ZM27.1254 50.5312C25.1921 50.5312 23.625 51.9999 23.625 53.8125C23.625 55.6251 25.1921 57.0938 27.1254 57.0938C29.0581 57.0938 28.875 55.6251 28.875 53.8125C28.875 51.9999 29.0581 50.5312 27.1254 50.5312Z" fill="#963B3B"/>
    <path d="M34.7812 68.25H49.875V70.2188H34.7812V68.25Z" fill="#EEEBEB"/>
    <path d="M32.1562 18.375C32.1562 18.375 36.937 17.7188 42.3301 17.7188C47.0669 17.7188 52.5 18.375 52.5 18.375C53.2245 18.375 53.8125 18.963 53.8125 19.6875V59.0625C53.8125 61.0214 51.83 59.6256 49.875 68.25H34.7812C32.7548 59.684 30.8438 61.0057 30.8438 59.0625V19.6875C30.8438 18.963 31.4317 18.375 32.1562 18.375Z" fill="#E13838"/>
    <path d="M47.9062 31.5C49.3559 31.5 50.5312 30.3247 50.5312 28.875C50.5312 27.4253 49.3559 26.25 47.9062 26.25C46.4566 26.25 45.2812 27.4253 45.2812 28.875C45.2812 30.3247 46.4566 31.5 47.9062 31.5ZM36.75 26.25C35.3003 26.25 34.125 27.4253 34.125 28.875C34.125 30.3247 35.3003 31.5 36.75 31.5C38.1997 31.5 39.375 30.3247 39.375 28.875C39.375 27.4253 38.1997 26.25 36.75 26.25ZM47.9062 38.7188C46.4566 38.7188 45.2812 39.8941 45.2812 41.3438C45.2812 42.7934 46.4566 43.9688 47.9062 43.9688C49.3559 43.9688 50.5312 42.7934 50.5312 41.3438C50.5312 39.8941 49.3559 38.7188 47.9062 38.7188ZM36.75 38.7188C35.3003 38.7188 34.125 39.8941 34.125 41.3438C34.125 42.7934 35.3003 43.9688 36.75 43.9688C38.1997 43.9688 39.375 42.7934 39.375 41.3438C39.375 39.8941 38.1997 38.7188 36.75 38.7188ZM47.9062 51.1875C46.4566 51.1875 45.2812 52.3628 45.2812 53.8125C45.2812 55.2622 46.4566 56.4375 47.9062 56.4375C49.3559 56.4375 50.5312 55.2622 50.5312 53.8125C50.5312 52.3628 49.3559 51.1875 47.9062 51.1875ZM36.75 51.1875C35.3003 51.1875 34.125 52.3628 34.125 53.8125C34.125 55.2622 35.3003 56.4375 36.75 56.4375C38.1997 56.4375 39.375 55.2622 39.375 53.8125C39.375 52.3628 38.1997 51.1875 36.75 51.1875Z" fill="#EEEBEB"/>
    <path d="M36.75 27.5625C36.0255 27.5625 35.4375 28.1505 35.4375 28.875C35.4375 29.5995 36.0255 30.1875 36.75 30.1875C37.4745 30.1875 38.0625 29.5995 38.0625 28.875C38.0625 28.1505 37.4745 27.5625 36.75 27.5625ZM47.9062 30.1875C48.6307 30.1875 49.2188 29.5995 49.2188 28.875C49.2188 28.1505 48.6307 27.5625 47.9062 27.5625C47.1818 27.5625 46.5938 28.1505 46.5938 28.875C46.5938 29.5995 47.1818 30.1875 47.9062 30.1875ZM36.75 40.0312C36.0255 40.0312 35.4375 40.6193 35.4375 41.3438C35.4375 42.0682 36.0255 42.6562 36.75 42.6562C37.4745 42.6562 38.0625 42.0682 38.0625 41.3438C38.0625 40.6193 37.4745 40.0312 36.75 40.0312ZM47.9062 40.0312C47.1818 40.0312 46.5938 40.6193 46.5938 41.3438C46.5938 42.0682 47.1818 42.6562 47.9062 42.6562C48.6307 42.6562 49.2188 42.0682 49.2188 41.3438C49.2188 40.6193 48.6307 40.0312 47.9062 40.0312ZM36.75 52.5C36.0255 52.5 35.4375 53.088 35.4375 53.8125C35.4375 54.537 36.0255 55.125 36.75 55.125C37.4745 55.125 38.0625 54.537 38.0625 53.8125C38.0625 53.088 37.4745 52.5 36.75 52.5ZM47.9062 52.5C47.1818 52.5 46.5938 53.088 46.5938 53.8125C46.5938 54.537 47.1818 55.125 47.9062 55.125C48.6307 55.125 49.2188 54.537 49.2188 53.8125C49.2188 53.088 48.6307 52.5 47.9062 52.5Z" fill="#A18F8F"/>
    <path d="M37 82.7812H37.6562V69H37V82.7812ZM39.625 82.7812H40.2812V69H39.625V82.7812ZM42.25 82.7812H42.9062V69H42.25V82.7812ZM44.875 82.7812H45.5312V69H44.875V82.7812ZM47.5 69V82.7812H48.1562V69H47.5Z" fill="#907373"/>
  </g>
  <defs>
    <clipPath id="clip0_8501_129">
      <rect width="84" height="84" fill="white"/>
    </clipPath>
  </defs>
</svg>