<svg width="84" height="84" viewBox="0 0 84 84" fill="none" xmlns="http://www.w3.org/2000/svg">
<g clip-path="url(#clip0_158_2535)">
<path d="M42 0C65.1958 0 84 18.8042 84 42C84 65.1965 65.1958 84 42 84C18.8042 84 0 65.1971 0 42C0 18.8048 18.8042 0 42 0Z" fill="#19191C"/>
</g>
<g clip-path="url(#clip1_158_2535)">
<path d="M67.6098 20.9896H14.1697V51.2741C14.1697 52.4726 14.6458 53.622 15.4933 54.4695C16.3408 55.317 17.4902 55.7931 18.6887 55.7931C19.8873 55.7931 21.0367 55.317 21.8842 54.4695C22.7317 53.622 23.2078 52.4726 23.2078 51.2741V44.0778C23.2475 42.9065 23.7407 41.7964 24.5834 40.9818C25.4261 40.1672 26.5522 39.7119 27.7243 39.7119C28.8963 39.7119 30.0225 40.1672 30.8651 40.9818C31.7078 41.7964 32.201 42.9065 32.2407 44.0778V56.3587C32.2407 57.5572 32.7169 58.7066 33.5643 59.5541C34.4118 60.4016 35.5613 60.8777 36.7598 60.8777C37.9583 60.8777 39.1078 60.4016 39.9552 59.5541C40.8027 58.7066 41.2789 57.5572 41.2789 56.3587V35.242H67.6098V20.9896Z" fill="#E74C3C"/>
<path d="M67.7861 34.9982H59.5625C59.4249 34.9982 59.293 35.0528 59.1957 35.1501C59.0984 35.2474 59.0437 35.3794 59.0437 35.517C59.0437 35.6546 59.0984 35.7866 59.1957 35.8839C59.293 35.9812 59.4249 36.0358 59.5625 36.0358H67.7861C68.1769 36.0358 68.5517 36.1911 68.828 36.4674C69.1044 36.7438 69.2596 37.1185 69.2596 37.5093V39.5847C69.2582 40.6438 68.8369 41.6592 68.088 42.4081C67.339 43.157 66.3237 43.5783 65.2646 43.5797H57.9386C56.6033 43.5825 55.3235 44.1141 54.3793 45.0583C53.4351 46.0025 52.9034 47.2823 52.9007 48.6176V58.9943C52.9007 59.1319 52.9554 59.2639 53.0527 59.3612C53.15 59.4585 53.2819 59.5132 53.4195 59.5132C53.5571 59.5132 53.6891 59.4585 53.7864 59.3612C53.8837 59.2639 53.9384 59.1319 53.9384 58.9943V48.6176C53.9397 47.5571 54.3616 46.5404 55.1115 45.7905C55.8614 45.0407 56.8781 44.6188 57.9386 44.6174H65.2646C66.5989 44.616 67.8782 44.0853 68.8217 43.1418C69.7652 42.1983 70.2959 40.919 70.2973 39.5847V37.5093C70.2973 36.8433 70.0327 36.2046 69.5618 35.7337C69.0908 35.2627 68.4521 34.9982 67.7861 34.9982Z" fill="#68C18D"/>
<path d="M57.0826 63.918C57.0826 64.7354 56.758 65.5193 56.18 66.0973C55.602 66.6752 54.8181 66.9999 54.0008 66.9999C53.185 66.9932 52.4045 66.6665 51.8272 66.0901C51.2498 65.5137 50.9218 64.7338 50.9137 63.918V51.0094H57.0826V63.918Z" fill="#F3B625"/>
<path d="M44.6772 40.1867C43.4787 40.1867 42.3293 39.7106 41.4818 38.8631C40.6343 38.0156 40.1582 36.8661 40.1582 35.6676C40.1582 34.4691 40.6343 33.3197 41.4818 32.4722C42.3293 31.6247 43.4787 31.1486 44.6772 31.1486H63.3242C63.9174 31.1486 64.5048 31.2655 65.0528 31.4927C65.6008 31.7198 66.0986 32.0528 66.5178 32.4725C66.937 32.8922 67.2694 33.3904 67.496 33.9386C67.7225 34.4869 67.8388 35.0744 67.8381 35.6676C67.8388 36.2608 67.7225 36.8484 67.496 37.3966C67.2694 37.9448 66.937 38.4431 66.5178 38.8628C66.0986 39.2825 65.6008 39.6154 65.0528 39.8426C64.5048 40.0698 63.9174 40.1867 63.3242 40.1867H44.6772Z" fill="white"/>
</g>
<defs>
<clipPath id="clip0_158_2535">
<rect width="84" height="84" fill="white"/>
</clipPath>
<clipPath id="clip1_158_2535">
<rect width="56.1277" height="46" fill="white" transform="translate(14.1697 21)"/>
</clipPath>
</defs>
</svg>
