<svg xmlns="http://www.w3.org/2000/svg" width="84" height="84" viewBox="0 0 84 84" fill="none">
  <g clip-path="url(#clip0_8501_300)">
    <path d="M42.006 0C65.2018 0 84.006 18.8042 84.006 42C84.006 65.1965 65.2018 84 42.006 84C18.8102 84 0.00597382 65.1965 0.00597382 42C0.00597382 18.8042 18.8108 0 42.006 0Z" fill="#19191C"/>
    <path d="M42.0059 55.7812C28.2942 55.7812 15.1745 56.4841 3.07651 57.7644C9.31219 73.1469 24.3876 84 42.0059 84C59.6249 84 74.6996 73.1469 80.9353 57.7644C68.8373 56.4841 55.7169 55.7812 42.0059 55.7812Z" fill="#373737"/>
    <path d="M25.9278 40.6875C22.1222 40.6875 19.0372 43.7725 19.0372 47.5781C19.0372 51.3837 22.1222 54.4688 25.9278 54.4688C29.7334 54.4688 32.8184 51.3837 32.8184 47.5781C32.8184 43.7725 29.7334 40.6875 25.9278 40.6875ZM25.9278 53.1562C22.8473 53.1562 20.3497 50.6586 20.3497 47.5781C20.3497 44.4977 22.8473 42 25.9278 42C29.0082 42 31.5059 44.4977 31.5059 47.5781C31.5059 50.6586 29.0089 53.1562 25.9278 53.1562ZM59.3972 40.6875C55.5916 40.6875 52.5066 43.7725 52.5066 47.5781C52.5066 51.3837 55.5916 54.4688 59.3972 54.4688C63.2028 54.4688 66.2878 51.3837 66.2878 47.5781C66.2878 43.7725 63.2028 40.6875 59.3972 40.6875ZM59.3972 53.1562C56.3161 53.1562 53.8191 50.6586 53.8191 47.5781C53.8191 44.4977 56.3161 42 59.3972 42C62.477 42 64.9753 44.4977 64.9753 47.5781C64.9753 50.6586 62.477 53.1562 59.3972 53.1562Z" fill="white"/>
    <path d="M25.9278 38.7188C21.0348 38.7188 17.0684 42.6858 17.0684 47.5781C17.0684 52.4711 21.0348 56.4375 25.9278 56.4375C30.8208 56.4375 34.7872 52.4711 34.7872 47.5781C34.7872 42.6858 30.8208 38.7188 25.9278 38.7188ZM25.9278 54.4688C22.1222 54.4688 19.0372 51.3837 19.0372 47.5781C19.0372 43.7725 22.1222 40.6875 25.9278 40.6875C29.7334 40.6875 32.8184 43.7725 32.8184 47.5781C32.8184 51.3837 29.7334 54.4688 25.9278 54.4688ZM59.3972 38.7188C54.5035 38.7188 50.5378 42.6858 50.5378 47.5781C50.5378 52.4711 54.5035 56.4375 59.3972 56.4375C64.2895 56.4375 68.2566 52.4711 68.2566 47.5781C68.2566 42.6858 64.2895 38.7188 59.3972 38.7188ZM59.3972 54.4688C55.5916 54.4688 52.5066 51.3837 52.5066 47.5781C52.5066 43.7725 55.5916 40.6875 59.3972 40.6875C63.2028 40.6875 66.2878 43.7725 66.2878 47.5781C66.2878 51.3837 63.2028 54.4688 59.3972 54.4688Z" fill="#EA3838"/>
    <path d="M61.026 48.5789L50.9283 31.6279L51.1258 31.5557L50.927 31.624L50.5772 31.0366L49.8238 29.6172C50.421 29.2306 51.0143 28.3591 51.2866 27.6117C51.5274 26.9482 51.4507 26.2408 51.0622 25.5661C49.8665 23.4884 43.8854 24.9972 42.082 25.343L42.3531 27.0125C45.9139 26.3287 49.3152 25.7945 49.7228 26.5059C49.9406 26.8845 49.8468 27.1208 49.8383 27.2803C49.7739 28.3637 48.0552 29.6014 47.5374 29.7832V29.7839L47.5 29.7976L48.1176 30.784L48.2993 31.0484L49.0311 32.2763L48.9477 32.3071L49.0324 32.2776L49.663 33.3381L34.1677 36.4966V36.5577C34.0935 36.5308 34.0154 36.515 33.934 36.5065L31.6733 32.5552L29.4998 33.1504L32.1871 37.3557L24.9204 47.8491L26.4987 49.0192L33.2673 39.2437L38.5836 48.5323L38.5429 48.5729L38.6426 48.6359L39.2641 49.7227L39.7412 49.3289L40.2019 49.6197L52.124 37.4672L59.3604 49.6157L61.026 48.5789ZM50.9053 35.9743L39.9945 47.0964L34.9742 38.323L50.4341 35.171V35.1106C50.5352 35.1474 50.6428 35.1704 50.7557 35.171L51.4323 36.3063L50.9053 35.9743Z" fill="#BD3E25"/>
    <path d="M28.8809 30.8438H32.1622C33.2496 30.8438 34.1309 30.7834 34.1309 31.5C34.1309 32.5874 30.6246 33.4688 29.5372 33.4688H28.8809C27.7942 33.4688 26.9122 33.2437 26.9122 32.1563C26.9122 31.0695 27.7942 30.8438 28.8809 30.8438Z" fill="white"/>
    <path d="M40.7551 45.2785L40.6317 43.9719L24.8817 45.2844L25.0051 46.591L40.7551 45.2785ZM24.2268 49.8723L40.6324 51.1848L40.7557 49.8782L24.3495 48.5657L24.2268 49.8723Z" fill="#334D5D"/>
    <path d="M25.9278 50.3685C27.4689 50.3685 28.7182 49.1192 28.7182 47.5781C28.7182 46.037 27.4689 44.7877 25.9278 44.7877C24.3867 44.7877 23.1374 46.037 23.1374 47.5781C23.1374 49.1192 24.3867 50.3685 25.9278 50.3685Z" fill="white"/>
    <path d="M40.3653 43.9688C42.359 43.9688 43.9747 45.5851 43.9747 47.5781C43.9747 49.5718 42.3583 51.1875 40.3653 51.1875C38.3722 51.1875 36.7559 49.5718 36.7559 47.5781C36.7559 45.5851 38.3722 43.9688 40.3653 43.9688Z" fill="#334D5D"/>
    <path d="M40.3653 45.2812C41.6345 45.2812 42.6622 46.3096 42.6622 47.5781C42.6622 48.8473 41.6338 49.875 40.3653 49.875C39.0967 49.875 38.0684 48.8473 38.0684 47.5781C38.0684 46.3096 39.0974 45.2812 40.3653 45.2812Z" fill="white"/>
    <path d="M59.3972 50.3685C60.9383 50.3685 62.1876 49.1192 62.1876 47.5781C62.1876 46.037 60.9383 44.7877 59.3972 44.7877C57.8561 44.7877 56.6068 46.037 56.6068 47.5781C56.6068 49.1192 57.8561 50.3685 59.3972 50.3685Z" fill="white"/>
    <path d="M59.3972 49.2188C60.3033 49.2188 61.0378 48.4842 61.0378 47.5781C61.0378 46.672 60.3033 45.9375 59.3972 45.9375C58.4911 45.9375 57.7566 46.672 57.7566 47.5781C57.7566 48.4842 58.4911 49.2188 59.3972 49.2188Z" fill="#E27C3F"/>
    <path d="M25.9278 49.2188C26.8339 49.2188 27.5684 48.4842 27.5684 47.5781C27.5684 46.672 26.8339 45.9375 25.9278 45.9375C25.0217 45.9375 24.2872 46.672 24.2872 47.5781C24.2872 48.4842 25.0217 49.2188 25.9278 49.2188Z" fill="#E27C3F"/>
  </g>
  <defs>
    <clipPath id="clip0_8501_300">
      <rect width="84" height="84" fill="white"/>
    </clipPath>
  </defs>
</svg>